Deiphobus.ufo
<glyph name="exclam" format="2">
  <advance width="1056"/>
  <unicode hex="0021"/>
  <outline>
    <contour>
      <point x="341" y="704" type="line"/>
      <point x="341" y="1408" type="line"/>
      <point x="715" y="1408" type="line"/>
      <point x="715" y="704" type="line"/>
    </contour>
    <contour>
      <point x="264" y="0" type="line"/>
      <point x="264" y="528" type="line"/>
      <point x="792" y="528" type="line"/>
      <point x="792" y="0" type="line"/>
    </contour>
  </outline>
</glyph>
<glyph name="quotedbl" format="2">
  <advance width="1408"/>
  <unicode hex="0022"/>
  <outline>
    <contour>
      <point x="176" y="847" type="line"/>
      <point x="176" y="1408" type="line"/>
      <point x="550" y="1408" type="line"/>
      <point x="550" y="847" type="line"/>
    </contour>
    <contour>
      <point x="858" y="847" type="line"/>
      <point x="858" y="1408" type="line"/>
      <point x="1232" y="1408" type="line"/>
      <point x="1232" y="847" type="line"/>
    </contour>
  </outline>
</glyph>
<glyph name="numbersign" format="2">
  <advance width="1408"/>
  <unicode hex="0023"/>
  <outline>
    <contour>
      <point x="176" y="264" type="line"/>
      <point x="176" y="638" type="line"/>
      <point x="264" y="638" type="line"/>
      <point x="264" y="770" type="line"/>
      <point x="176" y="770" type="line"/>
      <point x="176" y="1144" type="line"/>
      <point x="264" y="1144" type="line"/>
      <point x="264" y="1364" type="line"/>
      <point x="638" y="1364" type="line"/>
      <point x="638" y="1144" type="line"/>
      <point x="770" y="1144" type="line"/>
      <point x="770" y="1364" type="line"/>
      <point x="1144" y="1364" type="line"/>
      <point x="1144" y="1144" type="line"/>
      <point x="1232" y="1144" type="line"/>
      <point x="1232" y="770" type="line"/>
      <point x="1144" y="770" type="line"/>
      <point x="1144" y="638" type="line"/>
      <point x="1232" y="638" type="line"/>
      <point x="1232" y="264" type="line"/>
      <point x="1144" y="264" type="line"/>
      <point x="1144" y="44" type="line"/>
      <point x="770" y="44" type="line"/>
      <point x="770" y="264" type="line"/>
      <point x="638" y="264" type="line"/>
      <point x="638" y="44" type="line"/>
      <point x="264" y="44" type="line"/>
      <point x="264" y="264" type="line"/>
    </contour>
    <contour>
      <point x="638" y="638" type="line"/>
      <point x="770" y="638" type="line"/>
      <point x="770" y="770" type="line"/>
      <point x="638" y="770" type="line"/>
		</contour>
  </outline>
</glyph>
<glyph name="dollar" format="2">
  <advance width="1408"/>
  <unicode hex="0024"/>
  <outline>
    <contour>
      <point x="176" y="143" type="line"/>
      <point x="176" y="517" type="line"/>
      <point x="396" y="517" type="line"/>
      <point x="176" y="737" type="line"/>
      <point x="176" y="1045" type="line"/>
      <point x="396" y="1265" type="line"/>
      <point x="517" y="1265" type="line"/>
      <point x="517" y="1408" type="line"/>
      <point x="891" y="1408" type="line"/>
      <point x="891" y="1265" type="line"/>
      <point x="1232" y="1265" type="line"/>
      <point x="1232" y="891" type="line"/>
      <point x="1012" y="891" type="line"/>
      <point x="1232" y="671" type="line"/>
      <point x="1232" y="363" type="line"/>
      <point x="1012" y="143" type="line"/>
      <point x="891" y="143" type="line"/>
      <point x="891" y="0" type="line"/>
      <point x="517" y="0" type="line"/>
      <point x="517" y="143" type="line"/>
    </contour>
  </outline>
</glyph>
<glyph name="percent" format="2">
  <advance width="1408"/>
  <unicode hex="0025"/>
  <outline>
    <contour>
      <point x="176" y="440" type="line"/>
      <point x="968" y="1232" type="line"/>
      <point x="1232" y="968" type="line"/>
      <point x="440" y="176" type="line"/>
    </contour>
    <contour>
      <point x="176" y="858" type="line"/>
      <point x="176" y="1232" type="line"/>
      <point x="550" y="1232" type="line"/>
      <point x="550" y="858" type="line"/>
    </contour>
    <contour>
      <point x="858" y="176" type="line"/>
      <point x="858" y="550" type="line"/>
      <point x="1232" y="550" type="line"/>
      <point x="1232" y="176" type="line"/>
    </contour>
  </outline>
</glyph>
<glyph name="ampersand" format="2">
  <advance width="1408"/>
  <unicode hex="0026"/>
  <outline>
    <contour>
      <point x="176" y="220" type="line"/>
      <point x="176" y="671" type="line"/>
      <point x="253" y="748" type="line"/>
      <point x="253" y="1188" type="line"/>
      <point x="477" y="1408" type="line"/>
      <point x="782" y="1408" type="line"/>
      <point x="1001" y="1188" type="line"/>
      <point x="1001" y="1034" type="line"/>
      <point x="627" y="1034" type="line"/>
      <point x="627" y="891" type="line"/>
      <point x="1232" y="891" type="line"/>
      <point x="1232" y="517" type="line"/>
      <point x="1078" y="517" type="line"/>
      <point x="1078" y="374" type="line"/>
      <point x="1155" y="374" type="line"/>
      <point x="1155" y="0" type="line"/>
      <point x="396" y="0" type="line"/>
    </contour>
    <contour>
      <point x="550" y="374" type="line"/>
      <point x="704" y="374" type="line"/>
      <point x="704" y="517" type="line"/>
      <point x="550" y="517" type="line"/>
    </contour>
  </outline>
</glyph>
<glyph name="parenleft" format="2">
  <advance width="1408"/>
  <unicode hex="0028"/>
  <outline>
    <contour>
      <point x="517" y="308" type="line"/>
      <point x="517" y="1100" type="line"/>
      <point x="825" y="1408" type="line"/>
      <point x="1232" y="1408" type="line"/>
      <point x="1232" y="1287" type="line"/>
      <point x="891" y="946" type="line"/>
      <point x="891" y="462" type="line"/>
      <point x="1232" y="121" type="line"/>
      <point x="1232" y="0" type="line"/>
      <point x="825" y="0" type="line"/>
    </contour>
  </outline>
</glyph>
<glyph name="parenright" format="2">
  <advance width="1408"/>
  <unicode hex="0029"/>
  <outline>
    <contour>
      <point x="176" y="0" type="line"/>
      <point x="176" y="121" type="line"/>
      <point x="517" y="462" type="line"/>
      <point x="517" y="946" type="line"/>
      <point x="176" y="1287" type="line"/>
      <point x="176" y="1408" type="line"/>
      <point x="583" y="1408" type="line"/>
      <point x="891" y="1100" type="line"/>
      <point x="891" y="308" type="line"/>
      <point x="583" y="0" type="line"/>
    </contour>
  </outline>
</glyph>
<glyph name="asterisk" format="2">
  <advance width="1408"/>
  <unicode hex="002A"/>
  <outline>
    <contour>
      <point x="198" y="781" type="line"/>
      <point x="319" y="1144" type="line"/>
      <point x="517" y="1078" type="line"/>
      <point x="517" y="1298" type="line"/>
      <point x="891" y="1298" type="line"/>
      <point x="891" y="1078" type="line"/>
      <point x="1089" y="1144" type="line"/>
      <point x="1210" y="781" type="line"/>
      <point x="1012" y="715" type="line"/>
      <point x="1144" y="539" type="line"/>
      <point x="836" y="308" type="line"/>
      <point x="704" y="484" type="line"/>
      <point x="572" y="308" type="line"/>
      <point x="264" y="539" type="line"/>
      <point x="396" y="715" type="line"/>
    </contour>
  </outline>
</glyph>
<glyph name="plus" format="2">
  <advance width="1408"/>
  <unicode hex="002B"/>
  <outline>
    <contour>
      <point x="341" y="517" type="line"/>
      <point x="341" y="891" type="line"/>
      <point x="517" y="891" type="line"/>
      <point x="517" y="1155" type="line"/>
      <point x="891" y="1155" type="line"/>
      <point x="891" y="891" type="line"/>
      <point x="1067" y="891" type="line"/>
      <point x="1067" y="517" type="line"/>
      <point x="891" y="517" type="line"/>
      <point x="891" y="253" type="line"/>
      <point x="517" y="253" type="line"/>
      <point x="517" y="517" type="line"/>
    </contour>
  </outline>
</glyph>
<glyph name="comma" format="2">
  <advance width="704"/>
  <unicode hex="002C"/>
  <outline>
    <contour>
      <point x="176" y="-187" type="line"/>
      <point x="176" y="374" type="line"/>
      <point x="550" y="374" type="line"/>
      <point x="550" y="187" type="line"/>
    </contour>
  </outline>
</glyph>
<glyph name="hyphen" format="2">
  <advance width="1408"/>
  <unicode hex="002D"/>
  <outline>
    <contour>
      <point x="341" y="517" type="line"/>
      <point x="341" y="891" type="line"/>
      <point x="1067" y="891" type="line"/>
      <point x="1067" y="517" type="line"/>
    </contour>
  </outline>
</glyph>
<glyph name="period" format="2">
  <advance width="704"/>
  <unicode hex="002E"/>
  <outline>
    <contour>
      <point x="176" y="0" type="line"/>
      <point x="176" y="374" type="line"/>
      <point x="550" y="374" type="line"/>
      <point x="550" y="0" type="line"/>
    </contour>
  </outline>
</glyph>
<glyph name="slash" format="2">
  <advance width="1408"/>
  <unicode hex="002F"/>
  <outline>
    <contour>
      <point x="176" y="0" type="line"/>
      <point x="176" y="66" type="line"/>
      <point x="847" y="1408" type="line"/>
      <point x="1232" y="1408" type="line"/>
      <point x="1232" y="1342" type="line"/>
      <point x="561" y="0" type="line"/>
    </contour>
  </outline>
</glyph>
<glyph name="one" format="2">
  <advance width="1408"/>
  <unicode hex="0031"/>
  <outline>
    <contour>
      <point x="176" y="0" type="line"/>
      <point x="176" y="374" type="line"/>
      <point x="693" y="374" type="line"/>
      <point x="693" y="374" type="line"/>
      <point x="693" y="880" type="line"/>
      <point x="583" y="770" type="line"/>
      <point x="319" y="1034" type="line"/>
      <point x="693" y="1408" type="line"/>
      <point x="1067" y="1408" type="line"/>
      <point x="1067" y="374" type="line"/>
      <point x="1232" y="374" type="line"/>
      <point x="1232" y="0" type="line"/>
    </contour>
  </outline>
</glyph>
<glyph name="two" format="2">
  <advance width="1408"/>
  <unicode hex="0032"/>
  <outline>
    <contour>
      <point x="176" y="0" type="line"/>
      <point x="176" y="627" type="line"/>
      <point x="440" y="891" type="line"/>
      <point x="858" y="891" type="line"/>
      <point x="858" y="1034" type="line"/>
      <point x="176" y="1034" type="line"/>
      <point x="176" y="1188" type="line"/>
      <point x="396" y="1408" type="line"/>
      <point x="1012" y="1408" type="line"/>
      <point x="1232" y="1188" type="line"/>
      <point x="1232" y="737" type="line"/>
      <point x="1012" y="517" type="line"/>
      <point x="594" y="517" type="line"/>
      <point x="550" y="473" type="line"/>
      <point x="550" y="374" type="line"/>
      <point x="1232" y="374" type="line"/>
      <point x="1232" y="0" type="line"/>
    </contour>
  </outline>
</glyph>
<glyph name="four" format="2">
  <advance width="1408"/>
  <unicode hex="0034"/>
  <outline>
    <contour>
      <point x="176" y="220" type="line"/>
      <point x="176" y="594" type="line"/>
      <point x="583" y="1408" type="line"/>
      <point x="1001" y="1408" type="line"/>
      <point x="594" y="594" type="line"/>
      <point x="693" y="594" type="line"/>
      <point x="693" y="759" type="line"/>
      <point x="1067" y="946" type="line"/>
      <point x="1067" y="594" type="line"/>
      <point x="1232" y="594" type="line"/>
      <point x="1232" y="220" type="line"/>
      <point x="1067" y="220" type="line"/>
      <point x="1067" y="0" type="line"/>
      <point x="693" y="0" type="line"/>
      <point x="693" y="220" type="line"/>
    </contour>
  </outline>
</glyph>
<glyph name="six" format="2">
  <advance width="1408"/>
  <unicode hex="0036"/>
  <outline>
    <contour>
      <point x="176" y="220" type="line"/>
      <point x="176" y="836" type="line"/>
      <point x="748" y="1408" type="line"/>
      <point x="1210" y="1408" type="line"/>
      <point x="1210" y="1034" type="line"/>
      <point x="902" y="1034" type="line"/>
      <point x="748" y="880" type="line"/>
      <point x="880" y="880" type="line"/>
      <point x="1232" y="528" type="line"/>
      <point x="1232" y="220" type="line"/>
      <point x="1012" y="0" type="line"/>
      <point x="396" y="0" type="line"/>
    </contour>
    <contour>
      <point x="550" y="374" type="line"/>
      <point x="858" y="374" type="line"/>
      <point x="550" y="682" type="line"/>
    </contour>
  </outline>
</glyph>
<glyph name="seven" format="2">
  <advance width="1408"/>
  <unicode hex="0037"/>
  <outline>
    <contour>
      <point x="176" y="396" type="line"/>
      <point x="176" y="770" type="line"/>
      <point x="539" y="770" type="line"/>
      <point x="671" y="1034" type="line"/>
      <point x="330" y="1034" type="line"/>
      <point x="330" y="1408" type="line"/>
      <point x="1232" y="1408" type="line"/>
      <point x="1232" y="1320" type="line"/>
      <point x="957" y="770" type="line"/>
      <point x="1232" y="770" type="line"/>
      <point x="1232" y="396" type="line"/>
      <point x="891" y="396" type="line"/>
      <point x="891" y="0" type="line"/>
      <point x="517" y="0" type="line"/>
      <point x="517" y="396" type="line"/>
    </contour>
  </outline>
</glyph>
<glyph name="eight" format="2">
  <advance width="1408"/>
  <unicode hex="0038"/>
  <outline>
    <contour>
      <point x="176" y="220" type="line"/>
      <point x="176" y="528" type="line"/>
      <point x="352" y="704" type="line"/>
      <point x="176" y="880" type="line"/>
      <point x="176" y="1188" type="line"/>
      <point x="396" y="1408" type="line"/>
      <point x="1012" y="1408" type="line"/>
      <point x="1232" y="1188" type="line"/>
      <point x="1232" y="880" type="line"/>
      <point x="1056" y="704" type="line"/>
      <point x="1232" y="528" type="line"/>
      <point x="1232" y="220" type="line"/>
      <point x="1012" y="0" type="line"/>
      <point x="396" y="0" type="line"/>
    </contour>
    <contour>
      <point x="550" y="374" type="line"/>
      <point x="858" y="374" type="line"/>
      <point x="704" y="528" type="line"/>
    </contour>
    <contour>
      <point x="550" y="1034" type="line"/>
      <point x="704" y="880" type="line"/>
      <point x="858" y="1034" type="line"/>
    </contour>
  </outline>
</glyph>
<glyph name="colon" format="2">
  <advance width="704"/>
  <unicode hex="003A"/>
  <outline>
    <contour>
      <point x="176" y="0" type="line"/>
      <point x="176" y="374" type="line"/>
      <point x="550" y="374" type="line"/>
      <point x="550" y="0" type="line"/>
    </contour>
    <contour>
      <point x="176" y="660" type="line"/>
      <point x="176" y="1034" type="line"/>
      <point x="550" y="1034" type="line"/>
      <point x="550" y="660" type="line"/>
    </contour>
  </outline>
</glyph>
<glyph name="less" format="2">
  <advance width="1408"/>
  <unicode hex="003C"/>
  <outline>
    <contour>
      <point x="176" y="495" type="line"/>
      <point x="176" y="913" type="line"/>
      <point x="1166" y="1408" type="line"/>
      <point x="1232" y="1408" type="line"/>
      <point x="1232" y="1023" type="line"/>
      <point x="594" y="704" type="line"/>
      <point x="1232" y="385" type="line"/>
      <point x="1232" y="0" type="line"/>
      <point x="1166" y="0" type="line"/>
    </contour>
  </outline>
</glyph>
<glyph name="equal" format="2">
  <advance width="1408"/>
  <unicode hex="003D"/>
	<anchor x="704" y="1144" name="top"/>
	<anchor x="704" y="264" name="bottom"/>
  <outline>
    <contour>
      <point x="176" y="264" type="line"/>
      <point x="176" y="638" type="line"/>
      <point x="1232" y="638" type="line"/>
      <point x="1232" y="264" type="line"/>
    </contour>
    <contour>
      <point x="176" y="770" type="line"/>
      <point x="176" y="1144" type="line"/>
      <point x="1232" y="1144" type="line"/>
      <point x="1232" y="770" type="line"/>
    </contour>
  </outline>
</glyph>
<glyph name="greater" format="2">
  <advance width="1408"/>
  <unicode hex="003E"/>
  <outline>
    <contour>
      <point x="176" y="0" type="line"/>
      <point x="176" y="385" type="line"/>
      <point x="814" y="704" type="line"/>
      <point x="176" y="1023" type="line"/>
      <point x="176" y="1408" type="line"/>
      <point x="242" y="1408" type="line"/>
      <point x="1232" y="913" type="line"/>
      <point x="1232" y="495" type="line"/>
      <point x="242" y="0" type="line"/>
    </contour>
  </outline>
</glyph>
<glyph name="question" format="2">
  <advance width="1408"/>
  <unicode hex="003F"/>
  <outline>
    <contour>
      <point x="176" y="957" type="line"/>
      <point x="176" y="1188" type="line"/>
      <point x="396" y="1408" type="line"/>
      <point x="1012" y="1408" type="line"/>
      <point x="1232" y="1188" type="line"/>

      <point x="1232" y="814" type="line"/>
      <point x="1012" y="594" type="line"/>
      <point x="891" y="594" type="line"/>

      <point x="891" y="517" type="line"/>
      <point x="517" y="517" type="line"/>

      <point x="517" y="748" type="line"/>
      <point x="737" y="968" type="line"/>
      <point x="858" y="968" type="line"/>

      <point x="858" y="1034" type="line"/>
      <point x="550" y="1034" type="line"/>
      <point x="550" y="957" type="line"/>
    </contour>
    <contour>
      <point x="517" y="0" type="line"/>
      <point x="517" y="374" type="line"/>
      <point x="891" y="374" type="line"/>
      <point x="891" y="0" type="line"/>
    </contour>
  </outline>
</glyph>
<glyph name="at" format="2">
  <advance width="1408"/>
  <unicode hex="0040"/>
  <outline>
    <contour>
      <point x="176" y="220" type="line"/>
      <point x="176" y="1188" type="line"/>
      <point x="396" y="1408" type="line"/>
      <point x="1012" y="1408" type="line"/>
      <point x="1232" y="1188" type="line"/>
      <point x="1232" y="517" type="line"/>
      <point x="748" y="517" type="line"/>
      <point x="693" y="572" type="line"/>
      <point x="693" y="891" type="line"/>
      <point x="748" y="891" type="line"/>
      <point x="858" y="781" type="line"/>
      <point x="858" y="1034" type="line"/>
      <point x="550" y="1034" type="line"/>
      <point x="550" y="374" type="line"/>
      <point x="1232" y="374" type="line"/>
      <point x="1232" y="220" type="line"/>
      <point x="1012" y="0" type="line"/>
      <point x="396" y="0" type="line"/>
    </contour>
  </outline>
</glyph>
<glyph name="A" format="2">
  <advance width="1408"/>
  <unicode hex="0041"/>
  <unicode hex="0061"/>
	<anchor x="704" y="1408" name="top"/>
	<anchor x="704" y="0" name="bottom"/>
  <outline>
    <contour>
      <point x="176" y="0" type="line"/>
      <point x="176" y="748" type="line"/>
      <point x="506" y="1408" type="line"/>
      <point x="902" y="1408" type="line"/>
      <point x="1232" y="748" type="line"/>
      <point x="1232" y="0" type="line"/>
      <point x="858" y="0" type="line"/>
      <point x="858" y="286" type="line"/>
      <point x="550" y="286" type="line"/>
      <point x="550" y="0" type="line"/>
    </contour>
    <contour>
      <point x="550" y="660" type="line"/>
      <point x="858" y="660" type="line"/>
      <point x="704" y="968" type="line"/>
    </contour>
  </outline>
</glyph>
<glyph name="B" format="2">
  <advance width="1408"/>
  <unicode hex="0042"/>
  <unicode hex="0062"/>
	<anchor x="704" y="1408" name="top"/>
	<anchor x="594" y="0" name="bottom"/>
  <outline>
    <contour>
      <point x="176" y="0" type="line"/>
      <point x="176" y="1408" type="line"/>
      <point x="1012" y="1408" type="line"/>
      <point x="1232" y="1188" type="line"/>
      <point x="1232" y="979" type="line"/>
      <point x="1122" y="869" type="line"/>
      <point x="1232" y="759" type="line"/>
      <point x="1232" y="220" type="line"/>
      <point x="1012" y="0" type="line"/>
    </contour>
    <contour>
      <point x="550" y="374" type="line"/>
      <point x="858" y="374" type="line"/>
      <point x="858" y="704" type="line"/>
      <point x="550" y="704" type="line"/>
    </contour>
    <contour>
      <point x="550" y="726" type="line"/>
      <point x="858" y="1034" type="line"/>
      <point x="550" y="1034" type="line"/>
    </contour>
  </outline>
</glyph>
<glyph name="C" format="2">
  <advance width="1408"/>
  <unicode hex="0043"/>
  <unicode hex="0063"/>
  <outline>
    <contour>
      <point x="176" y="220" type="line"/>
      <point x="176" y="1188" type="line"/>
      <point x="396" y="1408" type="line"/>
      <point x="1232" y="1408" type="line"/>
      <point x="1232" y="1034" type="line"/>
      <point x="550" y="1034" type="line"/>
      <point x="550" y="374" type="line"/>
      <point x="1232" y="374" type="line"/>
      <point x="1232" y="220" type="line"/>
      <point x="1012" y="0" type="line"/>
      <point x="396" y="0" type="line"/>
    </contour>
  </outline>
</glyph>
<glyph name="D" format="2">
  <advance width="1408"/>
  <unicode hex="0044"/>
  <unicode hex="0064"/>
  <outline>
    <contour>
      <point x="176" y="0" type="line"/>
      <point x="176" y="1408" type="line"/>
      <point x="704" y="1408" type="line"/>
      <point x="1232" y="880" type="line"/>
      <point x="1232" y="220" type="line"/>
      <point x="1012" y="0" type="line"/>
    </contour>
    <contour>
      <point x="550" y="374" type="line"/>
      <point x="858" y="374" type="line"/>
      <point x="858" y="726" type="line"/>
      <point x="550" y="1034" type="line"/>
    </contour>
  </outline>
</glyph>
<glyph name="E" format="2">
  <advance width="1408"/>
  <unicode hex="0045"/>
  <unicode hex="0065"/>
  <outline>
    <contour>
      <point x="176" y="0" type="line"/>
      <point x="176" y="1408" type="line"/>
      <point x="1078" y="1408" type="line"/>
      <point x="1078" y="1034" type="line"/>
      <point x="550" y="1034" type="line"/>
      <point x="550" y="891" type="line"/>
      <point x="924" y="891" type="line"/>
      <point x="924" y="517" type="line"/>
      <point x="550" y="517" type="line"/>
      <point x="550" y="374" type="line"/>
      <point x="1232" y="374" type="line"/>
      <point x="1232" y="0" type="line"/>
    </contour>
  </outline>
</glyph>
<glyph name="F" format="2">
  <advance width="1408"/>
  <unicode hex="0046"/>
  <unicode hex="0066"/>
	<anchor x="704" y="1408" name="top"/>
	<anchor x="550" y="0" name="bottom"/>
  <outline>
    <contour>
      <point x="176" y="0" type="line"/>
      <point x="176" y="1408" type="line"/>
      <point x="1232" y="1408" type="line"/>
      <point x="1232" y="1034" type="line"/>
      <point x="550" y="1034" type="line"/>
      <point x="550" y="715" type="line"/>
      <point x="1078" y="715" type="line"/>
      <point x="1078" y="341" type="line"/>
      <point x="550" y="341" type="line"/>
      <point x="550" y="0" type="line"/>
    </contour>
  </outline>
</glyph>
<glyph name="G" format="2">
  <advance width="1408"/>
  <unicode hex="0047"/>
  <unicode hex="0067"/>
	<anchor x="682" y="1408" name="top"/>
  <outline>
    <contour>
      <point x="176" y="220" type="line"/>
      <point x="176" y="1188" type="line"/>
      <point x="396" y="1408" type="line"/>
      <point x="957" y="1408" type="line"/>
      <point x="1177" y="1188" type="line"/>
      <point x="1177" y="1034" type="line"/>
      <point x="550" y="1034" type="line"/>
      <point x="550" y="374" type="line"/>
      <point x="858" y="374" type="line"/>
      <point x="858" y="704" type="line"/>
      <point x="1232" y="704" type="line"/>
      <point x="1232" y="0" type="line"/>
      <point x="396" y="0" type="line"/>
    </contour>
  </outline>
</glyph>
<glyph name="K" format="2">
  <advance width="1408"/>
  <unicode hex="004B"/>
  <unicode hex="006B"/>
	<anchor x="704" y="1408" name="top"/>
  <outline>
    <contour>
      <point x="176" y="0" type="line"/>
      <point x="176" y="1408" type="line"/>
      <point x="550" y="1408" type="line"/>
      <point x="550" y="990" type="line"/>
      <point x="968" y="1408" type="line"/>
      <point x="1232" y="1408" type="line"/>
      <point x="1232" y="1144" type="line"/>
      <point x="814" y="726" type="line"/>
      <point x="1232" y="308" type="line"/>
      <point x="1232" y="0" type="line"/>
      <point x="858" y="0" type="line"/>
      <point x="858" y="154" type="line"/>
      <point x="550" y="462" type="line"/>
      <point x="550" y="0" type="line"/>
    </contour>
  </outline>
</glyph>
<glyph name="L" format="2">
  <advance width="1408"/>
  <unicode hex="004C"/>
  <unicode hex="006C"/>
	<anchor x="550" y="1408" name="top"/>
	<anchor x="704" y="0" name="bottom"/>
  <outline>
    <contour>
      <point x="176" y="0" type="line"/>
      <point x="176" y="1408" type="line"/>
      <point x="550" y="1408" type="line"/>
      <point x="550" y="374" type="line"/>
      <point x="858" y="374" type="line"/>
      <point x="858" y="506" type="line"/>
      <point x="1232" y="506" type="line"/>
      <point x="1232" y="0" type="line"/>
    </contour>
  </outline>
</glyph>
<glyph name="M" format="2">
  <advance width="1760"/>
  <unicode hex="004D"/>
  <unicode hex="006D"/>
  <outline>
    <contour>
      <point x="176" y="0" type="line"/>
      <point x="176" y="1408" type="line"/>
      <point x="550" y="1408" type="line"/>
      <point x="880" y="1078" type="line"/>
      <point x="1210" y="1408" type="line"/>
      <point x="1584" y="1408" type="line"/>
      <point x="1584" y="0" type="line"/>
      <point x="1210" y="0" type="line"/>
      <point x="1210" y="880" type="line"/>
      <point x="880" y="550" type="line"/>
      <point x="550" y="880" type="line"/>
      <point x="550" y="0" type="line"/>
    </contour>
  </outline>
</glyph>
<glyph name="N" format="2">
  <advance width="1408"/>
  <unicode hex="004E"/>
  <unicode hex="006E"/>
  <outline>
    <contour>
      <point x="176" y="0" type="line"/>
      <point x="176" y="1408" type="line"/>
      <point x="561" y="1408" type="line"/>
      <point x="561" y="1408" type="line"/>
      <point x="858" y="814" type="line"/>
      <point x="858" y="1408" type="line"/>
      <point x="1232" y="1408" type="line"/>
      <point x="1232" y="0" type="line"/>
      <point x="847" y="0" type="line"/>
      <point x="550" y="594" type="line"/>
      <point x="550" y="0" type="line"/>
    </contour>
  </outline>
</glyph>
<glyph name="O" format="2">
  <advance width="1408"/>
  <unicode hex="004F"/>
  <unicode hex="006F"/>
  <outline>
    <contour>
      <point x="176" y="220" type="line"/>
      <point x="176" y="1188" type="line"/>
      <point x="396" y="1408" type="line"/>
      <point x="1012" y="1408" type="line"/>
      <point x="1232" y="1188" type="line"/>
      <point x="1232" y="220" type="line"/>
      <point x="1012" y="0" type="line"/>
      <point x="396" y="0" type="line"/>
    </contour>
    <contour>
      <point x="550" y="374" type="line"/>
      <point x="858" y="374" type="line"/>
      <point x="858" y="1034" type="line"/>
      <point x="550" y="1034" type="line"/>
    </contour>
  </outline>
</glyph>
<glyph name="P" format="2">
  <advance width="1408"/>
  <unicode hex="0050"/>
  <unicode hex="0070"/>
	<anchor x="704" y="1408" name="top"/>
  <outline>
    <contour>
      <point x="176" y="0" type="line"/>
      <point x="176" y="1408" type="line"/>
      <point x="1012" y="1408" type="line"/>
      <point x="1232" y="1188" type="line"/>
      <point x="1232" y="572" type="line"/>
      <point x="1012" y="352" type="line"/>
      <point x="550" y="352" type="line"/>
      <point x="550" y="0" type="line"/>
    </contour>
    <contour>
      <point x="550" y="726" type="line"/>
      <point x="858" y="726" type="line"/>
      <point x="858" y="1034" type="line"/>
      <point x="550" y="1034" type="line"/>
    </contour>
  </outline>
</glyph>
<glyph name="Q" format="2">
  <advance width="1408"/>
  <unicode hex="0051"/>
  <unicode hex="0071"/>
	<anchor x="704" y="1408" name="top"/>
  <outline>
    <contour>
      <point x="176" y="407" type="line"/>
      <point x="176" y="1188" type="line"/>
      <point x="396" y="1408" type="line"/>
      <point x="1012" y="1408" type="line"/>
      <point x="1232" y="1188" type="line"/>
      <point x="1232" y="407" type="line"/>
      <point x="1012" y="187" type="line"/>
      <point x="924" y="187" type="line"/>
      <point x="924" y="-187" type="line"/>
      <point x="550" y="-187" type="line"/>
      <point x="550" y="187" type="line"/>
      <point x="396" y="187" type="line"/>
    </contour>
    <contour>
      <point x="550" y="561" type="line"/>
      <point x="858" y="869" type="line"/>
      <point x="858" y="1034" type="line"/>
      <point x="508" y="1034" type="line"/>
    </contour>
  </outline>
</glyph>
<glyph name="R" format="2">
  <advance width="1408"/>
  <unicode hex="0052"/>
  <unicode hex="0072"/>
	<anchor x="704" y="1408" name="top"/>
  <outline>
    <contour>
      <point x="176" y="0" type="line"/>
      <point x="176" y="1408" type="line"/>
      <point x="1012" y="1408" type="line"/>
      <point x="1232" y="1188" type="line"/>
      <point x="1232" y="880" type="line"/>
      <point x="869" y="517" type="line"/>
      <point x="1232" y="154" type="line"/>
      <point x="1232" y="0" type="line"/>
      <point x="858" y="0" type="line"/>
      <point x="550" y="308" type="line"/>
      <point x="550" y="0" type="line"/>
    </contour>
    <contour>
      <point x="550" y="726" type="line"/>
      <point x="858" y="1034" type="line"/>
      <point x="550" y="1034" type="line"/>
    </contour>
  </outline>
</glyph>
<glyph name="S" format="2">
  <advance width="1408"/>
  <unicode hex="0053"/>
  <unicode hex="0073"/>
  <outline>
    <contour>
      <point x="176" y="0" type="line"/>
      <point x="176" y="374" type="line"/>
      <point x="858" y="374" type="line"/>
      <point x="858" y="517" type="line"/>
      <point x="396" y="517" type="line"/>
      <point x="176" y="737" type="line"/>
      <point x="176" y="1188" type="line"/>
      <point x="396" y="1408" type="line"/>
      <point x="1232" y="1408" type="line"/>
      <point x="1232" y="1111" type="line"/>
      <point x="1155" y="1034" type="line"/>
      <point x="550" y="1034" type="line"/>
      <point x="550" y="891" type="line"/>
      <point x="1012" y="891" type="line"/>
      <point x="1232" y="671" type="line"/>
      <point x="1232" y="220" type="line"/>
      <point x="1012" y="0" type="line"/>
    </contour>
  </outline>
</glyph>
<glyph name="U" format="2">
  <advance width="1408"/>
  <unicode hex="0055"/>
  <unicode hex="0075"/>
  <outline>
    <contour>
      <point x="176" y="220" type="line"/>
      <point x="176" y="1408" type="line"/>
      <point x="550" y="1408" type="line"/>
      <point x="550" y="374" type="line"/>
      <point x="858" y="374" type="line"/>
      <point x="858" y="1408" type="line"/>
      <point x="1232" y="1408" type="line"/>
      <point x="1232" y="220" type="line"/>
      <point x="1012" y="0" type="line"/>
      <point x="396" y="0" type="line"/>
    </contour>
  </outline>
</glyph>
<glyph name="V" format="2">
  <advance width="1408"/>
  <unicode hex="0056"/>
  <unicode hex="0076"/>
  <outline>
    <contour>
      <point x="176" y="638" type="line"/>
      <point x="176" y="1408" type="line"/>
      <point x="550" y="1408" type="line"/>
      <point x="550" y="726" type="line"/>
      <point x="704" y="418" type="line"/>
      <point x="858" y="726" type="line"/>
      <point x="858" y="1408" type="line"/>
      <point x="1232" y="1408" type="line"/>
      <point x="1232" y="638" type="line"/>
      <point x="913" y="0" type="line"/>
      <point x="495" y="0" type="line"/>
    </contour>
  </outline>
</glyph>
<glyph name="W" format="2">
  <advance width="1760"/>
  <unicode hex="0057"/>
  <unicode hex="0077"/>
  <outline>
    <contour>
      <point x="176" y="506" type="line"/>
      <point x="176" y="1408" type="line"/>
      <point x="550" y="1408" type="line"/>
      <point x="550" y="594" type="line"/>
      <point x="616" y="462" type="line"/>
      <point x="693" y="616" type="line"/>
      <point x="693" y="1408" type="line"/>
      <point x="1067" y="1408" type="line"/>
      <point x="1067" y="616" type="line"/>
      <point x="1144" y="462" type="line"/>
      <point x="1210" y="594" type="line"/>
      <point x="1210" y="1408" type="line"/>
      <point x="1584" y="1408" type="line"/>
      <point x="1584" y="506" type="line"/>
      <point x="1331" y="0" type="line"/>
      <point x="957" y="0" type="line"/>
      <point x="880" y="154" type="line"/>
      <point x="803" y="0" type="line"/>
      <point x="429" y="0" type="line"/>
    </contour>
  </outline>
</glyph>
<glyph name="Y" format="2">
  <advance width="1408"/>
  <unicode hex="0059"/>
  <unicode hex="0079"/>
	<anchor x="704" y="1408" name="top"/>
	<anchor x="704" y="0" name="bottom"/>
  <outline>
    <contour>
      <point x="176" y="1210" type="line"/>
      <point x="176" y="1408" type="line"/>
      <point x="550" y="1408" type="line"/>
      <point x="550" y="1298" type="line"/>
      <point x="704" y="990" type="line"/>
      <point x="858" y="1298" type="line"/>
      <point x="858" y="1408" type="line"/>
      <point x="1232" y="1408" type="line"/>
      <point x="1232" y="1210" type="line"/>
      <point x="891" y="528" type="line"/>
      <point x="891" y="0" type="line"/>
      <point x="517" y="0" type="line"/>
      <point x="517" y="528" type="line"/>
    </contour>
  </outline>
</glyph>
<glyph name="Z" format="2">
  <advance width="1408"/>
  <unicode hex="005A"/>
  <unicode hex="007A"/>
	<anchor x="704" y="1408" name="top"/>
  <outline>
    <contour>
      <point x="176" y="0" type="line"/>
      <point x="176" y="66" type="line"/>
      <point x="660" y="1034" type="line"/>
      <point x="176" y="1034" type="line"/>
      <point x="176" y="1408" type="line"/>
      <point x="1232" y="1408" type="line"/>
      <point x="1232" y="1342" type="line"/>
      <point x="748" y="374" type="line"/>
      <point x="1232" y="374" type="line"/>
      <point x="1232" y="0" type="line"/>
    </contour>
  </outline>
</glyph>
<glyph name="bracketleft" format="2">
  <advance width="1408"/>
  <unicode hex="005B"/>
  <outline>
    <contour>
      <point x="517" y="0" type="line"/>
      <point x="517" y="1408" type="line"/>
      <point x="1232" y="1408" type="line"/>
      <point x="1232" y="1034" type="line"/>
      <point x="891" y="1034" type="line"/>
      <point x="891" y="374" type="line"/>
      <point x="1232" y="374" type="line"/>
      <point x="1232" y="0" type="line"/>
    </contour>
  </outline>
</glyph>
<glyph name="backslash" format="2">
  <advance width="1408"/>
  <unicode hex="005C"/>
  <outline>
    <contour>
      <point x="176" y="1342" type="line"/>
      <point x="176" y="1408" type="line"/>
      <point x="561" y="1408" type="line"/>
      <point x="1232" y="66" type="line"/>
      <point x="1232" y="0" type="line"/>
      <point x="847" y="0" type="line"/>
    </contour>
  </outline>
</glyph>
<glyph name="bracketright" format="2">
  <advance width="1408"/>
  <unicode hex="005D"/>
  <outline>
    <contour>
      <point x="176" y="0" type="line"/>
      <point x="176" y="374" type="line"/>
      <point x="517" y="374" type="line"/>
      <point x="517" y="1034" type="line"/>
      <point x="176" y="1034" type="line"/>
      <point x="176" y="1408" type="line"/>
      <point x="891" y="1408" type="line"/>
      <point x="891" y="0" type="line"/>
    </contour>
  </outline>
</glyph>
<glyph name="asciicircum" format="2">
  <advance width="1408"/>
  <unicode hex="005E"/>
  <outline>
    <contour>
      <point x="176" y="1034" type="line"/>
      <point x="550" y="1408" type="line"/>
      <point x="858" y="1408" type="line"/>
      <point x="1232" y="1034" type="line"/>
      <point x="858" y="1034" type="line"/>
      <point x="704" y="1188" type="line"/>
      <point x="550" y="1034" type="line"/>
    </contour>
  </outline>
</glyph>
<glyph name="underscore" format="2">
  <advance width="1408"/>
  <unicode hex="005F"/>
  <outline>
    <contour>
      <point x="0" y="-517" type="line"/>
      <point x="0" y="-143" type="line"/>
      <point x="1408" y="-143" type="line"/>
      <point x="1408" y="-517" type="line"/>
    </contour>
  </outline>
</glyph>
<glyph name="grave" format="2">
  <advance width="1408"/>
  <unicode hex="0060"/>
  <outline>
    <contour>
      <point x="330" y="1408" type="line"/>
      <point x="704" y="1408" type="line"/>
      <point x="1078" y="1034" type="line"/>
      <point x="704" y="1034" type="line"/>
    </contour>
  </outline>
</glyph>
<glyph name="braceleft" format="2">
  <advance width="1408"/>
  <unicode hex="007B"/>
  <outline>
    <contour>
			<point x="330" y="517" type="line"/>
			<point x="330" y="891" type="line"/>
			<point x="440" y="891" type="line"/>
			<point x="517" y="968" type="line"/>
      <point x="517" y="1188" type="line"/>
      <point x="737" y="1408" type="line"/>
      <point x="1232" y="1408" type="line"/>
      <point x="1232" y="1034" type="line"/>
      <point x="891" y="1034" type="line"/>
      <point x="891" y="814" type="line"/>
      <point x="781" y="704" type="line"/>
      <point x="891" y="594" type="line"/>
      <point x="891" y="374" type="line"/>
      <point x="1232" y="374" type="line"/>
      <point x="1232" y="0" type="line"/>
      <point x="737" y="0" type="line"/>
      <point x="517" y="220" type="line"/>
      <point x="517" y="440" type="line"/>
			<point x="440" y="517" type="line"/>
    </contour>
  </outline>
</glyph>
<glyph name="bar" format="2">
  <advance width="1408"/>
  <unicode hex="007C"/>
  <outline>
    <contour>
      <point x="517" y="0" type="line"/>
      <point x="517" y="1408" type="line"/>
      <point x="891" y="1408" type="line"/>
      <point x="891" y="0" type="line"/>
    </contour>
  </outline>
</glyph>
<glyph name="braceright" format="2">
  <advance width="1408"/>
  <unicode hex="007D"/>
  <outline>
    <contour>
      <point x="176" y="0" type="line"/>
      <point x="176" y="374" type="line"/>
      <point x="517" y="374" type="line"/>
      <point x="517" y="594" type="line"/>
      <point x="627" y="704" type="line"/>
      <point x="517" y="814" type="line"/>
      <point x="517" y="1034" type="line"/>
      <point x="176" y="1034" type="line"/>
      <point x="176" y="1408" type="line"/>
      <point x="671" y="1408" type="line"/>
      <point x="891" y="1188" type="line"/>
      <point x="891" y="968" type="line"/>
      <point x="968" y="891" type="line"/>
      <point x="1078" y="891" type="line"/>
      <point x="1078" y="517" type="line"/>
      <point x="968" y="517" type="line"/>
      <point x="891" y="440" type="line"/>
      <point x="891" y="220" type="line"/>
      <point x="671" y="0" type="line"/>
    </contour>
  </outline>
</glyph>
<glyph name="asciitilde" format="2">
  <advance width="1408"/>
  <unicode hex="007E"/>
  <outline>
    <contour>
      <point x="176" y="517" type="line"/>
      <point x="176" y="671" type="line"/>
      <point x="396" y="891" type="line"/>
      <point x="704" y="891" type="line"/>
      <point x="814" y="781" type="line"/>
      <point x="902" y="781" type="line"/>
      <point x="1012" y="891" type="line"/>
      <point x="1232" y="891" type="line"/>
      <point x="1232" y="737" type="line"/>
      <point x="1012" y="517" type="line"/>
      <point x="704" y="517" type="line"/>
      <point x="594" y="627" type="line"/>
      <point x="506" y="627" type="line"/>
      <point x="396" y="517" type="line"/>
    </contour>
  </outline>
</glyph>
<glyph name="cent" format="2">
  <advance width="1408"/>
  <unicode hex="00A2"/>
  <outline>
    <contour>
      <point x="176" y="396" type="line"/>
      <point x="176" y="1012" type="line"/>
      <point x="396" y="1232" type="line"/>
      <point x="517" y="1232" type="line"/>
      <point x="517" y="1408" type="line"/>
      <point x="891" y="1408" type="line"/>
      <point x="891" y="1232" type="line"/>
      <point x="1012" y="1232" type="line"/>
      <point x="1232" y="1012" type="line"/>
      <point x="1232" y="858" type="line"/>
      <point x="550" y="858" type="line"/>
      <point x="550" y="550" type="line"/>
      <point x="1232" y="550" type="line"/>
      <point x="1232" y="396" type="line"/>
      <point x="1012" y="176" type="line"/>
      <point x="891" y="176" type="line"/>
      <point x="891" y="0" type="line"/>
      <point x="517" y="0" type="line"/>
      <point x="517" y="176" type="line"/>
      <point x="396" y="176" type="line"/>
    </contour>
  </outline>
</glyph>
<glyph name="sterling" format="2">
  <advance width="1408"/>
  <unicode hex="00A3"/>
  <outline>
    <contour>
      <point x="176" y="0" type="line"/>
      <point x="176" y="374" type="line"/>
      <point x="363" y="374" type="line"/>
      <point x="363" y="517" type="line"/>
      <point x="176" y="517" type="line"/>
      <point x="176" y="891" type="line"/>
      <point x="363" y="891" type="line"/>
      <point x="363" y="1188" type="line"/>
      <point x="583" y="1408" type="line"/>
      <point x="891" y="1408" type="line"/>
      <point x="1111" y="1188" type="line"/>
      <point x="1111" y="1034" type="line"/>
      <point x="737" y="1034" type="line"/>
      <point x="737" y="891" type="line"/>
      <point x="924" y="891" type="line"/>
      <point x="924" y="517" type="line"/>
      <point x="737" y="517" type="line"/>
      <point x="737" y="374" type="line"/>
      <point x="1232" y="374" type="line"/>
      <point x="1232" y="0" type="line"/>
    </contour>
  </outline>
</glyph>
<glyph name="currency" format="2">
  <advance width="1408"/>
  <unicode hex="00A4"/>
  <outline>
    <contour>
      <point x="176" y="440" type="line"/>
      <point x="253" y="517" type="line"/>
      <point x="253" y="891" type="line"/>
      <point x="176" y="968" type="line"/>
      <point x="440" y="1232" type="line"/>
      <point x="517" y="1155" type="line"/>
      <point x="891" y="1155" type="line"/>
      <point x="968" y="1232" type="line"/>
      <point x="1232" y="968" type="line"/>
      <point x="1155" y="891" type="line"/>
      <point x="1155" y="517" type="line"/>
      <point x="1232" y="440" type="line"/>
      <point x="968" y="176" type="line"/>
      <point x="891" y="253" type="line"/>
      <point x="517" y="253" type="line"/>
      <point x="440" y="176" type="line"/>
    </contour>
    <contour>
      <point x="627" y="627" type="line"/>
      <point x="781" y="627" type="line"/>
      <point x="781" y="781" type="line"/>
      <point x="627" y="781" type="line"/>
    </contour>
  </outline>
</glyph>
<glyph name="yen" format="2">
  <advance width="1408"/>
  <unicode hex="00A5"/>
  <outline>
    <contour>
      <point x="176" y="220" type="line"/>
      <point x="176" y="484" type="line"/>
      <point x="517" y="484" type="line"/>
      <point x="517" y="572" type="line"/>
      <point x="176" y="572" type="line"/>
      <point x="176" y="946" type="line"/>
      <point x="407" y="946" type="line"/>
      <point x="176" y="1408" type="line"/>
      <point x="594" y="1408" type="line"/>
      <point x="704" y="1188" type="line"/>
      <point x="814" y="1408" type="line"/>
      <point x="1232" y="1408" type="line"/>
      <point x="1001" y="946" type="line"/>
      <point x="1232" y="946" type="line"/>
      <point x="1232" y="572" type="line"/>
      <point x="891" y="572" type="line"/>
      <point x="891" y="484" type="line"/>
      <point x="1232" y="484" type="line"/>
      <point x="1232" y="220" type="line"/>
      <point x="891" y="220" type="line"/>
      <point x="891" y="0" type="line"/>
      <point x="517" y="0" type="line"/>
      <point x="517" y="220" type="line"/>
    </contour>
  </outline>
</glyph>
<glyph name="brokenbar" format="2">
  <advance width="1408"/>
  <unicode hex="00A6"/>
  <outline>
    <contour>
      <point x="517" y="836" type="line"/>
      <point x="517" y="1408" type="line"/>
      <point x="891" y="1408" type="line"/>
      <point x="891" y="836" type="line"/>
    </contour>
    <contour>
      <point x="517" y="0" type="line"/>
      <point x="517" y="572" type="line"/>
      <point x="891" y="572" type="line"/>
      <point x="891" y="0" type="line"/>
    </contour>
  </outline>
</glyph>
<glyph name="section" format="2">
  <advance width="1408"/>
  <unicode hex="00A7"/>
  <outline>
    <contour>
      <point x="176" y="0" type="line"/>
      <point x="176" y="374" type="line"/>
      <point x="352" y="374" type="line"/>
      <point x="176" y="550" type="line"/>
      <point x="176" y="858" type="line"/>
      <point x="330" y="1012" type="line"/>
      <point x="330" y="1188" type="line"/>
      <point x="550" y="1408" type="line"/>
      <point x="1232" y="1408" type="line"/>
      <point x="1232" y="1034" type="line"/>
      <point x="1056" y="1034" type="line"/>
      <point x="1232" y="858" type="line"/>
      <point x="1232" y="550" type="line"/>
      <point x="1078" y="396" type="line"/>
      <point x="1078" y="220" type="line"/>
      <point x="858" y="0" type="line"/>
    </contour>
    <contour>
      <point x="550" y="704" type="line"/>
      <point x="594" y="660" type="line"/>
      <point x="814" y="660" type="line"/>
      <point x="858" y="704" type="line"/>
      <point x="814" y="748" type="line"/>
      <point x="594" y="748" type="line"/>
    </contour>
  </outline>
</glyph>
<glyph name="dieresis" format="2">
  <advance width="1408"/>
  <unicode hex="00A8"/>
  <outline>
    <contour>
      <point x="264" y="1034" type="line"/>
      <point x="264" y="1408" type="line"/>
      <point x="638" y="1408" type="line"/>
      <point x="638" y="1034" type="line"/>
    </contour>
    <contour>
      <point x="770" y="1034" type="line"/>
      <point x="770" y="1408" type="line"/>
      <point x="1144" y="1408" type="line"/>
      <point x="1144" y="1034" type="line"/>
    </contour>
  </outline>
</glyph>
<glyph name="copyright" format="2">
  <advance width="1760"/>
  <unicode hex="00A9"/>
  <outline>
    <contour>
      <point x="176" y="418" type="line"/>
      <point x="176" y="990" type="line"/>
      <point x="594" y="1408" type="line"/>
      <point x="1166" y="1408" type="line"/>
      <point x="1584" y="990" type="line"/>
      <point x="1584" y="418" type="line"/>
      <point x="1166" y="0" type="line"/>
      <point x="594" y="0" type="line"/>
    </contour>
    <contour>
      <point x="440" y="528" type="line"/>
      <point x="704" y="264" type="line"/>
      <point x="1056" y="264" type="line"/>
      <point x="1320" y="528" type="line"/>
      <point x="1320" y="880" type="line"/>
      <point x="1056" y="1144" type="line"/>
      <point x="704" y="1144" type="line"/>
      <point x="440" y="880" type="line"/>
    </contour>
    <contour>
      <point x="594" y="528" type="line"/>
      <point x="594" y="880" type="line"/>
      <point x="748" y="1034" type="line"/>
      <point x="1089" y="1034" type="line"/>
      <point x="1089" y="770" type="line"/>
      <point x="858" y="770" type="line"/>
      <point x="858" y="638" type="line"/>
      <point x="1089" y="638" type="line"/>
      <point x="1089" y="451" type="line"/>
      <point x="1012" y="374" type="line"/>
      <point x="748" y="374" type="line"/>
    </contour>
  </outline>
</glyph>
<glyph name="guillemotleft" format="2">
  <advance width="1408"/>
  <unicode hex="00AB"/>
  <outline>
    <contour>
      <point x="176" y="704" type="line"/>
      <point x="440" y="1232" type="line"/>
      <point x="858" y="1232" type="line"/>
      <point x="594" y="704" type="line"/>
      <point x="770" y="352" type="line"/>
      <point x="352" y="352" type="line"/>
    </contour>
    <contour>
      <point x="726" y="704" type="line"/>
      <point x="990" y="1232" type="line"/>
      <point x="1408" y="1232" type="line"/>
      <point x="1144" y="704" type="line"/>
      <point x="1320" y="352" type="line"/>
      <point x="902" y="352" type="line"/>
    </contour>
  </outline>
</glyph>
<glyph name="logicalnot" format="2">
  <advance width="1408"/>
  <unicode hex="00AC"/>
  <outline>
    <contour>
      <point x="176" y="517" type="line"/>
      <point x="176" y="891" type="line"/>
      <point x="1232" y="891" type="line"/>
      <point x="1232" y="143" type="line"/>
      <point x="858" y="143" type="line"/>
      <point x="858" y="517" type="line"/>
    </contour>
  </outline>
</glyph>
<glyph name="registered" format="2">
  <advance width="1760"/>
  <unicode hex="00AE"/>
  <outline>
    <contour>
      <point x="176" y="418" type="line"/>
      <point x="176" y="990" type="line"/>
      <point x="594" y="1408" type="line"/>
      <point x="1166" y="1408" type="line"/>
      <point x="1584" y="990" type="line"/>
      <point x="1584" y="418" type="line"/>
      <point x="1166" y="0" type="line"/>
      <point x="594" y="0" type="line"/>
    </contour>
    <contour>
      <point x="440" y="528" type="line"/>
      <point x="704" y="264" type="line"/>
      <point x="1056" y="264" type="line"/>
      <point x="1320" y="528" type="line"/>
      <point x="1320" y="880" type="line"/>
      <point x="1056" y="1144" type="line"/>
      <point x="704" y="1144" type="line"/>
      <point x="440" y="880" type="line"/>
    </contour>
    <contour>
      <point x="605" y="374" type="line"/>
      <point x="605" y="1034" type="line"/>
      <point x="1089" y="1034" type="line"/>
      <point x="1243" y="880" type="line"/>
      <point x="1243" y="660" type="line"/>
      <point x="1166" y="583" type="line"/>
      <point x="1243" y="506" type="line"/>
      <point x="1056" y="319" type="line"/>
      <point x="869" y="506" type="line"/>
      <point x="869" y="374" type="line"/>
    </contour>
    <contour>
      <point x="869" y="660" type="line"/>
      <point x="979" y="770" type="line"/>
      <point x="869" y="770" type="line"/>
    </contour>
  </outline>
</glyph>
<glyph name="macron" format="2">
  <advance width="1408"/>
  <unicode hex="00AF"/>
  <outline>
    <contour>
      <point x="198" y="1144" type="line"/>
      <point x="198" y="1408" type="line"/>
      <point x="1210" y="1408" type="line"/>
      <point x="1210" y="1144" type="line"/>
    </contour>
  </outline>
</glyph>
<glyph name="degree" format="2">
  <advance width="1408"/>
  <unicode hex="00B0"/>
  <outline>
    <contour>
      <point x="176" y="660" type="line"/>
      <point x="176" y="1100" type="line"/>
      <point x="484" y="1408" type="line"/>
      <point x="924" y="1408" type="line"/>
      <point x="1232" y="1100" type="line"/>
      <point x="1232" y="660" type="line"/>
      <point x="924" y="352" type="line"/>
      <point x="484" y="352" type="line"/>
    </contour>
    <contour>
      <point x="550" y="814" type="line"/>
      <point x="638" y="726" type="line"/>
      <point x="770" y="726" type="line"/>
      <point x="858" y="814" type="line"/>
      <point x="858" y="946" type="line"/>
      <point x="770" y="1034" type="line"/>
      <point x="638" y="1034" type="line"/>
      <point x="550" y="946" type="line"/>
    </contour>
  </outline>
</glyph>
<glyph name="plusminus" format="2">
  <advance width="1408"/>
  <unicode hex="00B1"/>
  <outline>
    <contour>
      <point x="341" y="858" type="line"/>
      <point x="341" y="1232" type="line"/>
      <point x="517" y="1232" type="line"/>
      <point x="517" y="1408" type="line"/>
      <point x="891" y="1408" type="line"/>
      <point x="891" y="1232" type="line"/>
      <point x="1067" y="1232" type="line"/>
      <point x="1067" y="858" type="line"/>
      <point x="891" y="858" type="line"/>
      <point x="891" y="682" type="line"/>
      <point x="517" y="682" type="line"/>
      <point x="517" y="858" type="line"/>
    </contour>
		<component base="hyphen" yOffset="-341"/>
  </outline>
</glyph>
<glyph name="twosuperior" format="2">
  <advance width="1408"/>
  <unicode hex="00B2"/>
  <outline>
    <contour>
      <point x="176" y="704" type="line"/>
      <point x="176" y="858" type="line"/>
      <point x="704" y="1386" type="line"/>
      <point x="330" y="1386" type="line"/>
      <point x="330" y="1540" type="line"/>
      <point x="550" y="1760" type="line"/>
      <point x="858" y="1760" type="line"/>
      <point x="1078" y="1540" type="line"/>
      <point x="1078" y="1232" type="line"/>
      <point x="924" y="1078" type="line"/>
      <point x="1232" y="1078" type="line"/>
      <point x="1232" y="704" type="line"/>
    </contour>
  </outline>
</glyph>
<glyph name="threesuperior" format="2">
  <advance width="1408"/>
  <unicode hex="00B3"/>
  <outline>
    <contour>
      <point x="176" y="704" type="line"/>
      <point x="176" y="1078" type="line"/>
      <point x="858" y="1078" type="line"/>
      <point x="660" y="1276" type="line"/>
      <point x="770" y="1386" type="line"/>
      <point x="330" y="1386" type="line"/>
      <point x="330" y="1760" type="line"/>
      <point x="924" y="1760" type="line"/>
      <point x="1144" y="1540" type="line"/>
      <point x="1144" y="1320" type="line"/>
      <point x="1232" y="1232" type="line"/>
      <point x="1232" y="924" type="line"/>
      <point x="1012" y="704" type="line"/>
    </contour>
  </outline>
</glyph>
<glyph name="acute" format="2">
  <advance width="1408"/>
  <unicode hex="00B4"/>
  <outline>
    <contour>
      <point x="331" y="1034" type="line"/>
      <point x="704" y="1408" type="line"/>
      <point x="1078" y="1408" type="line"/>
      <point x="704" y="1034" type="line"/>
    </contour>
  </outline>
</glyph>
<glyph name="uni00B5" format="2">
  <advance width="1408"/>
  <unicode hex="00B5"/>
  <outline>
    <contour>
      <point x="176" y="-352" type="line"/>
      <point x="176" y="1056" type="line"/>
      <point x="550" y="1056" type="line"/>
      <point x="550" y="528" type="line"/>
      <point x="704" y="374" type="line"/>
      <point x="858" y="528" type="line"/>
      <point x="858" y="1056" type="line"/>
      <point x="1232" y="1056" type="line"/>
      <point x="1232" y="0" type="line"/>
      <point x="550" y="0" type="line"/>
      <point x="550" y="-352" type="line"/>
    </contour>
  </outline>
</glyph>
<glyph name="paragraph" format="2">
  <advance width="1408"/>
  <unicode hex="00B6"/>
  <outline>
    <contour>
      <point x="176" y="660" type="line"/>
      <point x="176" y="1100" type="line"/>
      <point x="484" y="1408" type="line"/>
      <point x="1232" y="1408" type="line"/>
      <point x="1232" y="0" type="line"/>
      <point x="858" y="0" type="line"/>
      <point x="858" y="352" type="line"/>
      <point x="484" y="352" type="line"/>
    </contour>
  </outline>
</glyph>
<glyph name="periodcentered" format="2">
  <advance width="704"/>
  <unicode hex="00B7"/>
  <unicode hex="0387"/>
  <outline>
    <contour>
      <point x="176" y="517" type="line"/>
      <point x="176" y="891" type="line"/>
      <point x="550" y="891" type="line"/>
      <point x="550" y="517" type="line"/>
    </contour>
  </outline>
</glyph>
<glyph name="cedilla" format="2">
  <advance width="1408"/>
  <unicode hex="00B8"/>
  <outline>
    <contour>
      <point x="517" y="-352" type="line"/>
      <point x="517" y="187" type="line"/>
      <point x="781" y="187" type="line"/>
      <point x="781" y="22" type="line"/>
      <point x="891" y="-88" type="line"/>
      <point x="891" y="-198" type="line"/>
      <point x="737" y="-352" type="line"/>
    </contour>
  </outline>
</glyph>
<glyph name="onesuperior" format="2">
  <advance width="1408"/>
  <unicode hex="00B9"/>
  <outline>
    <contour>
      <point x="176" y="704" type="line"/>
      <point x="176" y="1078" type="line"/>
      <point x="704" y="1078" type="line"/>
      <point x="704" y="1364" type="line"/>
      <point x="440" y="1364" type="line"/>
      <point x="836" y="1760" type="line"/>
      <point x="1078" y="1760" type="line"/>
      <point x="1078" y="1078" type="line"/>
      <point x="1232" y="1078" type="line"/>
      <point x="1232" y="704" type="line"/>
    </contour>
  </outline>
</glyph>
<glyph name="guillemotright" format="2">
  <advance width="1408"/>
  <unicode hex="00BB"/>
  <outline>
    <contour>
      <point x="0" y="176" type="line"/>
      <point x="264" y="704" type="line"/>
      <point x="88" y="1056" type="line"/>
      <point x="506" y="1056" type="line"/>
      <point x="682" y="704" type="line"/>
      <point x="418" y="176" type="line"/>
    </contour>
    <contour>
      <point x="550" y="176" type="line"/>
      <point x="814" y="704" type="line"/>
      <point x="638" y="1056" type="line"/>
      <point x="1056" y="1056" type="line"/>
      <point x="1232" y="704" type="line"/>
      <point x="968" y="176" type="line"/>
    </contour>
  </outline>
</glyph>
<glyph name="onequarter" format="2">
  <advance width="1408"/>
  <unicode hex="00BC"/>
  <outline>
    <contour>
      <point x="176" y="1210" type="line"/>
      <point x="374" y="1408" type="line"/>
      <point x="506" y="1408" type="line"/>
      <point x="506" y="704" type="line"/>
      <point x="242" y="704" type="line"/>
      <point x="242" y="1144" type="line"/>
    </contour>
		<contour>
      <point x="176" y="363" type="line"/>
      <point x="1045" y="1232" type="line"/>
      <point x="1232" y="1045" type="line"/>
      <point x="363" y="176" type="line"/>
    </contour>
		<contour>
      <point x="704" y="176" type="line"/>
      <point x="704" y="385" type="line"/>
      <point x="1023" y="704" type="line"/>
      <point x="1133" y="704" type="line"/>
      <point x="1133" y="440" type="line"/>
      <point x="1232" y="440" type="line"/>
      <point x="1232" y="176" type="line"/>
      <point x="1133" y="176" type="line"/>
      <point x="1133" y="0" type="line"/>
      <point x="869" y="0" type="line"/>
      <point x="869" y="176" type="line"/>
		</contour>
  </outline>
</glyph>
<glyph name="onehalf" format="2">
  <advance width="1408"/>
  <unicode hex="00BD"/>
  <outline>
    <contour>
      <point x="176" y="1210" type="line"/>
      <point x="374" y="1408" type="line"/>
      <point x="506" y="1408" type="line"/>
      <point x="506" y="704" type="line"/>
      <point x="242" y="704" type="line"/>
      <point x="242" y="1144" type="line"/>
    </contour>
		<contour>
      <point x="176" y="363" type="line"/>
      <point x="1045" y="1232" type="line"/>
      <point x="1232" y="1045" type="line"/>
      <point x="363" y="176" type="line"/>
    </contour>
		<contour>
			<!-- M64 0v16l24 24l-6 6v18h16l14 -14v-20l-6 -6h6v-24z -->
      <point x="704" y="0" type="line"/>
      <point x="704" y="176" type="line"/>
      <point x="968" y="440" type="line"/>
      <point x="902" y="506" type="line"/>
      <point x="902" y="704" type="line"/>
      <point x="1078" y="704" type="line"/>
      <point x="1232" y="550" type="line"/>
      <point x="1232" y="330" type="line"/>
      <point x="1166" y="264" type="line"/>
      <point x="1232" y="264" type="line"/>
      <point x="1232" y="0" type="line"/>
		</contour>
  </outline>
</glyph>
<glyph name="threequarters" format="2">
  <advance width="1408"/>
  <unicode hex="00BE"/>
  <outline>
    <contour>
			<!-- M16 64v24h18l-5 5l11 11h-10v24h20l14 -14v-20l-6 -6v-10l-14 -14z -->
      <point x="176" y="704" type="line"/>
      <point x="176" y="968" type="line"/>
      <point x="374" y="968" type="line"/>
      <point x="319" y="1023" type="line"/>
      <point x="440" y="1144" type="line"/>
      <point x="330" y="1144" type="line"/>
      <point x="330" y="1408" type="line"/>
      <point x="550" y="1408" type="line"/>
      <point x="704" y="1254" type="line"/>
      <point x="704" y="1034" type="line"/>
      <point x="638" y="968" type="line"/>
      <point x="638" y="858" type="line"/>
      <point x="484" y="704" type="line"/>
    </contour>
		<contour>
      <point x="176" y="363" type="line"/>
      <point x="1045" y="1232" type="line"/>
      <point x="1232" y="1045" type="line"/>
      <point x="363" y="176" type="line"/>
    </contour>
		<contour>
      <point x="704" y="176" type="line"/>
      <point x="704" y="385" type="line"/>
      <point x="1023" y="704" type="line"/>
      <point x="1133" y="704" type="line"/>
      <point x="1133" y="440" type="line"/>
      <point x="1232" y="440" type="line"/>
      <point x="1232" y="176" type="line"/>
      <point x="1133" y="176" type="line"/>
      <point x="1133" y="0" type="line"/>
      <point x="869" y="0" type="line"/>
      <point x="869" y="176" type="line"/>
		</contour>
  </outline>
</glyph>
<glyph name="Aring" format="2">
  <advance width="1408"/>
  <unicode hex="00C5"/>
  <unicode hex="00E5"/>
	<anchor x="704" y="1760" name="top"/>
  <outline>
    <contour>
      <point x="176" y="0" type="line"/>
      <point x="176" y="660" type="line"/>
      <point x="462" y="1232" type="line"/>
      <point x="385" y="1309" type="line"/>
      <point x="385" y="1573" type="line"/>
      <point x="572" y="1760" type="line"/>
      <point x="836" y="1760" type="line"/>
      <point x="1023" y="1573" type="line"/>
      <point x="1023" y="1309" type="line"/>
      <point x="946" y="1232" type="line"/>
      <point x="1232" y="660" type="line"/>
      <point x="1232" y="0" type="line"/>
      <point x="858" y="0" type="line"/>
      <point x="858" y="198" type="line"/>
      <point x="550" y="198" type="line"/>
      <point x="550" y="0" type="line"/>
    </contour>
    <contour>
      <point x="649" y="1419" type="line"/>
      <point x="682" y="1386" type="line"/>
      <point x="726" y="1386" type="line"/>
      <point x="759" y="1419" type="line"/>
      <point x="759" y="1463" type="line"/>
      <point x="726" y="1496" type="line"/>
      <point x="682" y="1496" type="line"/>
      <point x="649" y="1463" type="line"/>
    </contour>
    <contour>
      <point x="550" y="572" type="line"/>
      <point x="858" y="572" type="line"/>
      <point x="704" y="880" type="line"/>
    </contour>
  </outline>
</glyph>
<glyph name="AE" format="2">
  <advance width="1760"/>
  <unicode hex="00C6"/>
  <unicode hex="00E6"/>
	<anchor x="880" y="1408" name="top"/>
  <outline>
    <contour>
      <point x="176" y="0" type="line"/>
      <point x="176" y="814" type="line"/>
      <point x="770" y="1408" type="line"/>
      <point x="1584" y="1408" type="line"/>
      <point x="1584" y="1034" type="line"/>
      <point x="1144" y="1034" type="line"/>
      <point x="1144" y="891" type="line"/>
      <point x="1474" y="891" type="line"/>
      <point x="1474" y="517" type="line"/>
      <point x="1144" y="517" type="line"/>
      <point x="1144" y="374" type="line"/>
      <point x="1584" y="374" type="line"/>
      <point x="1584" y="0" type="line"/>
      <point x="770" y="0" type="line"/>
      <point x="770" y="286" type="line"/>
      <point x="550" y="286" type="line"/>
      <point x="550" y="0" type="line"/>
    </contour>
    <contour>
      <point x="550" y="660" type="line"/>
      <point x="770" y="660" type="line"/>
      <point x="770" y="880" type="line"/>
    </contour>
  </outline>
</glyph>
<glyph name="Ccedilla" format="2">
  <advance width="1408"/>
  <unicode hex="00C7"/>
  <unicode hex="00E7"/>
	<anchor x="704" y="1408" name="top"/>
	<anchor x="704" y="-352" name="bottom"/>
  <outline>
    <contour>
      <point x="176" y="220" type="line"/>
      <point x="176" y="1188" type="line"/>
      <point x="396" y="1408" type="line"/>
      <point x="1232" y="1408" type="line"/>
      <point x="1232" y="1034" type="line"/>
      <point x="550" y="1034" type="line"/>
      <point x="550" y="374" type="line"/>
      <point x="1232" y="374" type="line"/>
      <point x="1232" y="220" type="line"/>
      <point x="1012" y="0" type="line"/>
      <point x="803" y="0" type="line"/>
      <point x="891" y="-88" type="line"/>
      <point x="891" y="-198" type="line"/>
      <point x="737" y="-352" type="line"/>
      <point x="517" y="-352" type="line"/>
      <point x="517" y="0" type="line"/>
      <point x="396" y="0" type="line"/>
    </contour>
  </outline>
</glyph>
<glyph name="Eth" format="2">
  <advance width="1408"/>
  <unicode hex="00D0"/>
  <unicode hex="00F0"/>
	<anchor x="704" y="1408" name="top"/>
  <outline>
    <contour>
      <point x="44" y="517" type="line"/>
      <point x="44" y="891" type="line"/>
      <point x="176" y="891" type="line"/>
      <point x="176" y="1408" type="line"/>
      <point x="858" y="1408" type="line"/>
      <point x="1232" y="1034" type="line"/>
      <point x="1232" y="374" type="line"/>
      <point x="858" y="0" type="line"/>
      <point x="176" y="0" type="line"/>
      <point x="176" y="517" type="line"/>
    </contour>
    <contour>
      <point x="550" y="374" type="line"/>
      <point x="704" y="374" type="line"/>
      <point x="858" y="528" type="line"/>
      <point x="858" y="880" type="line"/>
      <point x="704" y="1034" type="line"/>
      <point x="550" y="1034" type="line"/>
      <point x="550" y="891" type="line"/>
      <point x="704" y="891" type="line"/>
      <point x="704" y="517" type="line"/>
      <point x="550" y="517" type="line"/>
    </contour>
  </outline>
</glyph>
<glyph name="multiply" format="2">
  <advance width="1408"/>
  <unicode hex="00D7"/>
  <outline>
    <contour>
      <point x="176" y="440" type="line"/>
      <point x="440" y="704" type="line"/>
      <point x="176" y="968" type="line"/>
      <point x="440" y="1232" type="line"/>
      <point x="704" y="968" type="line"/>
      <point x="968" y="1232" type="line"/>
      <point x="1232" y="968" type="line"/>
      <point x="968" y="704" type="line"/>
      <point x="1232" y="440" type="line"/>
      <point x="968" y="176" type="line"/>
      <point x="704" y="440" type="line"/>
      <point x="440" y="176" type="line"/>
    </contour>
  </outline>
</glyph>
<glyph name="Oslash" format="2">
  <advance width="1408"/>
  <unicode hex="00D8"/>
  <unicode hex="00F8"/>
	<anchor x="704" y="1408" name="top"/>
  <outline>
    <contour>
      <point x="44" y="231" type="line"/>
      <point x="176" y="363" type="line"/>
      <point x="176" y="1188" type="line"/>
      <point x="396" y="1408" type="line"/>
      <point x="1012" y="1408" type="line"/>
      <point x="1111" y="1309" type="line"/>
      <point x="1122" y="1309" type="line"/>
      <point x="1177" y="1364" type="line"/>
      <point x="1364" y="1177" type="line"/>
      <point x="1232" y="1045" type="line"/>
      <point x="1232" y="220" type="line"/>
      <point x="1012" y="0" type="line"/>
      <point x="396" y="0" type="line"/>
      <point x="297" y="99" type="line"/>
      <point x="286" y="99" type="line"/>
      <point x="231" y="44" type="line"/>
    </contour>
    <contour>
      <point x="550" y="737" type="line"/>
      <point x="847" y="1034" type="line"/>
      <point x="550" y="1034" type="line"/>
    </contour>
    <contour>
      <point x="561" y="374" type="line"/>
      <point x="858" y="374" type="line"/>
      <point x="858" y="671" type="line"/>
    </contour>
  </outline>
</glyph>
<glyph name="Thorn" format="2">
  <advance width="1408"/>
  <unicode hex="00DE"/>
  <unicode hex="00FE"/>
	<anchor x="33" y="1408" name="top"/>
  <outline>
    <contour>
      <point x="176" y="0" type="line"/>
      <point x="176" y="1408" type="line"/>
      <point x="550" y="1408" type="line"/>
      <point x="550" y="1188" type="line"/>
      <point x="1012" y="1188" type="line"/>
      <point x="1232" y="968" type="line"/>
      <point x="1232" y="440" type="line"/>
      <point x="1012" y="220" type="line"/>
      <point x="550" y="220" type="line"/>
      <point x="550" y="0" type="line"/>
    </contour>
    <contour>
      <point x="550" y="594" type="line"/>
      <point x="858" y="594" type="line"/>
      <point x="858" y="814" type="line"/>
      <point x="550" y="814" type="line"/>
    </contour>
  </outline>
</glyph>
<glyph name="Aogonek" format="2">
  <advance width="1408"/>
  <unicode hex="0104"/>
  <unicode hex="0105"/>
	<anchor x="704" y="1408" name="top"/>
	<anchor x="704" y="-374" name="bottom"/>
  <outline>
    <contour>
      <point x="176" y="0" type="line"/>
      <point x="176" y="748" type="line"/>
      <point x="506" y="1408" type="line"/>
      <point x="902" y="1408" type="line"/>
      <point x="1232" y="748" type="line"/>
      <point x="1232" y="0" type="line"/>
      <point x="1122" y="-110" type="line"/>
      <point x="1232" y="-110" type="line"/>
      <point x="1232" y="-374" type="line"/>
      <point x="1012" y="-374" type="line"/>
      <point x="858" y="-220" type="line"/>
      <point x="858" y="-55" type="line"/>
      <point x="913" y="0" type="line"/>
      <point x="858" y="0" type="line"/>
      <point x="858" y="286" type="line"/>
      <point x="550" y="286" type="line"/>
      <point x="550" y="0" type="line"/>
    </contour>
    <contour>
      <point x="550" y="660" type="line"/>
      <point x="858" y="660" type="line"/>
      <point x="704" y="968" type="line"/>
    </contour>
  </outline>
</glyph>
<glyph name="Eogonek" format="2">
  <advance width="1408"/>
  <unicode hex="0118"/>
  <unicode hex="0119"/>
	<anchor x="627" y="1408" name="top"/>
	<anchor x="704" y="-374" name="bottom"/>
  <outline>
    <contour>
      <point x="176" y="0" type="line"/>
      <point x="176" y="1408" type="line"/>
      <point x="1078" y="1408" type="line"/>
      <point x="1078" y="1034" type="line"/>
      <point x="550" y="1034" type="line"/>
      <point x="550" y="891" type="line"/>
      <point x="924" y="891" type="line"/>
      <point x="924" y="517" type="line"/>
      <point x="550" y="517" type="line"/>
      <point x="550" y="374" type="line"/>
      <point x="1232" y="374" type="line"/>
      <point x="1232" y="0" type="line"/>
      <point x="1122" y="-110" type="line"/>
      <point x="1232" y="-110" type="line"/>
      <point x="1232" y="-374" type="line"/>
      <point x="1012" y="-374" type="line"/>
      <point x="858" y="-220" type="line"/>
      <point x="858" y="-55" type="line"/>
      <point x="913" y="0" type="line"/>
    </contour>
  </outline>
</glyph>
<glyph name="Gcedilla" format="2">
  <advance width="1408"/>
  <unicode hex="0122"/>
  <unicode hex="0123"/>
	<anchor x="682" y="1408" name="top"/>
  <outline>
		<component base="G"/>
    <contour>
      <point x="517" y="-462" type="line"/>
      <point x="517" y="-66" type="line"/>
      <point x="891" y="-66" type="line"/>
      <point x="891" y="-308" type="line"/>
      <point x="737" y="-462" type="line"/>
    </contour>
  </outline>
</glyph>
<glyph name="Hbar" format="2">
  <advance width="1408"/>
  <unicode hex="0126"/>
  <unicode hex="0127"/>
	<anchor x="704" y="1408" name="top"/>
	<anchor x="704" y="0" name="bottom"/>
  <outline>
    <contour>
      <point x="176" y="0" type="line"/>
      <point x="176" y="1023" type="line"/>
      <point x="44" y="1023" type="line"/>
      <point x="44" y="1287" type="line"/>
      <point x="176" y="1287" type="line"/>
      <point x="176" y="1408" type="line"/>
      <point x="550" y="1408" type="line"/>
      <point x="550" y="1287" type="line"/>
      <point x="858" y="1287" type="line"/>
      <point x="858" y="1408" type="line"/>
      <point x="1232" y="1408" type="line"/>
      <point x="1232" y="1287" type="line"/>
      <point x="1364" y="1287" type="line"/>
      <point x="1364" y="1023" type="line"/>
      <point x="1232" y="1023" type="line"/>
      <point x="1232" y="0" type="line"/>
      <point x="858" y="0" type="line"/>
      <point x="858" y="517" type="line"/>
      <point x="550" y="517" type="line"/>
      <point x="550" y="0" type="line"/>
    </contour>
		<contour>
      <point x="550" y="891" type="line"/>
      <point x="858" y="891" type="line"/>
      <point x="858" y="1023" type="line"/>
      <point x="550" y="1023" type="line"/>
		</contour>
  </outline>
</glyph>
<glyph name="Iogonek" format="2">
  <advance width="1408"/>
  <unicode hex="012E"/>
  <unicode hex="012F"/>
	<anchor x="704" y="1408" name="top"/>
  <outline>
    <contour>
      <point x="176" y="0" type="line"/>
      <point x="176" y="374" type="line"/>
      <point x="517" y="374" type="line"/>
      <point x="517" y="1034" type="line"/>
      <point x="330" y="1034" type="line"/>
      <point x="330" y="1408" type="line"/>
      <point x="1078" y="1408" type="line"/>
      <point x="1078" y="1034" type="line"/>
      <point x="891" y="1034" type="line"/>
      <point x="891" y="374" type="line"/>
      <point x="1232" y="374" type="line"/>
      <point x="1232" y="0" type="line"/>
      <point x="1122" y="-110" type="line"/>
      <point x="1232" y="-110" type="line"/>
      <point x="1232" y="-374" type="line"/>
      <point x="1012" y="-374" type="line"/>
      <point x="858" y="-220" type="line"/>
      <point x="858" y="-55" type="line"/>
      <point x="913" y="0" type="line"/>
    </contour>
  </outline>
</glyph>
<glyph name="IJ" format="2">
  <advance width="1408"/>
  <unicode hex="0132"/>
  <unicode hex="0133"/>
	<anchor x="704" y="1408" name="top"/>
	<anchor x="704" y="0" name="bottom"/>
  <outline>
    <contour>
      <point x="176" y="671" type="line"/>
      <point x="176" y="1408" type="line"/>
      <point x="550" y="1408" type="line"/>
      <point x="550" y="825" type="line"/>
      <point x="704" y="671" type="line"/>
      <point x="704" y="517" type="line"/>
      <point x="330" y="517" type="line"/>
    </contour>
    <contour>
      <point x="176" y="220" type="line"/>
      <point x="176" y="374" type="line"/>
      <point x="858" y="374" type="line"/>
      <point x="858" y="1408" type="line"/>
      <point x="1232" y="1408" type="line"/>
      <point x="1232" y="220" type="line"/>
      <point x="1012" y="0" type="line"/>
      <point x="396" y="0" type="line"/>
    </contour>
  </outline>
</glyph>
<glyph name="Kcedilla" format="2">
  <advance width="1408"/>
  <unicode hex="0136"/>
  <unicode hex="0137"/>
	<anchor x="704" y="1408" name="top"/>
	<anchor x="704" y="-462" name="bottom"/>
  <outline>
		<component base="K"/>
    <contour>
      <point x="517" y="-462" type="line"/>
      <point x="517" y="-66" type="line"/>
      <point x="891" y="-66" type="line"/>
      <point x="891" y="-308" type="line"/>
      <point x="737" y="-462" type="line"/>
    </contour>
  </outline>
</glyph>
<glyph name="kgreenlandic" format="2">
  <advance width="1408"/>
  <unicode hex="0138"/>
	<anchor x="704" y="1056" name="top"/>
  <outline>
    <contour>
      <point x="176" y="0" type="line"/>
      <point x="176" y="1056" type="line"/>
      <point x="550" y="1056" type="line"/>
      <point x="550" y="815" type="line"/>
      <point x="891" y="1056" type="line"/>
      <point x="1232" y="1056" type="line"/>
      <point x="1232" y="869" type="line"/>
      <point x="891" y="528" type="line"/>
      <point x="1232" y="187" type="line"/>
      <point x="1232" y="0" type="line"/>
      <point x="891" y="0" type="line"/>
      <point x="550" y="341" type="line"/>
      <point x="550" y="0" type="line"/>
    </contour>
  </outline>
</glyph>
<glyph name="Lcedilla" format="2">
  <advance width="1408"/>
  <unicode hex="013B"/>
  <unicode hex="013C"/>
	<anchor x="550" y="1408" name="top"/>
	<anchor x="704" y="-462" name="bottom"/>
  <outline>
		<component base="L"/>
    <contour>
      <point x="517" y="-462" type="line"/>
      <point x="517" y="-66" type="line"/>
      <point x="891" y="-66" type="line"/>
      <point x="891" y="-308" type="line"/>
      <point x="737" y="-462" type="line"/>
    </contour>
  </outline>
</glyph>
<glyph name="Lcaron" format="2">
  <advance width="1408"/>
  <unicode hex="013D"/>
  <unicode hex="013E"/>
	<anchor x="550" y="1408" name="top"/>
	<anchor x="704" y="0" name="bottom"/>
  <outline>
		<component base="L"/>
		<contour>
      <point x="704" y="1034" type="line"/>
      <point x="704" y="1254" type="line"/>
      <point x="858" y="1408" type="line"/>
      <point x="1232" y="1408" type="line"/>
      <point x="858" y="1034" type="line"/>
		</contour>
  </outline>
</glyph>
<glyph name="Lslash" format="2">
  <advance width="1408"/>
  <unicode hex="0141"/>
  <unicode hex="0142"/>
	<anchor x="550" y="1408" name="top"/>
  <outline>
    <contour>
      <point x="176" y="0" type="line"/>
      <point x="176" y="220" type="line"/>
      <point x="110" y="154" type="line"/>
      <point x="-77" y="341" type="line"/>
      <point x="176" y="594" type="line"/>
      <point x="176" y="1408" type="line"/>
      <point x="550" y="1408" type="line"/>
      <point x="550" y="968" type="line"/>
      <point x="737" y="1155" type="line"/>
      <point x="924" y="968" type="line"/>
      <point x="550" y="594" type="line"/>
      <point x="550" y="374" type="line"/>
      <point x="1232" y="374" type="line"/>
      <point x="1232" y="0" type="line"/>
    </contour>
  </outline>
</glyph>
<glyph name="Ncedilla" format="2">
  <advance width="1408"/>
  <unicode hex="0145"/>
  <unicode hex="0146"/>
	<anchor x="704" y="1408" name="top"/>
  <outline>
		<component base="N"/>
    <contour>
      <point x="517" y="-462" type="line"/>
      <point x="517" y="-66" type="line"/>
      <point x="891" y="-66" type="line"/>
      <point x="891" y="-308" type="line"/>
      <point x="737" y="-462" type="line"/>
    </contour>
  </outline>
</glyph>
<glyph name="Eng" format="2">
  <advance width="1408"/>
  <unicode hex="014A"/>
  <unicode hex="014B"/>
	<anchor x="704" y="1408" name="top"/>
  <outline>
    <contour>
      <point x="176" y="0" type="line"/>
      <point x="176" y="1408" type="line"/>
      <point x="561" y="1408" type="line"/>
      <point x="858" y="814" type="line"/>
      <point x="858" y="1408" type="line"/>
      <point x="1232" y="1408" type="line"/>
      <point x="1232" y="-308" type="line"/>
      <point x="1012" y="-528" type="line"/>
      <point x="704" y="-528" type="line"/>
      <point x="704" y="-154" type="line"/>
      <point x="858" y="-154" type="line"/>
      <point x="858" y="-22" type="line"/>
      <point x="550" y="594" type="line"/>
      <point x="550" y="0" type="line"/>
    </contour>
  </outline>
</glyph>
<glyph name="OE" format="2">
  <advance width="1760"/>
  <unicode hex="0152"/>
  <unicode hex="0153"/>
	<anchor x="957" y="1408" name="top"/>
	<anchor x="957" y="0" name="bottom"/>
  <outline>
    <contour>
      <point x="176" y="220" type="line"/>
      <point x="176" y="1188" type="line"/>
      <point x="396" y="1408" type="line"/>
      <point x="924" y="1408" type="line"/>
      <point x="957" y="1375" type="line"/>
      <point x="990" y="1408" type="line"/>
      <point x="1584" y="1408" type="line"/>
      <point x="1584" y="1034" type="line"/>
      <point x="1144" y="1034" type="line"/>
      <point x="1144" y="891" type="line"/>
      <point x="1474" y="891" type="line"/>
      <point x="1474" y="517" type="line"/>
      <point x="1144" y="517" type="line"/>
      <point x="1144" y="374" type="line"/>
      <point x="1584" y="374" type="line"/>
      <point x="1584" y="0" type="line"/>
      <point x="990" y="0" type="line"/>
      <point x="957" y="33" type="line"/>
      <point x="924" y="0" type="line"/>
      <point x="396" y="0" type="line"/>
    </contour>
    <contour>
      <point x="550" y="374" type="line"/>
      <point x="770" y="374" type="line"/>
      <point x="770" y="1034" type="line"/>
      <point x="550" y="1034" type="line"/>
    </contour>
  </outline>
</glyph>
<glyph name="Rcedilla" format="2">
  <advance width="1408"/>
  <unicode hex="0156"/>
  <unicode hex="0157"/>
	<anchor x="704" y="1408" name="top"/>
	<anchor x="704" y="-462" name="bottom"/>
  <outline>
		<component base="R"/>
    <contour>
      <point x="517" y="-462" type="line"/>
      <point x="517" y="-66" type="line"/>
      <point x="891" y="-66" type="line"/>
      <point x="891" y="-308" type="line"/>
      <point x="737" y="-462" type="line"/>
    </contour>
  </outline>
</glyph>
<glyph name="Tcedilla" format="2">
  <advance width="1408"/>
  <unicode hex="0162"/>
  <unicode hex="0163"/>
	<anchor x="704" y="1408" name="top"/>
	<anchor x="704" y="-352" name="bottom"/>
  <outline>
    <contour>
      <point x="176" y="1034" type="line"/>
      <point x="176" y="1408" type="line"/>
      <point x="1232" y="1408" type="line"/>
      <point x="1232" y="1034" type="line"/>
      <point x="891" y="1034" type="line"/>
      <point x="891" y="0" type="line"/>
      <point x="803" y="0" type="line"/>
      <point x="891" y="-88" type="line"/>
      <point x="891" y="-198" type="line"/>
      <point x="737" y="-352" type="line"/>
      <point x="517" y="-352" type="line"/>
      <point x="517" y="0" type="line"/>
      <point x="517" y="1034" type="line"/>
    </contour>
  </outline>
</glyph>
<glyph name="Tbar" format="2">
  <advance width="1408"/>
  <unicode hex="0166"/>
  <unicode hex="0167"/>
	<anchor x="704" y="1408" name="top"/>
	<anchor x="704" y="0" name="bottom"/>
  <outline>
    <contour>
      <point x="176" y="1034" type="line"/>
      <point x="176" y="1408" type="line"/>
      <point x="1232" y="1408" type="line"/>
      <point x="1232" y="1034" type="line"/>
      <point x="891" y="1034" type="line"/>
      <point x="891" y="902" type="line"/>
      <point x="1056" y="902" type="line"/>
      <point x="1056" y="638" type="line"/>
      <point x="891" y="638" type="line"/>
      <point x="891" y="0" type="line"/>
      <point x="517" y="0" type="line"/>
      <point x="517" y="638" type="line"/>
      <point x="352" y="638" type="line"/>
      <point x="352" y="902" type="line"/>
      <point x="517" y="902" type="line"/>
      <point x="517" y="1034" type="line"/>
    </contour>
  </outline>
</glyph>
<glyph name="Uogonek" format="2">
  <advance width="1408"/>
  <unicode hex="0172"/>
  <unicode hex="0173"/>
	<anchor x="704" y="1408" name="top"/>
  <outline>
    <contour>
      <point x="176" y="220" type="line"/>
      <point x="176" y="1408" type="line"/>
      <point x="550" y="1408" type="line"/>
      <point x="550" y="374" type="line"/>
      <point x="858" y="374" type="line"/>
      <point x="858" y="1408" type="line"/>
      <point x="1232" y="1408" type="line"/>
      <point x="1232" y="220" type="line"/>
      <point x="1012" y="0" type="line"/>
      <point x="902" y="-110" type="line"/>
      <point x="1012" y="-110" type="line"/>
      <point x="1012" y="-374" type="line"/>
      <point x="792" y="-374" type="line"/>
      <point x="638" y="-220" type="line"/>
      <point x="638" y="-55" type="line"/>
      <point x="693" y="0" type="line"/>
      <point x="396" y="0" type="line"/>
    </contour>
  </outline>
</glyph>
<glyph name="longs" format="2">
  <advance width="1056"/>
  <unicode hex="017F"/>
	<anchor x="616" y="1408" name="top"/>
  <outline>
    <contour>
      <point x="-154" y="-528" type="line"/>
      <point x="-154" y="-154" type="line"/>
      <point x="176" y="-154" type="line"/>
      <point x="176" y="1188" type="line"/>
      <point x="396" y="1408" type="line"/>
      <point x="880" y="1408" type="line"/>
      <point x="880" y="1034" type="line"/>
      <point x="550" y="1034" type="line"/>
      <point x="550" y="-308" type="line"/>
      <point x="330" y="-528" type="line"/>
    </contour>
  </outline>
</glyph>
<glyph name="Bhook" format="2">
  <advance width="1408"/>
  <unicode hex="0181"/>
  <unicode hex="0253"/>
  <anchor x="704" y="1408" name="top"/>
	<anchor x="594" y="0" name="bottom"/>
  <outline>
    <contour>
      <point x="44" y="880" type="line"/>
      <point x="44" y="1188" type="line"/>
      <point x="264" y="1408" type="line"/>
      <point x="1012" y="1408" type="line"/>
      <point x="1232" y="1188" type="line"/>
      <point x="1232" y="979" type="line"/>
      <point x="1122" y="869" type="line"/>
      <point x="1232" y="759" type="line"/>
      <point x="1232" y="220" type="line"/>
      <point x="1012" y="0" type="line"/>
      <point x="242" y="0" type="line"/>
      <point x="242" y="814" type="line"/>
      <point x="462" y="1034" type="line"/>
      <point x="352" y="1034" type="line"/>
      <point x="198" y="880" type="line"/>
    </contour>
    <contour>
      <point x="616" y="374" type="line"/>
      <point x="858" y="374" type="line"/>
      <point x="858" y="704" type="line"/>
      <point x="616" y="704" type="line"/>
    </contour>
    <contour>
      <point x="616" y="792" type="line"/>
      <point x="858" y="1034" type="line"/>
      <point x="616" y="1034" type="line"/>
    </contour>
  </outline>
</glyph>
<glyph name="Oopen" format="2">
  <advance width="1408"/>
  <unicode hex="0186"/>
  <unicode hex="0254"/>
	<anchor x="704" y="1408" name="top"/>
	<anchor x="704" y="0" name="bottom"/>
  <outline>
    <contour>
      <point x="176" y="275" type="line"/>
      <point x="440" y="539" type="line"/>
      <point x="605" y="374" type="line"/>
      <point x="858" y="374" type="line"/>
      <point x="858" y="1034" type="line"/>
      <point x="605" y="1034" type="line"/>
      <point x="440" y="869" type="line"/>
      <point x="176" y="1133" type="line"/>
      <point x="451" y="1408" type="line"/>
      <point x="1012" y="1408" type="line"/>
      <point x="1232" y="1188" type="line"/>
      <point x="1232" y="220" type="line"/>
      <point x="1012" y="0" type="line"/>
      <point x="451" y="0" type="line"/>
    </contour>
  </outline>
</glyph>
<glyph name="Chook" format="2">
  <advance width="1408"/>
  <unicode hex="0187"/>
  <unicode hex="0188"/>
	<anchor x="704" y="1914" name="top"/>
	<anchor x="704" y="0" name="bottom"/>
  <outline>
    <contour>
      <point x="176" y="220" type="line"/>
      <point x="176" y="1188" type="line"/>
      <point x="396" y="1408" type="line"/>
      <point x="858" y="1408" type="line"/>
      <point x="858" y="1694" type="line"/>
      <point x="1078" y="1914" type="line"/>
      <point x="1364" y="1914" type="line"/>
      <point x="1364" y="1540" type="line"/>
      <point x="1232" y="1540" type="line"/>
      <point x="1232" y="957" type="line"/>
      <point x="858" y="957" type="line"/>
      <point x="781" y="1034" type="line"/>

      <point x="550" y="1034" type="line"/>
      <point x="550" y="374" type="line"/>
      <point x="1232" y="374" type="line"/>
      <point x="1232" y="220" type="line"/>
      <point x="1012" y="0" type="line"/>
      <point x="396" y="0" type="line"/>
    </contour>
  </outline>
</glyph>
<glyph name="Dafrican" format="2">
  <advance width="1408"/>
  <unicode hex="0189"/>
  <unicode hex="0256"/>
	<anchor x="495" y="1408" name="top"/>
  <outline>
    <contour>
      <point x="44" y="462" type="line"/>
      <point x="44" y="836" type="line"/>
      <point x="176" y="836" type="line"/>
      <point x="176" y="1408" type="line"/>
      <point x="704" y="1408" type="line"/>
      <point x="1232" y="880" type="line"/>
      <point x="1232" y="220" type="line"/>
      <point x="1012" y="0" type="line"/>
      <point x="176" y="0" type="line"/>
      <point x="176" y="462" type="line"/>
    </contour>
    <contour>
      <point x="550" y="374" type="line"/>
      <point x="858" y="374" type="line"/>
      <point x="858" y="726" type="line"/>
      <point x="550" y="1034" type="line"/>
      <point x="550" y="836" type="line"/>
      <point x="682" y="836" type="line"/>
      <point x="682" y="462" type="line"/>
      <point x="550" y="462" type="line"/>
    </contour>
  </outline>
</glyph>
<glyph name="Dhook" format="2">
  <advance width="1408"/>
  <unicode hex="018A"/>
  <unicode hex="0257"/>
	<anchor x="495" y="1408" name="top"/>
	<anchor x="594" y="0" name="bottom"/>
  <outline>
    <contour>
      <point x="44" y="880" type="line"/>
      <point x="44" y="1188" type="line"/>
      <point x="264" y="1408" type="line"/>
      <point x="836" y="1408" type="line"/>
      <point x="1232" y="1023" type="line"/>
      <point x="1232" y="220" type="line"/>
      <point x="1012" y="0" type="line"/>
      <point x="308" y="0" type="line"/>
      <point x="308" y="880" type="line"/>
    </contour>
    <contour>
      <point x="682" y="374" type="line"/>
      <point x="858" y="374" type="line"/>
      <point x="858" y="858" type="line"/>
      <point x="682" y="1034" type="line"/>
    </contour>
  </outline>
</glyph>
<glyph name="Fhook" format="2">
  <advance width="1408"/>
  <unicode hex="0191"/>
	<anchor x="704" y="1408" name="top"/>
  <outline>
    <contour>
      <point x="22" y="-528" type="line"/>
      <point x="22" y="-154" type="line"/>
      <point x="176" y="-154" type="line"/>
      <point x="176" y="1408" type="line"/>
      <point x="1232" y="1408" type="line"/>
      <point x="1232" y="1034" type="line"/>
      <point x="550" y="1034" type="line"/>
      <point x="550" y="715" type="line"/>
      <point x="1078" y="715" type="line"/>
      <point x="1078" y="341" type="line"/>
      <point x="550" y="341" type="line"/>
      <point x="550" y="-308" type="line"/>
      <point x="330" y="-528" type="line"/>
    </contour>
  </outline>
</glyph>
<glyph name="florin" format="2">
  <advance width="1408"/>
  <unicode hex="0192"/>
	<anchor x="1056" y="1408" name="top"/>
  <outline>
    <contour>
      <point x="176" y="-528" type="line"/>
      <point x="176" y="-154" type="line"/>
      <point x="517" y="-154" type="line"/>
      <point x="517" y="517" type="line"/>
      <point x="176" y="517" type="line"/>
      <point x="176" y="891" type="line"/>
      <point x="517" y="891" type="line"/>
      <point x="517" y="1188" type="line"/>
      <point x="737" y="1408" type="line"/>
      <point x="1232" y="1408" type="line"/>
      <point x="1232" y="1034" type="line"/>
      <point x="891" y="1034" type="line"/>
      <point x="891" y="891" type="line"/>
      <point x="1232" y="891" type="line"/>
      <point x="1232" y="517" type="line"/>
      <point x="891" y="517" type="line"/>
      <point x="891" y="-308" type="line"/>
      <point x="671" y="-528" type="line"/>
    </contour>
  </outline>
</glyph>
<glyph name="Ghook" format="2">
  <advance width="1408"/>
  <unicode hex="0193"/>
  <unicode hex="0260"/>
	<anchor x="682" y="1408" name="top"/>
  <outline>
    <contour>
      <point x="176" y="220" type="line"/>
      <point x="176" y="1188" type="line"/>
      <point x="396" y="1408" type="line"/>
      <point x="803" y="1408" type="line"/>
      <point x="803" y="1694" type="line"/>
      <point x="1023" y="1914" type="line"/>
      <point x="1309" y="1914" type="line"/>
      <point x="1309" y="1540" type="line"/>
      <point x="1177" y="1540" type="line"/>
      <point x="1177" y="1034" type="line"/>
      <point x="550" y="1034" type="line"/>
      <point x="550" y="374" type="line"/>
      <point x="858" y="374" type="line"/>
      <point x="858" y="704" type="line"/>
      <point x="1232" y="704" type="line"/>
      <point x="1232" y="0" type="line"/>
      <point x="396" y="0" type="line"/>
    </contour>
  </outline>
</glyph>
<glyph name="Gammaafrican" format="2">
  <advance width="1408"/>
  <unicode hex="0194"/>
  <unicode hex="0263"/>
	<anchor x="704" y="1408" name="top"/>
  <outline>
    <contour>
      <point x="176" y="1034" type="line"/>
      <point x="176" y="1408" type="line"/>
      <point x="374" y="1408" type="line"/>
      <point x="528" y="1254" type="line"/>
      <point x="704" y="902" type="line"/>
      <point x="880" y="1254" type="line"/>
      <point x="1034" y="1408" type="line"/>
      <point x="1232" y="1408" type="line"/>
      <point x="1232" y="1034" type="line"/>
      <point x="1188" y="1034" type="line"/>
      <point x="913" y="484" type="line"/>
      <point x="1023" y="264" type="line"/>
      <point x="1023" y="55" type="line"/>
      <point x="836" y="-132" type="line"/>
      <point x="572" y="-132" type="line"/>
      <point x="385" y="55" type="line"/>
      <point x="385" y="264" type="line"/>
      <point x="495" y="484" type="line"/>
      <point x="220" y="1034" type="line"/>
    </contour>
  </outline>
</glyph>
<glyph name="Iotaafrican" format="2">
  <advance width="1408"/>
  <unicode hex="0196"/>
  <unicode hex="0269"/>
	<anchor x="605" y="1408" name="top"/>
	<anchor x="858" y="0" name="bottom"/>
  <outline>
    <contour>
      <point x="176" y="1034" type="line"/>
      <point x="176" y="1408" type="line"/>
      <point x="792" y="1408" type="line"/>
      <point x="792" y="374" type="line"/>
      <point x="1232" y="374" type="line"/>
      <point x="1232" y="154" type="line"/>
      <point x="1078" y="0" type="line"/>
      <point x="638" y="0" type="line"/>
      <point x="418" y="220" type="line"/>
      <point x="418" y="1034" type="line"/>
    </contour>
  </outline>
</glyph>
<glyph name="Istroke" format="2">
  <advance width="1408"/>
  <unicode hex="0197"/>
  <unicode hex="0268"/>
	<anchor x="704" y="1408" name="top"/>
	<anchor x="704" y="0" name="bottom"/>
  <outline>
    <contour>
      <point x="176" y="0" type="line"/>
      <point x="176" y="374" type="line"/>
      <point x="517" y="374" type="line"/>
      <point x="517" y="638" type="line"/>
      <point x="176" y="638" type="line"/>
      <point x="176" y="902" type="line"/>
      <point x="517" y="902" type="line"/>
      <point x="517" y="1034" type="line"/>
      <point x="330" y="1034" type="line"/>
      <point x="330" y="1408" type="line"/>
      <point x="1078" y="1408" type="line"/>
      <point x="1078" y="1034" type="line"/>
      <point x="891" y="1034" type="line"/>
      <point x="891" y="902" type="line"/>
      <point x="1232" y="902" type="line"/>
      <point x="1232" y="638" type="line"/>
      <point x="891" y="638" type="line"/>
      <point x="891" y="374" type="line"/>
      <point x="1232" y="374" type="line"/>
      <point x="1232" y="0" type="line"/>
    </contour>
  </outline>
</glyph>
<glyph name="Khook" format="2">
  <advance width="1408"/>
  <unicode hex="0198"/>
  <unicode hex="0199"/>
	<anchor x="704" y="1408" name="top"/>
	<anchor x="704" y="0" name="bottom"/>
  <outline>
    <contour>
      <point x="176" y="0" type="line"/>
      <point x="176" y="1408" type="line"/>
      <point x="550" y="1408" type="line"/>
      <point x="550" y="1122" type="line"/>
      <point x="836" y="1408" type="line"/>
      <point x="1144" y="1408" type="line"/>
      <point x="1364" y="1188" type="line"/>
      <point x="1364" y="880" type="line"/>
      <point x="1144" y="880" type="line"/>
      <point x="990" y="1034" type="line"/>
      <point x="748" y="792" type="line"/>
      <point x="1232" y="308" type="line"/>
      <point x="1232" y="0" type="line"/>
      <point x="858" y="0" type="line"/>
      <point x="858" y="154" type="line"/>
      <point x="550" y="462" type="line"/>
      <point x="550" y="0" type="line"/>
    </contour>
  </outline>
</glyph>
<glyph name="Nhookleft" format="2">
  <advance width="1408"/>
  <unicode hex="019D"/>
  <unicode hex="0272"/>
	<anchor x="704" y="1408" name="top"/>
  <outline>
    <contour>
      <point x="22" y="-528" type="line"/>
      <point x="22" y="-154" type="line"/>
      <point x="176" y="-154" type="line"/>
      <point x="176" y="1408" type="line"/>
      <point x="561" y="1408" type="line"/>
      <point x="858" y="814" type="line"/>
      <point x="858" y="1408" type="line"/>
      <point x="1232" y="1408" type="line"/>
      <point x="1232" y="0" type="line"/>
      <point x="847" y="0" type="line"/>
      <point x="550" y="594" type="line"/>
      <point x="550" y="-308" type="line"/>
      <point x="330" y="-528" type="line"/>
    </contour>
  </outline>
</glyph>
<glyph name="Ocenteredtilde" format="2">
  <advance width="1408"/>
  <unicode hex="019F"/>
  <unicode hex="0275"/>
	<anchor x="704" y="1408" name="top"/>
  <outline>
    <contour>
      <point x="176" y="308" type="line"/>
      <point x="176" y="1100" type="line"/>
      <point x="484" y="1408" type="line"/>
      <point x="924" y="1408" type="line"/>
      <point x="1232" y="1100" type="line"/>
      <point x="1232" y="308" type="line"/>
      <point x="924" y="0" type="line"/>
      <point x="484" y="0" type="line"/>
    </contour>
    <contour>
      <point x="550" y="462" type="line"/>
      <point x="638" y="374" type="line"/>
      <point x="770" y="374" type="line"/>
      <point x="858" y="462" type="line"/>
      <point x="858" y="572" type="line"/>
      <point x="550" y="572" type="line"/>
    </contour>
    <contour>
      <point x="550" y="836" type="line"/>
      <point x="858" y="836" type="line"/>
      <point x="858" y="946" type="line"/>
      <point x="770" y="1034" type="line"/>
      <point x="638" y="1034" type="line"/>
      <point x="550" y="946" type="line"/>
    </contour>
  </outline>
</glyph>
<glyph name="Phook" format="2">
  <advance width="1408"/>
  <unicode hex="01A4"/>
  <unicode hex="01A5"/>
	<anchor x="704" y="1408" name="top"/>
  <outline>
    <contour>
      <point x="44" y="880" type="line"/>
      <point x="44" y="1188" type="line"/>
      <point x="264" y="1408" type="line"/>
      <point x="1012" y="1408" type="line"/>
      <point x="1012" y="1408" type="line"/>
      <point x="1232" y="1188" type="line"/>
      <point x="1232" y="572" type="line"/>
      <point x="1012" y="352" type="line"/>
      <point x="616" y="352" type="line"/>
      <point x="616" y="0" type="line"/>
      <point x="242" y="0" type="line"/>
      <point x="242" y="814" type="line"/>
      <point x="462" y="1034" type="line"/>
      <point x="352" y="1034" type="line"/>
      <point x="198" y="880" type="line"/>
    </contour>
    <contour>
      <point x="616" y="726" type="line"/>
      <point x="858" y="726" type="line"/>
      <point x="858" y="1034" type="line"/>
      <point x="616" y="1034" type="line"/>
    </contour>
  </outline>
</glyph>
<glyph name="Esh" format="2">
  <advance width="1408"/>
  <unicode hex="01A9"/>
  <unicode hex="0283"/>
	<anchor x="704" y="1408" name="top"/>
	<anchor x="704" y="0" name="bottom"/>
  <outline>
    <contour>
      <point x="176" y="0" type="line"/>
      <point x="176" y="374" type="line"/>
      <point x="506" y="704" type="line"/>
      <point x="176" y="1034" type="line"/>
      <point x="176" y="1408" type="line"/>
      <point x="1232" y="1408" type="line"/>
      <point x="1232" y="1034" type="line"/>
      <point x="704" y="1034" type="line"/>
      <point x="1034" y="704" type="line"/>
      <point x="704" y="374" type="line"/>
      <point x="1232" y="374" type="line"/>
      <point x="1232" y="0" type="line"/>
    </contour>
  </outline>
</glyph>
<glyph name="Thook" format="2">
  <advance width="1408"/>
  <unicode hex="01AC"/>
  <unicode hex="01AD"/>
	<anchor x="704" y="1408" name="top"/>
  <outline>
    <contour>
      <point x="44" y="902" type="line"/>
      <point x="44" y="1188" type="line"/>
      <point x="264" y="1408" type="line"/>
      <point x="1232" y="1408" type="line"/>
      <point x="1232" y="1034" type="line"/>
      <point x="891" y="1034" type="line"/>
      <point x="891" y="0" type="line"/>
      <point x="517" y="0" type="line"/>
      <point x="517" y="1034" type="line"/>
      <point x="418" y="1034" type="line"/>
      <point x="418" y="902" type="line"/>
    </contour>
  </outline>
</glyph>
<glyph name="Tretroflexhook" format="2">
  <advance width="1408"/>
  <unicode hex="01AE"/>
  <unicode hex="0288"/>
	<anchor x="704" y="1408" name="top"/>
  <outline>
    <contour>
      <point x="176" y="1034" type="line"/>
      <point x="176" y="1408" type="line"/>
      <point x="1232" y="1408" type="line"/>
      <point x="1232" y="1034" type="line"/>
      <point x="891" y="1034" type="line"/>
      <point x="891" y="-154" type="line"/>
      <point x="1045" y="-154" type="line"/>
      <point x="1045" y="-528" type="line"/>
      <point x="737" y="-528" type="line"/>
      <point x="517" y="-308" type="line"/>
      <point x="517" y="1034" type="line"/>
    </contour>
  </outline>
</glyph>
<glyph name="Upsilonafrican" format="2">
  <advance width="1408"/>
  <unicode hex="01B1"/>
  <unicode hex="028A"/>
	<anchor x="704" y="1408" name="top"/>
  <outline>
    <contour>
      <point x="176" y="220" type="line"/>
      <point x="176" y="836" type="line"/>
      <point x="374" y="1034" type="line"/>
      <point x="176" y="1034" type="line"/>
      <point x="176" y="1408" type="line"/>
      <point x="649" y="1408" type="line"/>
      <point x="649" y="781" type="line"/>
      <point x="550" y="682" type="line"/>
      <point x="550" y="374" type="line"/>
      <point x="858" y="374" type="line"/>
      <point x="858" y="682" type="line"/>
      <point x="759" y="781" type="line"/>
      <point x="759" y="1408" type="line"/>
      <point x="1232" y="1408" type="line"/>
      <point x="1232" y="1034" type="line"/>
      <point x="1034" y="1034" type="line"/>
      <point x="1232" y="836" type="line"/>
      <point x="1232" y="220" type="line"/>
      <point x="1012" y="0" type="line"/>
      <point x="396" y="0" type="line"/>
    </contour>
  </outline>
</glyph>
<glyph name="Vhook" format="2">
  <advance width="1408"/>
  <unicode hex="01B2"/>
  <unicode hex="028B"/>
	<anchor x="704" y="1408" name="top"/>
	<anchor x="704" y="0" name="bottom"/>
  <outline>
    <contour>
      <point x="176" y="220" type="line"/>
      <point x="176" y="1408" type="line"/>
      <point x="550" y="1408" type="line"/>
      <point x="550" y="374" type="line"/>
      <point x="858" y="374" type="line"/>
      <point x="858" y="990" type="line"/>
      <point x="704" y="1144" type="line"/>
      <point x="968" y="1408" type="line"/>
      <point x="1232" y="1144" type="line"/>
      <point x="1232" y="220" type="line"/>
      <point x="1012" y="0" type="line"/>
      <point x="396" y="0" type="line"/>
    </contour>
  </outline>
</glyph>
<glyph name="Yhook" format="2">
  <advance width="1408"/>
  <unicode hex="01B3"/>
  <unicode hex="01B4"/>
	<anchor x="704" y="1408" name="top"/>
	<anchor x="704" y="0" name="bottom"/>
  <outline>
    <contour>
      <point x="176" y="1210" type="line"/>
      <point x="176" y="1408" type="line"/>
      <point x="550" y="1408" type="line"/>
      <point x="550" y="1298" type="line"/>
      <point x="704" y="990" type="line"/>
      <point x="836" y="1254" type="line"/>
      <point x="990" y="1408" type="line"/>
      <point x="1210" y="1408" type="line"/>
      <point x="1364" y="1254" type="line"/>
      <point x="1364" y="946" type="line"/>
      <point x="1100" y="946" type="line"/>
      <point x="891" y="528" type="line"/>
      <point x="891" y="0" type="line"/>
      <point x="517" y="0" type="line"/>
      <point x="517" y="528" type="line"/>
    </contour>
  </outline>
</glyph>
<glyph name="Zstroke" format="2">
  <advance width="1408"/>
  <unicode hex="01B5"/>
  <unicode hex="01B6"/>
	<anchor x="704" y="1408" name="top"/>
	<anchor x="704" y="0" name="bottom"/>
  <outline>
    <contour>
      <point x="176" y="0" type="line"/>
      <point x="176" y="66" type="line"/>
			<point x="429" y="572" type="line"/>
			<point x="297" y="572" type="line"/>
			<point x="297" y="836" type="line"/>
			<point x="561" y="836" type="line"/>
      <point x="660" y="1034" type="line"/>
      <point x="176" y="1034" type="line"/>
      <point x="176" y="1408" type="line"/>
      <point x="1232" y="1408" type="line"/>
      <point x="1232" y="1342" type="line"/>
			<point x="979" y="836" type="line"/>
			<point x="1111" y="836" type="line"/>
			<point x="1111" y="572" type="line"/>
			<point x="847" y="572" type="line"/>
      <point x="748" y="374" type="line"/>
      <point x="1232" y="374" type="line"/>
      <point x="1232" y="0" type="line"/>
    </contour>
  </outline>
</glyph>
<glyph name="Ezh" format="2">
  <advance width="1408"/>
  <unicode hex="01B7"/>
  <unicode hex="0292"/>
	<anchor x="759" y="1408" name="top"/>
	<anchor x="704" y="0" name="bottom"/>
  <outline>
    <contour>
      <point x="176" y="220" type="line"/>
      <point x="176" y="374" type="line"/>
      <point x="858" y="374" type="line"/>
      <point x="858" y="594" type="line"/>
      <point x="407" y="594" type="line"/>
      <point x="627" y="1034" type="line"/>
      <point x="286" y="1034" type="line"/>
      <point x="286" y="1408" type="line"/>
      <point x="1232" y="1408" type="line"/>
      <point x="1012" y="968" type="line"/>
      <point x="1232" y="748" type="line"/>
      <point x="1232" y="220" type="line"/>
      <point x="1012" y="0" type="line"/>
      <point x="396" y="0" type="line"/>
    </contour>
  </outline>
</glyph>
<glyph name="clickdental" format="2">
  <advance width="1056"/>
  <unicode hex="01C0"/>
  <outline>
    <contour>
      <point x="341" y="-176" type="line"/>
      <point x="341" y="1584" type="line"/>
      <point x="715" y="1584" type="line"/>
      <point x="715" y="-176" type="line"/>
    </contour>
  </outline>
</glyph>
<glyph name="clicklateral" format="2">
  <advance width="1408"/>
  <unicode hex="01C1"/>
  <outline>
    <contour>
      <point x="176" y="-176" type="line"/>
      <point x="176" y="1584" type="line"/>
      <point x="550" y="1584" type="line"/>
      <point x="550" y="-176" type="line"/>
    </contour>
    <contour>
      <point x="858" y="-176" type="line"/>
      <point x="858" y="1584" type="line"/>
      <point x="1232" y="1584" type="line"/>
      <point x="1232" y="-176" type="line"/>
    </contour>
  </outline>
</glyph>
<glyph name="clickalveolar" format="2">
  <advance width="1408"/>
  <unicode hex="01C2"/>
	<anchor x="704" y="1584" name="top"/>
	<anchor x="704" y="-176" name="bottom"/>
  <outline>
    <contour>
      <point x="176" y="253" type="line"/>
      <point x="176" y="627" type="line"/>
      <point x="517" y="627" type="line"/>
      <point x="517" y="781" type="line"/>
      <point x="176" y="781" type="line"/>
      <point x="176" y="1155" type="line"/>
      <point x="517" y="1155" type="line"/>
      <point x="517" y="1584" type="line"/>
      <point x="891" y="1584" type="line"/>
      <point x="891" y="1155" type="line"/>
      <point x="1232" y="1155" type="line"/>
      <point x="1232" y="781" type="line"/>
      <point x="891" y="781" type="line"/>
      <point x="891" y="627" type="line"/>
      <point x="1232" y="627" type="line"/>
      <point x="1232" y="253" type="line"/>
      <point x="891" y="253" type="line"/>
      <point x="891" y="-176" type="line"/>
      <point x="517" y="-176" type="line"/>
      <point x="517" y="253" type="line"/>
    </contour>
  </outline>
</glyph>
<glyph name="clickretroflex" format="2">
  <advance width="1056"/>
  <unicode hex="01C3"/>
  <outline>
    <contour>
      <point x="341" y="704" type="line"/>
      <point x="341" y="1584" type="line"/>
      <point x="715" y="1584" type="line"/>
      <point x="715" y="704" type="line"/>
    </contour>
    <contour>
      <point x="264" y="154" type="line"/>
      <point x="264" y="374" type="line"/>
      <point x="418" y="528" type="line"/>
      <point x="638" y="528" type="line"/>
      <point x="792" y="374" type="line"/>
      <point x="792" y="154" type="line"/>
      <point x="638" y="0" type="line"/>
      <point x="418" y="0" type="line"/>
    </contour>
  </outline>
</glyph>
<glyph name="glottalstop" format="2">
  <advance width="1408"/>
  <unicode hex="0241"/>
  <unicode hex="0242"/>
  <unicode hex="0294"/>
	<anchor x="704" y="1408" name="top"/>
  <outline>
    <contour>
      <point x="176" y="1034" type="line"/>
      <point x="176" y="1188" type="line"/>
      <point x="396" y="1408" type="line"/>
      <point x="1012" y="1408" type="line"/>
      <point x="1232" y="1188" type="line"/>
      <point x="1232" y="550" type="line"/>
      <point x="1012" y="330" type="line"/>
      <point x="814" y="330" type="line"/>
      <point x="814" y="0" type="line"/>
      <point x="440" y="0" type="line"/>
      <point x="440" y="704" type="line"/>
      <point x="858" y="704" type="line"/>
      <point x="858" y="1034" type="line"/>
    </contour>
  </outline>
</glyph>
<glyph name="Ubar" format="2">
  <advance width="1408"/>
  <unicode hex="0244"/>
  <unicode hex="0289"/>
	<anchor x="704" y="1408" name="top"/>
	<anchor x="704" y="0" name="bottom"/>
  <outline>
    <contour>
			<point x="44" y="682" type="line"/>
			<point x="44" y="946" type="line"/>
			<point x="176" y="946" type="line"/>
      <point x="176" y="1408" type="line"/>
      <point x="550" y="1408" type="line"/>
			<point x="550" y="946" type="line"/>
			<point x="858" y="946" type="line"/>
      <point x="858" y="1408" type="line"/>
      <point x="1232" y="1408" type="line"/>
			<point x="1232" y="946" type="line"/>
			<point x="1364" y="946" type="line"/>
			<point x="1364" y="682" type="line"/>
			<point x="1232" y="682" type="line"/>
      <point x="1232" y="220" type="line"/>
      <point x="1012" y="0" type="line"/>
      <point x="396" y="0" type="line"/>
      <point x="176" y="220" type="line"/>
			<point x="176" y="682" type="line"/>
    </contour>
		<contour>
      <point x="550" y="374" type="line"/>
      <point x="858" y="374" type="line"/>
      <point x="858" y="682" type="line"/>
      <point x="550" y="682" type="line"/>
    </contour>
  </outline>
</glyph>
<glyph name="Vturned" format="2">
  <advance width="1408"/>
  <unicode hex="0245"/>
  <unicode hex="028C"/>
	<anchor x="704" y="1408" name="top"/>
  <outline>
    <contour>
      <point x="176" y="0" type="line"/>
      <point x="176" y="572" type="line"/>
      <point x="594" y="1408" type="line"/>
      <point x="814" y="1408" type="line"/>
      <point x="1232" y="572" type="line"/>
      <point x="1232" y="0" type="line"/>
      <point x="858" y="0" type="line"/>
      <point x="858" y="484" type="line"/>
      <point x="704" y="792" type="line"/>
      <point x="550" y="484" type="line"/>
      <point x="550" y="0" type="line"/>
    </contour>
  </outline>
</glyph>
<glyph name="Alphalatin" format="2">
	<advance width="1408"/>
	<unicode hex="0251"/>
	<unicode hex="2C6D"/>
	<anchor x="627" y="1408" name="top"/>
	<outline>
		<contour>
			<point x="176" y="220" type="line"/>
			<point x="176" y="1188" type="line"/>
			<point x="396" y="1408" type="line"/>
			<point x="858" y="1408" type="line"/>
			<point x="968" y="1298" type="line"/>
			<point x="1078" y="1408" type="line"/>
			<point x="1232" y="1408" type="line"/>
			<point x="1232" y="0" type="line"/>
			<point x="1078" y="0" type="line"/>
			<point x="968" y="110" type="line"/>
			<point x="858" y="0" type="line"/>
			<point x="1078" y="0" type="line"/>
			<point x="396" y="0" type="line"/>
		</contour>
		<contour>
			<point x="550" y="374" type="line"/>
			<point x="704" y="374" type="line"/>
			<point x="858" y="528" type="line"/>
			<point x="858" y="880" type="line"/>
			<point x="704" y="1034" type="line"/>
			<point x="550" y="1034" type="line"/>
		</contour>
	</outline>
</glyph>
<glyph name="nhookretroflex" format="2">
  <advance width="1408"/>
  <unicode hex="0273"/>
	<anchor x="704" y="1408" name="top"/>
	<anchor x="704" y="-528" name="bottom"/>
  <outline>
    <contour>
      <point x="176" y="0" type="line"/>
      <point x="176" y="1408" type="line"/>
      <point x="550" y="1408" type="line"/>
      <point x="550" y="1254" type="line"/>
      <point x="704" y="1408" type="line"/>
      <point x="1012" y="1408" type="line"/>
      <point x="1232" y="1188" type="line"/>
      <point x="1232" y="-154" type="line"/>
      <point x="1386" y="-154" type="line"/>
      <point x="1386" y="-528" type="line"/>
      <point x="1078" y="-528" type="line"/>
      <point x="858" y="-308" type="line"/>
      <point x="858" y="1034" type="line"/>
      <point x="550" y="726" type="line"/>
      <point x="550" y="0" type="line"/>
    </contour>
  </outline>
</glyph>
<glyph name="bilabialclick" format="2">
  <advance width="1760"/>
  <unicode hex="0298"/>
	<anchor x="880" y="1408" name="top"/>
  <outline>
    <contour>
      <point x="176" y="308" type="line"/>
      <point x="176" y="1100" type="line"/>
      <point x="484" y="1408" type="line"/>
      <point x="1276" y="1408" type="line"/>
      <point x="1584" y="1100" type="line"/>
      <point x="1584" y="308" type="line"/>
      <point x="1276" y="0" type="line"/>
      <point x="484" y="0" type="line"/>
    </contour>
    <contour>
      <point x="550" y="462" type="line"/>
      <point x="638" y="374" type="line"/>
      <point x="1122" y="374" type="line"/>
      <point x="1210" y="462" type="line"/>
      <point x="1210" y="946" type="line"/>
      <point x="1122" y="1034" type="line"/>
      <point x="638" y="1034" type="line"/>
      <point x="550" y="946" type="line"/>
    </contour>
    <contour>
      <point x="693" y="517" type="line"/>
      <point x="1067" y="517" type="line"/>
      <point x="1067" y="891" type="line"/>
      <point x="693" y="891" type="line"/>
    </contour>
  </outline>
</glyph>
<glyph name="apostrophemod" format="2">
  <advance width="704"/>
  <unicode hex="02BC"/>
  <outline>
    <contour>
      <point x="165" y="847" type="line"/>
      <point x="165" y="1408" type="line"/>
      <point x="539" y="1408" type="line"/>
      <point x="539" y="1034" type="line"/>
    </contour>
  </outline>
</glyph>
<glyph name="macronlowmod" format="2">
  <advance width="1408"/>
  <unicode hex="02CD"/>
  <outline>
    <contour>
      <point x="198" y="-264" type="line"/>
      <point x="198" y="0" type="line"/>
      <point x="1210" y="0" type="line"/>
      <point x="1210" y="-264" type="line"/>
    </contour>
  </outline>
</glyph>
<glyph name="breve" format="2">
  <advance width="1408"/>
  <unicode hex="02D8"/>
  <outline>
    <contour>
      <point x="330" y="1188" type="line"/>
      <point x="330" y="1408" type="line"/>
      <point x="594" y="1408" type="line"/>
      <point x="594" y="1298" type="line"/>
      <point x="814" y="1298" type="line"/>
      <point x="814" y="1408" type="line"/>
      <point x="1078" y="1408" type="line"/>
      <point x="1078" y="1188" type="line"/>
      <point x="924" y="1034" type="line"/>
      <point x="484" y="1034" type="line"/>
    </contour>
  </outline>
</glyph>
<glyph name="dotaccent" format="2">
  <advance width="1408"/>
  <unicode hex="02D9"/>
  <outline>
    <contour>
      <point x="517" y="1034" type="line"/>
      <point x="517" y="1408" type="line"/>
      <point x="891" y="1408" type="line"/>
      <point x="891" y="1034" type="line"/>
    </contour>
  </outline>
</glyph>
<glyph name="ring" format="2">
  <advance width="1408"/>
  <unicode hex="02DA"/>
  <outline>
    <contour>
      <point x="572" y="1034" type="line"/>
      <point x="385" y="1221" type="line"/>
      <point x="385" y="1485" type="line"/>
      <point x="572" y="1672" type="line"/>
      <point x="836" y="1672" type="line"/>
      <point x="1023" y="1485" type="line"/>
      <point x="1023" y="1221" type="line"/>
      <point x="836" y="1034" type="line"/>
    </contour>
    <contour>
      <point x="649" y="1331" type="line"/>
      <point x="682" y="1298" type="line"/>
      <point x="726" y="1298" type="line"/>
      <point x="759" y="1331" type="line"/>
      <point x="759" y="1375" type="line"/>
      <point x="726" y="1408" type="line"/>
      <point x="682" y="1408" type="line"/>
      <point x="649" y="1375" type="line"/>
    </contour>
  </outline>
</glyph>
<glyph name="ogonek" format="2">
  <advance width="1408"/>
  <unicode hex="02DB"/>
  <outline>
    <contour>
      <point x="858" y="-220" type="line"/>
      <point x="858" y="-55" type="line"/>
      <point x="913" y="0" type="line"/>
      <point x="1232" y="0" type="line"/>
      <point x="1122" y="-110" type="line"/>
      <point x="1232" y="-110" type="line"/>
      <point x="1232" y="-374" type="line"/>
      <point x="1012" y="-374" type="line"/>
    </contour>
  </outline>
</glyph>
<glyph name="hungarumlaut" format="2">
  <advance width="1408"/>
  <unicode hex="02DD"/>
  <outline>
    <contour>
      <point x="77" y="1034" type="line"/>
      <point x="451" y="1408" type="line"/>
      <point x="825" y="1408" type="line"/>
      <point x="451" y="1034" type="line"/>
    </contour>
    <contour>
      <point x="583" y="1034" type="line"/>
      <point x="957" y="1408" type="line"/>
      <point x="1331" y="1408" type="line"/>
      <point x="957" y="1034" type="line"/>
    </contour>
  </outline>
</glyph>
<glyph name="dotbelowcmb" format="2">
  <advance width="1408"/>
  <unicode hex="0323"/>
	<anchor x="704" y="0" name="bottom.mark"/>
	<anchor x="704" y="-506" name="bottom"/>
  <outline>
    <contour>
      <point x="517" y="-506" type="line"/>
      <point x="517" y="-132" type="line"/>
      <point x="891" y="-132" type="line"/>
      <point x="891" y="-506" type="line"/>
    </contour>
  </outline>
</glyph>
<glyph name="ypogegrammeni" format="2">
  <advance width="704"/>
  <unicode hex="037A"/>
  <outline>
    <contour>
      <point x="176" y="-374" type="line"/>
      <point x="176" y="-154" type="line"/>
      <point x="440" y="-154" type="line"/>
      <point x="440" y="-528" type="line"/>
      <point x="330" y="-528" type="line"/>
    </contour>
  </outline>
</glyph>
<glyph name="tonos" format="2">
  <advance width="704"/>
  <unicode hex="0384"/>
  <outline>
    <contour>
      <point x="220" y="880" type="line"/>
      <point x="220" y="1540" type="line"/>
      <point x="484" y="1540" type="line"/>
      <point x="484" y="1144" type="line"/>
    </contour>
  </outline>
</glyph>
<glyph name="dialytikatonos" format="2">
  <advance width="1408"/>
  <unicode hex="0385"/>
  <outline>
    <contour>
      <point x="176" y="1034" type="line"/>
      <point x="176" y="1408" type="line"/>
      <point x="550" y="1408" type="line"/>
      <point x="550" y="1034" type="line"/>
    </contour>
    <contour>
      <point x="858" y="1034" type="line"/>
      <point x="858" y="1408" type="line"/>
      <point x="1232" y="1408" type="line"/>
      <point x="1232" y="1034" type="line"/>
    </contour>
    <contour>
      <point x="517" y="1595" type="line"/>
      <point x="858" y="1936" type="line"/>
      <point x="1232" y="1936" type="line"/>
      <point x="704" y="1408" type="line"/>
    </contour>
  </outline>
</glyph>
<glyph name="Beta" format="2">
  <advance width="1408"/>
  <unicode hex="0392"/>
  <unicode hex="03B2"/>
	<anchor x="704" y="1408" name="top"/>
  <outline>
    <contour>
      <point x="176" y="0" type="line"/>
      <point x="176" y="1408" type="line"/>
      <point x="1012" y="1408" type="line"/>
      <point x="1232" y="1188" type="line"/>
      <point x="1232" y="924" type="line"/>
      <point x="1111" y="803" type="line"/>
      <point x="1232" y="682" type="line"/>
      <point x="1232" y="220" type="line"/>
      <point x="1012" y="0" type="line"/>
    </contour>
    <contour>
      <point x="550" y="374" type="line"/>
      <point x="858" y="374" type="line"/>
      <point x="858" y="528" type="line"/>
      <point x="550" y="528" type="line"/>
    </contour>
    <contour>
      <point x="550" y="770" type="line"/>
      <point x="814" y="1034" type="line"/>
      <point x="550" y="1034" type="line"/>
    </contour>
  </outline>
</glyph>
<glyph name="Deltagreek" format="2">
  <advance width="1408"/>
  <unicode hex="0394"/>
  <unicode hex="03B4"/>
	<anchor x="704" y="1408" name="top"/>
  <outline>
    <contour>
      <point x="176" y="0" type="line"/>
      <point x="176" y="462" type="line"/>
      <point x="649" y="1408" type="line"/>
      <point x="759" y="1408" type="line"/>
      <point x="1232" y="462" type="line"/>
      <point x="1232" y="0" type="line"/>
    </contour>
    <contour>
      <point x="550" y="374" type="line"/>
      <point x="858" y="374" type="line"/>
      <point x="704" y="682" type="line"/>
    </contour>
  </outline>
</glyph>
<glyph name="Lambda" format="2">
  <advance width="1408"/>
  <unicode hex="039B"/>
  <unicode hex="03BB"/>
	<anchor x="704" y="1408" name="top"/>
	<anchor x="704" y="0" name="bottom"/>
  <outline>
    <contour>
      <point x="176" y="0" type="line"/>
      <point x="176" y="616" type="line"/>
      <point x="495" y="1254" type="line"/>
      <point x="418" y="1408" type="line"/>
      <point x="836" y="1408" type="line"/>
      <point x="1232" y="616" type="line"/>
      <point x="1232" y="0" type="line"/>
      <point x="858" y="0" type="line"/>
      <point x="858" y="528" type="line"/>
      <point x="704" y="836" type="line"/>
      <point x="550" y="528" type="line"/>
      <point x="550" y="0" type="line"/>
    </contour>
  </outline>
</glyph>
<glyph name="Xi" format="2">
  <advance width="1408"/>
  <unicode hex="039E"/>
  <unicode hex="03BE"/>
	<anchor x="704" y="1408" name="top"/>
	<anchor x="704" y="0" name="bottom"/>
  <outline>
    <contour>
      <point x="176" y="1034" type="line"/>
      <point x="176" y="1408" type="line"/>
      <point x="1232" y="1408" type="line"/>
      <point x="1232" y="1034" type="line"/>
    </contour>
    <contour>
      <point x="253" y="517" type="line"/>
      <point x="253" y="891" type="line"/>
      <point x="1155" y="891" type="line"/>
      <point x="1155" y="517" type="line"/>
    </contour>
    <contour>
      <point x="176" y="0" type="line"/>
      <point x="176" y="374" type="line"/>
      <point x="1232" y="374" type="line"/>
      <point x="1232" y="0" type="line"/>
    </contour>
  </outline>
</glyph>
<glyph name="Sigma" format="2">
  <advance width="1408"/>
  <unicode hex="03A3"/>
  <unicode hex="03C2"/>
  <unicode hex="03C3"/>
	<anchor x="704" y="1408" name="top"/>
  <outline>
    <contour>
      <point x="176" y="0" type="line"/>
      <point x="176" y="374" type="line"/>
      <point x="506" y="704" type="line"/>
      <point x="176" y="1034" type="line"/>
      <point x="176" y="1408" type="line"/>
      <point x="1232" y="1408" type="line"/>
      <point x="1232" y="1034" type="line"/>
      <point x="704" y="1034" type="line"/>
      <point x="1034" y="704" type="line"/>
      <point x="704" y="374" type="line"/>
      <point x="1232" y="374" type="line"/>
      <point x="1232" y="0" type="line"/>
    </contour>
  </outline>
</glyph>
<glyph name="Phi" format="2">
  <advance width="1408"/>
  <unicode hex="03A6"/>
  <unicode hex="03C6"/>
	<anchor x="704" y="1408" name="top"/>
  <outline>
    <contour>
      <point x="176" y="440" type="line"/>
      <point x="176" y="968" type="line"/>
      <point x="396" y="1188" type="line"/>
      <point x="517" y="1188" type="line"/>
      <point x="517" y="1408" type="line"/>
      <point x="891" y="1408" type="line"/>
      <point x="891" y="1188" type="line"/>
      <point x="1012" y="1188" type="line"/>
      <point x="1232" y="968" type="line"/>
      <point x="1232" y="440" type="line"/>
      <point x="1012" y="220" type="line"/>
      <point x="891" y="220" type="line"/>
      <point x="891" y="0" type="line"/>
      <point x="517" y="0" type="line"/>
      <point x="517" y="220" type="line"/>
      <point x="396" y="220" type="line"/>
    </contour>
    <contour>
      <point x="550" y="594" type="line"/>
      <point x="858" y="594" type="line"/>
      <point x="858" y="814" type="line"/>
      <point x="550" y="814" type="line"/>
    </contour>
  </outline>
</glyph>
<glyph name="Psi" format="2">
  <advance width="1760"/>
  <unicode hex="03A8"/>
  <unicode hex="03C8"/>
	<anchor x="880" y="1408" name="top"/>
  <outline>
    <contour>
      <point x="176" y="550" type="line"/>
      <point x="176" y="1408" type="line"/>
      <point x="550" y="1408" type="line"/>
      <point x="550" y="704" type="line"/>
      <point x="693" y="704" type="line"/>
      <point x="693" y="1408" type="line"/>
      <point x="1067" y="1408" type="line"/>
      <point x="1067" y="704" type="line"/>
      <point x="1210" y="704" type="line"/>
      <point x="1210" y="1408" type="line"/>
      <point x="1584" y="1408" type="line"/>
      <point x="1584" y="550" type="line"/>
      <point x="1364" y="330" type="line"/>
      <point x="1067" y="330" type="line"/>
      <point x="1067" y="0" type="line"/>
      <point x="693" y="0" type="line"/>
      <point x="693" y="330" type="line"/>
      <point x="396" y="330" type="line"/>
    </contour>
  </outline>
</glyph>
<glyph name="Omegagreek" format="2">
  <advance width="1408"/>
  <unicode hex="03A9"/>
  <unicode hex="03C9"/>
	<anchor x="704" y="1408" name="top"/>
  <outline>
    <contour>
      <point x="176" y="0" type="line"/>
      <point x="176" y="374" type="line"/>
      <point x="374" y="374" type="line"/>
      <point x="176" y="572" type="line"/>
      <point x="176" y="1188" type="line"/>
      <point x="396" y="1408" type="line"/>
      <point x="1012" y="1408" type="line"/>
      <point x="1232" y="1188" type="line"/>
      <point x="1232" y="572" type="line"/>
      <point x="1034" y="374" type="line"/>
      <point x="1232" y="374" type="line"/>
      <point x="1232" y="0" type="line"/>
      <point x="759" y="0" type="line"/>
      <point x="759" y="627" type="line"/>
      <point x="858" y="726" type="line"/>
      <point x="858" y="1034" type="line"/>
      <point x="550" y="1034" type="line"/>
      <point x="550" y="726" type="line"/>
      <point x="649" y="627" type="line"/>
      <point x="649" y="0" type="line"/>
    </contour>
  </outline>
</glyph>
<glyph name="Djecyrillic" format="2">
  <advance width="1408"/>
  <unicode hex="0402"/>
  <unicode hex="0452"/>
	<anchor x="605" y="1408" name="top"/>
	<anchor x="561" y="0" name="bottom"/>
  <outline>
    <contour>
      <point x="176" y="1034" type="line"/>
      <point x="176" y="1408" type="line"/>
      <point x="1045" y="1408" type="line"/>
      <point x="1045" y="1034" type="line"/>
      <point x="748" y="1034" type="line"/>
      <point x="748" y="880" type="line"/>
      <point x="1012" y="880" type="line"/>
      <point x="1232" y="660" type="line"/>
      <point x="1232" y="110" type="line"/>
      <point x="1012" y="-110" type="line"/>
      <point x="858" y="-110" type="line"/>
      <point x="858" y="506" type="line"/>
      <point x="748" y="506" type="line"/>
      <point x="748" y="0" type="line"/>
      <point x="374" y="0" type="line"/>
      <point x="374" y="1034" type="line"/>
    </contour>
  </outline>
</glyph>
<glyph name="Dzecyrillic" format="2">
  <advance width="1408"/>
  <unicode hex="0405"/>
  <unicode hex="0455"/>
	<anchor x="704" y="1408" name="top"/>
	<anchor x="704" y="0" name="bottom"/>
  <outline>
    <contour>
      <point x="176" y="220" type="line"/>
      <point x="176" y="374" type="line"/>
      <point x="858" y="374" type="line"/>
      <point x="858" y="517" type="line"/>
      <point x="396" y="517" type="line"/>
      <point x="176" y="737" type="line"/>
      <point x="176" y="1188" type="line"/>
      <point x="396" y="1408" type="line"/>
      <point x="1012" y="1408" type="line"/>
      <point x="1232" y="1188" type="line"/>
      <point x="1232" y="1034" type="line"/>
      <point x="550" y="1034" type="line"/>
      <point x="550" y="891" type="line"/>
      <point x="1012" y="891" type="line"/>
      <point x="1232" y="671" type="line"/>
      <point x="1232" y="220" type="line"/>
      <point x="1012" y="0" type="line"/>
      <point x="396" y="0" type="line"/>
    </contour>
  </outline>
</glyph>
<glyph name="Ljecyrillic" format="2">
  <advance width="1760"/>
  <unicode hex="0409"/>
  <unicode hex="0459"/>
	<anchor x="671" y="1408" name="top"/>
  <outline>
    <contour>
      <point x="176" y="0" type="line"/>
      <point x="176" y="374" type="line"/>
      <point x="242" y="506" type="line"/>
      <point x="242" y="1408" type="line"/>
      <point x="1100" y="1408" type="line"/>
      <point x="1100" y="891" type="line"/>
      <point x="1364" y="891" type="line"/>
      <point x="1584" y="671" type="line"/>
      <point x="1584" y="220" type="line"/>
      <point x="1364" y="0" type="line"/>
      <point x="726" y="0" type="line"/>
      <point x="726" y="1034" type="line"/>
      <point x="616" y="1034" type="line"/>
      <point x="616" y="418" type="line"/>
      <point x="407" y="0" type="line"/>
    </contour>
    <contour>
      <point x="1100" y="374" type="line"/>
      <point x="1210" y="374" type="line"/>
      <point x="1210" y="517" type="line"/>
      <point x="1100" y="517" type="line"/>
    </contour>
  </outline>
</glyph>
<glyph name="Njecyrillic" format="2">
  <advance width="1760"/>
  <unicode hex="040A"/>
  <unicode hex="045A"/>
	<anchor x="627" y="1408" name="top"/>
	<anchor x="880" y="0" name="bottom"/>
  <outline>
    <contour>
      <point x="176" y="0" type="line"/>
      <point x="176" y="1408" type="line"/>
      <point x="550" y="1408" type="line"/>
      <point x="550" y="891" type="line"/>
      <point x="693" y="891" type="line"/>
      <point x="693" y="1408" type="line"/>
      <point x="1067" y="1408" type="line"/>
      <point x="1067" y="891" type="line"/>
      <point x="1364" y="891" type="line"/>
      <point x="1584" y="671" type="line"/>
      <point x="1584" y="220" type="line"/>
      <point x="1364" y="0" type="line"/>
      <point x="693" y="0" type="line"/>
      <point x="693" y="517" type="line"/>
      <point x="550" y="517" type="line"/>
      <point x="550" y="0" type="line"/>
    </contour>
    <contour>
      <point x="1067" y="374" type="line"/>
      <point x="1210" y="374" type="line"/>
      <point x="1210" y="517" type="line"/>
      <point x="1067" y="517" type="line"/>
    </contour>
  </outline>
</glyph>
<glyph name="Dzhecyrillic" format="2">
  <advance width="1408"/>
  <unicode hex="040F"/>
  <unicode hex="045F"/>
	<anchor x="704" y="1408" name="top"/>
  <outline>
    <contour>
      <point x="176" y="0" type="line"/>
      <point x="176" y="1408" type="line"/>
      <point x="550" y="1408" type="line"/>
      <point x="550" y="374" type="line"/>
      <point x="858" y="374" type="line"/>
      <point x="858" y="1408" type="line"/>
      <point x="1232" y="1408" type="line"/>
      <point x="1232" y="0" type="line"/>
      <point x="891" y="0" type="line"/>
      <point x="891" y="-187" type="line"/>
      <point x="517" y="-187" type="line"/>
      <point x="517" y="0" type="line"/>
    </contour>
  </outline>
</glyph>
<glyph name="Becyrillic" format="2">
  <advance width="1408"/>
  <unicode hex="0411"/>
  <unicode hex="0431"/>
	<anchor x="704" y="1408" name="top"/>
  <outline>
    <contour>
      <point x="176" y="0" type="line"/>
      <point x="176" y="1408" type="line"/>
      <point x="1122" y="1408" type="line"/>
      <point x="1122" y="1034" type="line"/>
      <point x="550" y="1034" type="line"/>
      <point x="550" y="891" type="line"/>
      <point x="1012" y="891" type="line"/>
      <point x="1232" y="671" type="line"/>
      <point x="1232" y="220" type="line"/>
      <point x="1012" y="0" type="line"/>
    </contour>
    <contour>
      <point x="550" y="374" type="line"/>
      <point x="858" y="374" type="line"/>
      <point x="858" y="517" type="line"/>
      <point x="550" y="517" type="line"/>
    </contour>
  </outline>
</glyph>
<glyph name="Decyrillic" format="2">
  <advance width="1408"/>
  <unicode hex="0414"/>
  <unicode hex="0434"/>
	<anchor x="968" y="1408" name="top"/>
  <outline>
    <contour>
      <point x="176" y="0" type="line"/>
      <point x="176" y="374" type="line"/>
      <point x="242" y="374" type="line"/>
      <point x="759" y="1408" type="line"/>
      <point x="1177" y="1408" type="line"/>
      <point x="1177" y="374" type="line"/>
      <point x="1232" y="374" type="line"/>
      <point x="1232" y="0" type="line"/>
    </contour>
    <contour>
      <point x="660" y="374" type="line"/>
      <point x="803" y="374" type="line"/>
      <point x="803" y="660" type="line"/>
    </contour>
  </outline>
</glyph>
<glyph name="Zhecyrillic" format="2">
  <advance width="1760"/>
  <unicode hex="0416"/>
  <unicode hex="0436"/>
	<anchor x="880" y="1408" name="top"/>
  <outline>
    <contour>
      <point x="176" y="0" type="line"/>
      <point x="176" y="528" type="line"/>
      <point x="352" y="704" type="line"/>
      <point x="176" y="880" type="line"/>
      <point x="176" y="1408" type="line"/>
      <point x="550" y="1408" type="line"/>
      <point x="550" y="1034" type="line"/>
      <point x="693" y="891" type="line"/>
      <point x="693" y="1408" type="line"/>
      <point x="1067" y="1408" type="line"/>
      <point x="1067" y="891" type="line"/>
      <point x="1210" y="1034" type="line"/>
      <point x="1210" y="1408" type="line"/>
      <point x="1584" y="1408" type="line"/>
      <point x="1584" y="880" type="line"/>
      <point x="1408" y="704" type="line"/>
      <point x="1584" y="528" type="line"/>
      <point x="1584" y="0" type="line"/>
      <point x="1210" y="0" type="line"/>
      <point x="1210" y="374" type="line"/>
      <point x="1067" y="517" type="line"/>
      <point x="1067" y="0" type="line"/>
      <point x="693" y="0" type="line"/>
      <point x="693" y="517" type="line"/>
      <point x="550" y="374" type="line"/>
      <point x="550" y="0" type="line"/>
    </contour>
  </outline>
</glyph>
<glyph name="Zecyrillic" format="2">
  <advance width="1408"/>
  <unicode hex="0417"/>
  <unicode hex="0437"/>
	<anchor x="704" y="1408" name="top"/>
  <outline>
    <contour>
      <point x="176" y="220" type="line"/>
      <point x="176" y="374" type="line"/>
      <point x="858" y="374" type="line"/>
      <point x="858" y="528" type="line"/>
      <point x="517" y="528" type="line"/>
      <point x="517" y="902" type="line"/>
      <point x="726" y="902" type="line"/>
      <point x="858" y="1034" type="line"/>
      <point x="176" y="1034" type="line"/>
      <point x="176" y="1408" type="line"/>
      <point x="1012" y="1408" type="line"/>
      <point x="1232" y="1188" type="line"/>
      <point x="1232" y="880" type="line"/>
      <point x="1133" y="781" type="line"/>
      <point x="1232" y="682" type="line"/>
      <point x="1232" y="220" type="line"/>
      <point x="1012" y="0" type="line"/>
      <point x="396" y="0" type="line"/>
    </contour>
  </outline>
</glyph>
<glyph name="Elcyrillic" format="2">
  <advance width="1408"/>
  <unicode hex="041B"/>
  <unicode hex="043B"/>
	<anchor x="792" y="1408" name="top"/>
	<anchor x="704" y="0" name="bottom"/>
  <outline>
    <contour>
      <point x="176" y="0" type="line"/>
      <point x="176" y="374" type="line"/>
      <point x="352" y="726" type="line"/>
      <point x="352" y="1408" type="line"/>
      <point x="1232" y="1408" type="line"/>
      <point x="1232" y="0" type="line"/>
      <point x="858" y="0" type="line"/>
      <point x="858" y="1034" type="line"/>
      <point x="726" y="1034" type="line"/>
      <point x="726" y="638" type="line"/>
      <point x="407" y="0" type="line"/>
    </contour>
  </outline>
</glyph>
<glyph name="Emcyrillic" format="2">
  <advance width="1760"/>
  <unicode hex="041C"/>
  <unicode hex="043C"/>
	<anchor x="880" y="1408" name="top"/>
  <outline>
    <contour>
      <point x="176" y="0" type="line"/>
      <point x="176" y="1408" type="line"/>
      <point x="594" y="1408" type="line"/>
      <point x="880" y="836" type="line"/>
      <point x="1166" y="1408" type="line"/>
      <point x="1584" y="1408" type="line"/>
      <point x="1584" y="0" type="line"/>
      <point x="1210" y="0" type="line"/>
      <point x="1210" y="660" type="line"/>
      <point x="880" y="0" type="line"/>
      <point x="550" y="660" type="line"/>
      <point x="550" y="0" type="line"/>
    </contour>
  </outline>
</glyph>
<glyph name="Encyrillic" format="2">
  <advance width="1408"/>
  <unicode hex="041D"/>
  <unicode hex="043D"/>
	<anchor x="704" y="1408" name="top"/>
  <outline>
    <contour>
      <point x="176" y="0" type="line"/>
      <point x="176" y="1408" type="line"/>
      <point x="550" y="1408" type="line"/>
      <point x="550" y="891" type="line"/>
      <point x="858" y="891" type="line"/>
      <point x="858" y="1408" type="line"/>
      <point x="1232" y="1408" type="line"/>
      <point x="1232" y="0" type="line"/>
      <point x="858" y="0" type="line"/>
      <point x="858" y="517" type="line"/>
      <point x="737" y="517" type="line"/>
      <point x="550" y="704" type="line"/>
      <point x="550" y="0" type="line"/>
    </contour>
  </outline>
</glyph>
<glyph name="Ucyrillic" format="2">
  <advance width="1408"/>
  <unicode hex="0423"/>
  <unicode hex="0443"/>
	<anchor x="704" y="1408" name="top"/>
  <outline>
    <contour>
      <point x="176" y="0" type="line"/>
      <point x="176" y="374" type="line"/>
      <point x="440" y="374" type="line"/>
      <point x="176" y="638" type="line"/>
      <point x="176" y="1408" type="line"/>
      <point x="550" y="1408" type="line"/>
      <point x="550" y="792" type="line"/>
      <point x="704" y="638" type="line"/>
      <point x="858" y="792" type="line"/>
      <point x="858" y="1408" type="line"/>
      <point x="1232" y="1408" type="line"/>
      <point x="1232" y="638" type="line"/>
      <point x="594" y="0" type="line"/>
    </contour>
  </outline>
</glyph>
<glyph name="Efcyrillic" format="2">
  <advance width="1760"/>
  <unicode hex="0424"/>
  <unicode hex="0444"/>
	<anchor x="880" y="1408" name="top"/>
  <outline>
    <contour>
      <point x="176" y="220" type="line"/>
      <point x="176" y="1133" type="line"/>
      <point x="396" y="1353" type="line"/>
      <point x="693" y="1353" type="line"/>
      <point x="693" y="1540" type="line"/>
      <point x="1067" y="1540" type="line"/>
      <point x="1067" y="1353" type="line"/>
      <point x="1364" y="1353" type="line"/>
      <point x="1584" y="1133" type="line"/>
      <point x="1584" y="220" type="line"/>
      <point x="1364" y="0" type="line"/>
      <point x="1067" y="0" type="line"/>
      <point x="1067" y="-187" type="line"/>
      <point x="693" y="-187" type="line"/>
      <point x="693" y="0" type="line"/>
      <point x="396" y="0" type="line"/>
    </contour>
    <contour>
      <point x="550" y="374" type="line"/>
      <point x="693" y="374" type="line"/>
      <point x="693" y="979" type="line"/>
      <point x="550" y="979" type="line"/>
    </contour>
    <contour>
      <point x="1067" y="374" type="line"/>
      <point x="1210" y="374" type="line"/>
      <point x="1210" y="979" type="line"/>
      <point x="1067" y="979" type="line"/>
    </contour>
  </outline>
</glyph>
<glyph name="Khacyrillic" format="2">
  <advance width="1408"/>
  <unicode hex="0425"/>
  <unicode hex="0445"/>
	<anchor x="704" y="1408" name="top"/>
	<anchor x="704" y="0" name="bottom"/>
  <outline>
    <contour>
      <point x="176" y="0" type="line"/>
      <point x="176" y="66" type="line"/>
      <point x="495" y="704" type="line"/>
      <point x="330" y="1034" type="line"/>
      <point x="176" y="1034" type="line"/>
      <point x="176" y="1408" type="line"/>
      <point x="561" y="1408" type="line"/>
      <point x="704" y="1122" type="line"/>
      <point x="847" y="1408" type="line"/>
      <point x="1232" y="1408" type="line"/>
      <point x="1232" y="1342" type="line"/>
      <point x="913" y="704" type="line"/>
      <point x="1078" y="374" type="line"/>
      <point x="1232" y="374" type="line"/>
      <point x="1232" y="0" type="line"/>
      <point x="847" y="0" type="line"/>
      <point x="704" y="286" type="line"/>
      <point x="561" y="0" type="line"/>
    </contour>
  </outline>
</glyph>
<glyph name="Tsecyrillic" format="2">
  <advance width="1408"/>
  <unicode hex="0426"/>
  <unicode hex="0446"/>
	<anchor x="671" y="1408" name="top"/>
  <outline>
    <contour>
      <point x="176" y="0" type="line"/>
      <point x="176" y="1408" type="line"/>
      <point x="550" y="1408" type="line"/>
      <point x="550" y="374" type="line"/>
      <point x="792" y="374" type="line"/>
      <point x="792" y="1408" type="line"/>
      <point x="1166" y="1408" type="line"/>
      <point x="1166" y="374" type="line"/>
      <point x="1232" y="374" type="line"/>
      <point x="1232" y="-187" type="line"/>
      <point x="858" y="-187" type="line"/>
      <point x="858" y="0" type="line"/>
    </contour>
  </outline>
</glyph>
<glyph name="Shacyrillic" format="2">
  <advance width="1760"/>
  <unicode hex="0428"/>
  <unicode hex="0448"/>
	<anchor x="880" y="1408" name="top"/>
	<anchor x="880" y="0" name="bottom"/>
  <outline>
    <contour>
      <point x="176" y="0" type="line"/>
      <point x="176" y="1408" type="line"/>
      <point x="550" y="1408" type="line"/>
      <point x="550" y="374" type="line"/>
      <point x="693" y="374" type="line"/>
      <point x="693" y="1408" type="line"/>
      <point x="1067" y="1408" type="line"/>
      <point x="1067" y="374" type="line"/>
      <point x="1210" y="374" type="line"/>
      <point x="1210" y="1408" type="line"/>
      <point x="1584" y="1408" type="line"/>
      <point x="1584" y="0" type="line"/>
    </contour>
  </outline>
</glyph>
<glyph name="Shchacyrillic" format="2">
  <advance width="1760"/>
  <unicode hex="0429"/>
  <unicode hex="0449"/>
	<anchor x="847" y="1408" name="top"/>
	<anchor x="704" y="-187" name="bottom"/>
  <outline>
    <contour>
      <point x="176" y="0" type="line"/>
      <point x="176" y="1408" type="line"/>
      <point x="550" y="1408" type="line"/>
      <point x="550" y="374" type="line"/>
      <point x="660" y="374" type="line"/>
      <point x="660" y="1408" type="line"/>
      <point x="1034" y="1408" type="line"/>
      <point x="1034" y="374" type="line"/>
      <point x="1144" y="374" type="line"/>
      <point x="1144" y="1408" type="line"/>
      <point x="1518" y="1408" type="line"/>
      <point x="1518" y="528" type="line"/>
      <point x="1364" y="374" type="line"/>
      <point x="1584" y="374" type="line"/>
      <point x="1584" y="-187" type="line"/>
      <point x="1210" y="-187" type="line"/>
      <point x="1210" y="0" type="line"/>
    </contour>
  </outline>
</glyph>
<glyph name="Hardsigncyrillic" format="2">
  <advance width="1408"/>
  <unicode hex="042A"/>
  <unicode hex="044A"/>
	<anchor x="495" y="1408" name="top"/>
	<anchor x="660" y="0" name="bottom"/>
  <outline>
    <contour>
      <point x="176" y="1034" type="line"/>
      <point x="176" y="1408" type="line"/>
      <point x="682" y="1408" type="line"/>
      <point x="682" y="924" type="line"/>
      <point x="1012" y="924" type="line"/>
      <point x="1232" y="704" type="line"/>
      <point x="1232" y="220" type="line"/>
      <point x="1012" y="0" type="line"/>
      <point x="308" y="0" type="line"/>
      <point x="308" y="1034" type="line"/>
    </contour>
    <contour>
      <point x="682" y="374" type="line"/>
      <point x="858" y="374" type="line"/>
      <point x="858" y="550" type="line"/>
      <point x="682" y="550" type="line"/>
    </contour>
  </outline>
</glyph>
<glyph name="Yericyrillic" format="2">
  <advance width="1760"/>
  <unicode hex="042B"/>
  <unicode hex="044B"/>
	<anchor x="880" y="1408" name="top"/>
  <outline>
    <contour>
      <point x="176" y="0" type="line"/>
      <point x="176" y="1408" type="line"/>
      <point x="550" y="1408" type="line"/>
      <point x="550" y="902" type="line"/>
      <point x="858" y="902" type="line"/>
      <point x="1078" y="682" type="line"/>
      <point x="1078" y="220" type="line"/>
      <point x="858" y="0" type="line"/>
    </contour>
    <contour>
      <point x="550" y="374" type="line"/>
      <point x="704" y="374" type="line"/>
      <point x="704" y="528" type="line"/>
      <point x="550" y="528" type="line"/>
    </contour>
    <contour>
      <point x="1210" y="0" type="line"/>
      <point x="1210" y="1408" type="line"/>
      <point x="1584" y="1408" type="line"/>
      <point x="1584" y="0" type="line"/>
    </contour>
  </outline>
</glyph>
<glyph name="Softsigncyrillic" format="2">
  <advance width="1408"/>
  <unicode hex="042C"/>
  <unicode hex="044C"/>
	<anchor x="594" y="1408" name="top"/>
	<anchor x="594" y="0" name="bottom"/>
  <outline>
    <contour>
      <point x="176" y="0" type="line"/>
      <point x="176" y="1408" type="line"/>
      <point x="550" y="1408" type="line"/>
      <point x="550" y="1056" type="line"/>
      <point x="1012" y="1056" type="line"/>
      <point x="1232" y="836" type="line"/>
      <point x="1232" y="220" type="line"/>
      <point x="1012" y="0" type="line"/>
    </contour>
    <contour>
      <point x="550" y="374" type="line"/>
      <point x="858" y="374" type="line"/>
      <point x="858" y="682" type="line"/>
      <point x="550" y="682" type="line"/>
    </contour>
  </outline>
</glyph>
<glyph name="IUcyrillic" format="2">
  <advance width="1760"/>
  <unicode hex="042E"/>
  <unicode hex="044E"/>
	<anchor x="770" y="1408" name="top"/>
	<anchor x="770" y="0" name="bottom"/>
  <outline>
    <contour>
      <point x="176" y="0" type="line"/>
      <point x="176" y="1408" type="line"/>
      <point x="550" y="1408" type="line"/>
      <point x="550" y="891" type="line"/>
      <point x="682" y="891" type="line"/>
      <point x="682" y="1188" type="line"/>
      <point x="902" y="1408" type="line"/>
      <point x="1364" y="1408" type="line"/>
      <point x="1584" y="1188" type="line"/>
      <point x="1584" y="220" type="line"/>
      <point x="1364" y="0" type="line"/>
      <point x="902" y="0" type="line"/>
      <point x="682" y="220" type="line"/>
      <point x="682" y="517" type="line"/>
      <point x="550" y="517" type="line"/>
      <point x="550" y="0" type="line"/>
    </contour>
    <contour>
      <point x="1056" y="374" type="line"/>
      <point x="1210" y="374" type="line"/>
      <point x="1210" y="1034" type="line"/>
      <point x="1056" y="1034" type="line"/>
    </contour>
  </outline>
</glyph>
<glyph name="IAcyrillic" format="2">
  <advance width="1408"/>
  <unicode hex="042F"/>
  <unicode hex="044F"/>
	<anchor x="814" y="1408" name="top"/>
	<anchor x="704" y="0" name="bottom"/>
  <outline>
    <contour>
      <point x="176" y="0" type="line"/>
      <point x="176" y="264" type="line"/>
      <point x="396" y="484" type="line"/>
      <point x="242" y="638" type="line"/>
      <point x="242" y="1188" type="line"/>
      <point x="462" y="1408" type="line"/>
      <point x="1232" y="1408" type="line"/>
      <point x="1232" y="0" type="line"/>
      <point x="858" y="0" type="line"/>
      <point x="858" y="418" type="line"/>
      <point x="440" y="0" type="line"/>
    </contour>
    <contour>
      <point x="616" y="792" type="line"/>
      <point x="858" y="792" type="line"/>
      <point x="858" y="1034" type="line"/>
      <point x="616" y="1034" type="line"/>
    </contour>
  </outline>
</glyph>
<glyph name="Gheupturncyrillic" format="2">
  <advance width="1408"/>
  <unicode hex="0490"/>
  <unicode hex="0491"/>
	<anchor x="704" y="1408" name="top"/>
	<anchor x="550" y="0" name="bottom"/>
  <outline>
    <contour>
      <point x="176" y="0" type="line"/>
      <point x="176" y="1408" type="line"/>
      <point x="858" y="1408" type="line"/>
      <point x="858" y="1595" type="line"/>
      <point x="1232" y="1595" type="line"/>
      <point x="1232" y="1034" type="line"/>
      <point x="550" y="1034" type="line"/>
      <point x="550" y="0" type="line"/>
    </contour>
  </outline>
</glyph>
<glyph name="commaarabic" format="2">
  <advance width="704"/>
  <unicode hex="060C"/>
  <outline>
    <contour>
      <point x="154" y="0" type="line"/>
      <point x="154" y="187" type="line"/>
      <point x="528" y="561" type="line"/>
      <point x="528" y="0" type="line"/>
    </contour>
  </outline>
</glyph>
<glyph name="semicolonarabic" format="2">
  <advance width="704"/>
  <unicode hex="061B"/>
  <outline>
    <contour>
      <point x="154" y="660" type="line"/>
      <point x="154" y="847" type="line"/>
      <point x="528" y="1221" type="line"/>
      <point x="528" y="660" type="line"/>
    </contour>
    <contour>
      <point x="154" y="0" type="line"/>
      <point x="154" y="374" type="line"/>
      <point x="528" y="374" type="line"/>
      <point x="528" y="0" type="line"/>
    </contour>
  </outline>
</glyph>
<glyph name="questionarabic" format="2">
  <advance width="1408"/>
  <unicode hex="061F"/>
  <outline>
    <contour>
      <point x="176" y="814" type="line"/>
      <point x="176" y="1188" type="line"/>
      <point x="396" y="1408" type="line"/>
      <point x="1012" y="1408" type="line"/>
      <point x="1232" y="1188" type="line"/>
      <point x="1232" y="957" type="line"/>
      <point x="858" y="957" type="line"/>
      <point x="858" y="1034" type="line"/>
      <point x="550" y="1034" type="line"/>
      <point x="550" y="968" type="line"/>
      <point x="671" y="968" type="line"/>
      <point x="891" y="748" type="line"/>
      <point x="891" y="517" type="line"/>
      <point x="517" y="517" type="line"/>
      <point x="517" y="594" type="line"/>
      <point x="396" y="594" type="line"/>
    </contour>
    <contour>
      <point x="517" y="0" type="line"/>
      <point x="517" y="374" type="line"/>
      <point x="891" y="374" type="line"/>
      <point x="891" y="0" type="line"/>
    </contour>
  </outline>
</glyph>
<glyph name="onenko" format="2">
  <advance width="1408"/>
  <unicode hex="07C1"/>
  <outline>
    <contour>
      <point x="176" y="0" type="line"/>
      <point x="176" y="374" type="line"/>
      <point x="517" y="374" type="line"/>
      <point x="517" y="1408" type="line"/>
      <point x="781" y="1408" type="line"/>
      <point x="1232" y="957" type="line"/>
      <point x="968" y="693" type="line"/>
      <point x="891" y="770" type="line"/>
      <point x="891" y="374" type="line"/>
      <point x="1232" y="374" type="line"/>
      <point x="1232" y="0" type="line"/>
    </contour>
  </outline>
</glyph>
<glyph name="twonko" format="2">
  <advance width="1408"/>
  <unicode hex="07C2"/>
  <anchor name="top" x="704" y="1408"/>
  <anchor name="bottom" x="363" y="0"/>
  <outline>
    <contour>
      <point x="176" y="0" type="line"/>
      <point x="176" y="1408" type="line"/>
      <point x="550" y="1408" type="line"/>
      <point x="550" y="1100" type="line"/>
      <point x="858" y="1100" type="line"/>
      <point x="858" y="1408" type="line"/>
      <point x="1232" y="1408" type="line"/>
      <point x="1232" y="726" type="line"/>
      <point x="550" y="726" type="line"/>
      <point x="550" y="0" type="line"/>
    </contour>
  </outline>
</glyph>
<glyph name="threenko" format="2">
  <advance width="1408"/>
  <unicode hex="07C3"/>
  <anchor name="top" x="1045" y="1408"/>
  <anchor name="bottom" x="704" y="0"/>
  <outline>
    <contour>
      <point x="176" y="0" type="line"/>
      <point x="176" y="374" type="line"/>
      <point x="858" y="374" type="line"/>
      <point x="858" y="660" type="line"/>
      <point x="176" y="660" type="line"/>
      <point x="176" y="1034" type="line"/>
      <point x="858" y="1034" type="line"/>
      <point x="858" y="1408" type="line"/>
      <point x="1232" y="1408" type="line"/>
      <point x="1232" y="0" type="line"/>
    </contour>
  </outline>
</glyph>
<glyph name="fournko" format="2">
  <advance width="1408"/>
  <unicode hex="07C4"/>
  <outline>
    <contour>
      <point x="176" y="0" type="line"/>
      <point x="176" y="1034" type="line"/>
      <point x="858" y="1034" type="line"/>
      <point x="858" y="1408" type="line"/>
      <point x="1232" y="1408" type="line"/>
      <point x="1232" y="660" type="line"/>
      <point x="550" y="660" type="line"/>
      <point x="550" y="374" type="line"/>
      <point x="1232" y="374" type="line"/>
      <point x="1232" y="0" type="line"/>
    </contour>
  </outline>
</glyph>
<glyph name="fivenko" format="2">
  <advance width="1408"/>
  <unicode hex="07C5"/>
  <anchor name="top" x="363" y="1408"/>
  <anchor name="bottom" x="363" y="0"/>
  <outline>
    <contour>
      <point x="176" y="0" type="line"/>
      <point x="176" y="1408" type="line"/>
      <point x="550" y="1408" type="line"/>
      <point x="550" y="792" type="line"/>
      <point x="1232" y="792" type="line"/>
      <point x="1232" y="418" type="line"/>
      <point x="550" y="418" type="line"/>
      <point x="550" y="0" type="line"/>
    </contour>
  </outline>
</glyph>
<glyph name="sevennko" format="2">
  <advance width="1408"/>
  <unicode hex="07C7"/>
  <outline>
    <contour>
      <point x="176" y="0" type="line"/>
      <point x="176" y="1408" type="line"/>
      <point x="550" y="1408" type="line"/>
      <point x="550" y="528" type="line"/>
      <point x="1232" y="869" type="line"/>
      <point x="1232" y="451" type="line"/>
      <point x="330" y="0" type="line"/>
    </contour>
  </outline>
</glyph>
<glyph name="eightnko" format="2">
  <advance width="1408"/>
  <unicode hex="07C8"/>
  <anchor name="top" x="363" y="1408"/>
  <anchor name="bottom" x="363" y="0"/>
  <outline>
    <contour>
      <point x="176" y="0" type="line"/>
      <point x="176" y="1408" type="line"/>
      <point x="550" y="1408" type="line"/>
      <point x="550" y="1056" type="line"/>
      <point x="1232" y="1056" type="line"/>
      <point x="1232" y="528" type="line"/>
      <point x="704" y="0" type="line"/>
    </contour>
    <contour>
      <point x="550" y="374" type="line"/>
      <point x="858" y="682" type="line"/>
      <point x="550" y="682" type="line"/>
    </contour>
  </outline>
</glyph>
<glyph name="ninenko" format="2">
  <advance width="1408"/>
  <unicode hex="07C9"/>
  <outline>
    <contour>
      <point x="176" y="649" type="line"/>
      <point x="176" y="1188" type="line"/>
      <point x="396" y="1408" type="line"/>
      <point x="1012" y="1408" type="line"/>
      <point x="1232" y="1188" type="line"/>
      <point x="1232" y="649" type="line"/>
      <point x="1012" y="429" type="line"/>
      <point x="891" y="429" type="line"/>
      <point x="891" y="0" type="line"/>
      <point x="517" y="0" type="line"/>
      <point x="517" y="429" type="line"/>
      <point x="396" y="429" type="line"/>
    </contour>
    <contour>
      <point x="550" y="803" type="line"/>
      <point x="858" y="803" type="line"/>
      <point x="858" y="1034" type="line"/>
      <point x="550" y="1034" type="line"/>
    </contour>
  </outline>
</glyph>
<glyph name="enko" format="2">
  <advance width="1408"/>
  <unicode hex="07CD"/>
  <anchor x="704" y="1056" name="top"/>
  <anchor x="704" y="0" name="bottom"/>
  <outline>
    <contour>
      <point x="176" y="0" type="line"/>
      <point x="176" y="374" type="line"/>
      <point x="517" y="1056" type="line"/>
      <point x="891" y="1056" type="line"/>
      <point x="1232" y="374" type="line"/>
      <point x="1232" y="0" type="line"/>
      <point x="1001" y="0" type="line"/>
      <point x="704" y="594" type="line"/>
      <point x="407" y="0" type="line"/>
    </contour>
  </outline>
</glyph>
<glyph name="dagbasinnanko" format="2">
  <advance width="1408"/>
  <unicode hex="07D1"/>
  <anchor name="top" x="704" y="1408"/>
  <anchor name="bottom" x="704" y="0"/>
  <outline>
    <contour>
      <point x="517" y="660" type="line"/>
      <point x="517" y="1034" type="line"/>
      <point x="891" y="1408" type="line"/>
      <point x="891" y="660" type="line"/>
    </contour>
    <contour>
      <point x="176" y="0" type="line"/>
      <point x="176" y="374" type="line"/>
      <point x="1232" y="374" type="line"/>
      <point x="1232" y="0" type="line"/>
    </contour>
  </outline>
</glyph>
<glyph name="tanko" format="2">
  <advance width="1408"/>
  <unicode hex="07D5"/>
  <anchor x="704" y="1056" name="top"/>
  <anchor x="704" y="0" name="bottom"/>
  <outline>
    <contour>
      <point x="176" y="0" type="line"/>
      <point x="176" y="1408" type="line"/>
      <point x="550" y="1408" type="line"/>
      <point x="550" y="1056" type="line"/>
      <point x="1012" y="1056" type="line"/>
      <point x="1232" y="836" type="line"/>
      <point x="1232" y="220" type="line"/>
      <point x="1012" y="0" type="line"/>
    </contour>
    <contour>
      <point x="550" y="374" type="line"/>
      <point x="858" y="374" type="line"/>
      <point x="858" y="682" type="line"/>
      <point x="550" y="682" type="line"/>
    </contour>
  </outline>
</glyph>
<glyph name="chanko" format="2">
  <advance width="1056"/>
  <unicode hex="07D7"/>
  <anchor x="506" y="1408" name="top"/>
  <anchor x="506" y="0" name="bottom"/>
  <outline>
    <contour>
      <point x="176" y="550" type="line"/>
      <point x="176" y="1078" type="line"/>
      <point x="506" y="1408" type="line"/>
      <point x="880" y="1408" type="line"/>
      <point x="880" y="0" type="line"/>
      <point x="506" y="0" type="line"/>
      <point x="506" y="880" type="line"/>
    </contour>
  </outline>
</glyph>
<glyph name="fanko" format="2">
  <advance width="1760"/>
  <unicode hex="07DD"/>
  <anchor x="880" y="1408" name="top"/>
  <anchor x="880" y="0" name="bottom"/>
  <outline>
    <contour>
      <point x="176" y="0" type="line"/>
      <point x="176" y="924" type="line"/>
      <point x="693" y="924" type="line"/>
      <point x="693" y="1408" type="line"/>
      <point x="1364" y="1408" type="line"/>
      <point x="1584" y="1188" type="line"/>
      <point x="1584" y="770" type="line"/>
      <point x="1364" y="550" type="line"/>
      <point x="1067" y="550" type="line"/>
      <point x="1067" y="0" type="line"/>
    </contour>
    <contour>
      <point x="550" y="374" type="line"/>
      <point x="693" y="374" type="line"/>
      <point x="693" y="550" type="line"/>
      <point x="550" y="550" type="line"/>
    </contour>
    <contour>
      <point x="1067" y="924" type="line"/>
      <point x="1210" y="924" type="line"/>
      <point x="1210" y="1034" type="line"/>
      <point x="1067" y="1034" type="line"/>
    </contour>
  </outline>
</glyph>
<glyph name="kanko" format="2">
  <advance width="1408"/>
  <unicode hex="07DE"/>
  <anchor x="704" y="1408" name="top"/>
  <anchor x="858" y="0" name="bottom"/>
  <outline>
    <contour>
      <point x="176" y="528" type="line"/>
      <point x="176" y="1254" type="line"/>
      <point x="550" y="1254" type="line"/>
      <point x="550" y="1078" type="line"/>
      <point x="858" y="1078" type="line"/>
      <point x="858" y="1408" type="line"/>
      <point x="1232" y="1408" type="line"/>
      <point x="1232" y="0" type="line"/>
      <point x="858" y="0" type="line"/>
      <point x="858" y="704" type="line"/>
      <point x="550" y="704" type="line"/>
      <point x="550" y="528" type="line"/>
    </contour>
  </outline>
</glyph>
<glyph name="yanko" format="2">
  <advance width="1408"/>
  <unicode hex="07E6"/>
  <anchor x="704" y="1408" name="top"/>
  <anchor x="704" y="0" name="bottom"/>
  <outline>
    <contour>
      <point x="176" y="594" type="line"/>
      <point x="176" y="902" type="line"/>
      <point x="462" y="1188" type="line"/>
      <point x="517" y="1188" type="line"/>
      <point x="517" y="1452" type="line"/>
      <point x="891" y="1452" type="line"/>
      <point x="891" y="1188" type="line"/>
      <point x="946" y="1188" type="line"/>
      <point x="1232" y="902" type="line"/>
      <point x="1232" y="594" type="line"/>
      <point x="946" y="308" type="line"/>
      <point x="891" y="308" type="line"/>
      <point x="891" y="0" type="line"/>
      <point x="517" y="0" type="line"/>
      <point x="517" y="308" type="line"/>
      <point x="462" y="308" type="line"/>
    </contour>
    <contour>
      <point x="550" y="748" type="line"/>
      <point x="616" y="682" type="line"/>
      <point x="792" y="682" type="line"/>
      <point x="858" y="748" type="line"/>
      <point x="792" y="814" type="line"/>
      <point x="616" y="814" type="line"/>
    </contour>
  </outline>
</glyph>
<glyph name="chajonanko" format="2">
  <advance width="1408"/>
  <unicode hex="07E9"/>
  <anchor x="704" y="704" name="top"/>
  <anchor x="704" y="-704" name="bottom"/>
  <outline>
    <contour>
      <point x="176" y="-704" type="line"/>
      <point x="176" y="-440" type="line"/>
      <point x="396" y="0" type="line"/>
      <point x="176" y="0" type="line"/>
      <point x="176" y="374" type="line"/>
      <point x="517" y="374" type="line"/>
      <point x="517" y="704" type="line"/>
      <point x="891" y="704" type="line"/>
      <point x="891" y="154" type="line"/>
      <point x="858" y="88" type="line"/>
      <point x="924" y="88" type="line"/>
      <point x="1232" y="-220" type="line"/>
      <point x="1232" y="-484" type="line"/>
      <point x="1012" y="-704" type="line"/>
    </contour>
    <contour>
      <point x="649" y="-330" type="line"/>
      <point x="968" y="-330" type="line"/>
      <point x="814" y="-176" type="line"/>
      <point x="726" y="-176" type="line"/>
    </contour>
  </outline>
</glyph>
<glyph name="rajonanko" format="2">
  <advance width="1408"/>
  <unicode hex="07EA"/>
  <anchor x="704" y="704" name="top"/>
  <anchor x="704" y="-704" name="bottom"/>
  <outline>
    <contour>
      <point x="176" y="0" type="line"/>
      <point x="176" y="374" type="line"/>
      <point x="517" y="374" type="line"/>
      <point x="517" y="704" type="line"/>
      <point x="891" y="704" type="line"/>
      <point x="891" y="374" type="line"/>
      <point x="1232" y="374" type="line"/>
      <point x="1232" y="0" type="line"/>
      <point x="891" y="0" type="line"/>
      <point x="891" y="-704" type="line"/>
      <point x="517" y="-704" type="line"/>
      <point x="517" y="0" type="line"/>
    </contour>
  </outline>
</glyph>
<glyph name="shorthightonenkocmb" format="2">
  <advance width="1408"/>
  <unicode hex="07EB"/>
  <anchor x="704" y="1408" name="top.mark"/>
  <anchor x="704" y="1804" name="top"/>
  <outline>
    <contour>
      <point x="220" y="1540" type="line"/>
      <point x="220" y="1804" type="line"/>
      <point x="1188" y="1804" type="line"/>
      <point x="1188" y="1540" type="line"/>
    </contour>
  </outline>
</glyph>
<glyph name="shortlowtonenkocmb" format="2">
  <advance width="1408"/>
  <unicode hex="07EC"/>
	<anchor x="704" y="1408" name="top.mark"/>
	<anchor x="704" y="1914" name="top"/>
  <outline>
    <contour>
      <point x="176" y="1540" type="line"/>
      <point x="176" y="1606" type="line"/>
      <point x="484" y="1914" type="line"/>
      <point x="704" y="1914" type="line"/>
      <point x="814" y="1804" type="line"/>
      <point x="902" y="1804" type="line"/>
      <point x="1012" y="1914" type="line"/>
      <point x="1232" y="1914" type="line"/>
      <point x="1232" y="1760" type="line"/>
      <point x="1012" y="1540" type="line"/>
      <point x="704" y="1540" type="line"/>
      <point x="594" y="1650" type="line"/>
      <point x="484" y="1540" type="line"/>
    </contour>
  </outline>
</glyph>
<glyph name="longdescendingtonenkocmb" format="2">
  <advance width="1408"/>
  <unicode hex="07EE"/>
	<anchor x="704" y="1408" name="top.mark"/>
	<anchor x="704" y="1914" name="top"/>
  <outline>
    <contour>
      <point x="220" y="1540" type="line"/>
      <point x="594" y="1914" type="line"/>
      <point x="814" y="1914" type="line"/>
      <point x="1188" y="1540" type="line"/>
      <point x="814" y="1540" type="line"/>
      <point x="704" y="1650" type="line"/>
      <point x="594" y="1540" type="line"/>
    </contour>
  </outline>
</glyph>
<glyph name="longrisingtonenkocmb" format="2">
  <advance width="1408"/>
  <unicode hex="07F1"/>
  <anchor x="704" y="1408" name="top.mark"/>
  <anchor x="704" y="1914" name="top"/>
  <outline>
    <contour>
      <point x="176" y="1540" type="line"/>
      <point x="550" y="1914" type="line"/>
      <point x="924" y="1914" type="line"/>
      <point x="814" y="1804" type="line"/>
      <point x="1232" y="1804" type="line"/>
      <point x="1232" y="1540" type="line"/>
    </contour>
  </outline>
</glyph>
<glyph name="lowtoneapostrophenko" format="2">
  <advance width="704"/>
  <unicode hex="07F5"/>
  <outline>
    <contour>
      <point x="165" y="660" type="line"/>
      <point x="165" y="1034" type="line"/>
      <point x="539" y="1408" type="line"/>
      <point x="539" y="660" type="line"/>
    </contour>
  </outline>
</glyph>
<glyph name="oodennensymbolnko" format="2">
  <advance width="1408"/>
  <unicode hex="07F6"/>
  <outline>
    <contour>
      <point x="176" y="0" type="line"/>
      <point x="176" y="220" type="line"/>
      <point x="462" y="506" type="line"/>
      <point x="220" y="748" type="line"/>
      <point x="220" y="1056" type="line"/>
      <point x="572" y="1408" type="line"/>
      <point x="880" y="1408" type="line"/>
      <point x="1232" y="1056" type="line"/>
      <point x="1232" y="748" type="line"/>
      <point x="858" y="374" type="line"/>
      <point x="1232" y="374" type="line"/>
      <point x="1232" y="0" type="line"/>
    </contour>
    <contour>
      <point x="594" y="902" type="line"/>
      <point x="726" y="770" type="line"/>
      <point x="858" y="902" type="line"/>
      <point x="726" y="1034" type="line"/>
    </contour>
  </outline>
</glyph>
<glyph name="gbakurunensymbolnko" format="2">
  <advance width="1760"/>
  <unicode hex="07F7"/>
  <outline>
    <contour>
      <point x="176" y="154" type="line"/>
      <point x="176" y="748" type="line"/>
      <point x="330" y="902" type="line"/>
      <point x="429" y="902" type="line"/>
      <point x="429" y="1254" type="line"/>
      <point x="583" y="1408" type="line"/>
      <point x="1177" y="1408" type="line"/>
      <point x="1331" y="1254" type="line"/>
      <point x="1331" y="902" type="line"/>
      <point x="1430" y="902" type="line"/>
      <point x="1584" y="748" type="line"/>
      <point x="1584" y="154" type="line"/>
      <point x="1430" y="0" type="line"/>
      <point x="946" y="0" type="line"/>
      <point x="880" y="66" type="line"/>
      <point x="814" y="0" type="line"/>
      <point x="330" y="0" type="line"/>
    </contour>
    <contour>
      <point x="308" y="209" type="line"/>
      <point x="385" y="132" type="line"/>
      <point x="759" y="132" type="line"/>
      <point x="880" y="253" type="line"/>
      <point x="1001" y="132" type="line"/>
      <point x="1375" y="132" type="line"/>
      <point x="1452" y="209" type="line"/>
      <point x="1452" y="693" type="line"/>
      <point x="1375" y="770" type="line"/>
      <point x="1144" y="770" type="line"/>
      <point x="1199" y="825" type="line"/>
      <point x="1199" y="1199" type="line"/>
      <point x="1122" y="1276" type="line"/>
      <point x="638" y="1276" type="line"/>
      <point x="561" y="1199" type="line"/>
      <point x="561" y="825" type="line"/>
      <point x="616" y="770" type="line"/>
      <point x="385" y="770" type="line"/>
      <point x="308" y="693" type="line"/>
    </contour>
    <contour>
      <point x="693" y="770" type="line"/>
      <point x="693" y="1144" type="line"/>
      <point x="1067" y="1144" type="line"/>
      <point x="1067" y="770" type="line"/>
    </contour>
    <contour>
      <point x="946" y="264" type="line"/>
      <point x="946" y="638" type="line"/>
      <point x="1320" y="638" type="line"/>
      <point x="1320" y="264" type="line"/>
    </contour>
    <contour>
      <point x="440" y="264" type="line"/>
      <point x="440" y="638" type="line"/>
      <point x="814" y="638" type="line"/>
      <point x="814" y="264" type="line"/>
    </contour>
  </outline>
</glyph>
<glyph name="exclamnko" format="2">
  <advance width="1408"/>
  <unicode hex="07F9"/>
  <outline>
    <contour>
      <point x="176" y="1034" type="line"/>
      <point x="176" y="1408" type="line"/>
      <point x="1232" y="1408" type="line"/>
      <point x="1232" y="1034" type="line"/>
    </contour>
    <contour>
      <point x="517" y="517" type="line"/>
      <point x="517" y="891" type="line"/>
      <point x="891" y="891" type="line"/>
      <point x="891" y="517" type="line"/>
    </contour>
    <contour>
      <point x="517" y="0" type="line"/>
      <point x="517" y="374" type="line"/>
      <point x="891" y="374" type="line"/>
      <point x="891" y="0" type="line"/>
    </contour>
  </outline>
</glyph>
<glyph name="lajanyalannko" format="2">
  <advance width="1408"/>
  <unicode hex="07FA"/>
  <outline>
    <contour>
      <point x="176" y="0" type="line"/>
      <point x="176" y="374" type="line"/>
      <point x="1232" y="374" type="line"/>
      <point x="1232" y="0" type="line"/>
    </contour>
  </outline>
</glyph>
<glyph name="dantayalannkocmb" format="2">
  <advance width="1408"/>
  <unicode hex="07FD"/>
	<anchor x="704" y="0" name="bottom.mark"/>
	<anchor x="704" y="-506" name="bottom"/>
  <outline>
    <contour>
      <point x="176" y="-506" type="line"/>
      <point x="176" y="-132" type="line"/>
      <point x="1232" y="-132" type="line"/>
      <point x="1232" y="-506" type="line"/>
      <point x="968" y="-506" type="line"/>
      <point x="968" y="-396" type="line"/>
      <point x="440" y="-396" type="line"/>
      <point x="440" y="-506" type="line"/>
    </contour>
  </outline>
</glyph>
<glyph name="doromesignnko" format="2">
  <advance width="1760"/>
  <unicode hex="07FE"/>
  <outline>
    <contour>
      <point x="176" y="528" type="line"/>
      <point x="176" y="1122" type="line"/>
      <point x="396" y="1342" type="line"/>
      <point x="836" y="1342" type="line"/>
      <point x="902" y="1408" type="line"/>
      <point x="1364" y="1408" type="line"/>
      <point x="1584" y="1188" type="line"/>
      <point x="1584" y="528" type="line"/>
      <point x="1056" y="528" type="line"/>
      <point x="1056" y="396" type="line"/>
      <point x="1408" y="396" type="line"/>
      <point x="1408" y="132" type="line"/>
      <point x="1056" y="132" type="line"/>
      <point x="1056" y="0" type="line"/>
      <point x="682" y="0" type="line"/>
      <point x="682" y="132" type="line"/>
      <point x="330" y="132" type="line"/>
      <point x="330" y="396" type="line"/>
      <point x="682" y="396" type="line"/>
      <point x="682" y="528" type="line"/>
    </contour>
    <contour>
      <point x="1056" y="902" type="line"/>
      <point x="1210" y="902" type="line"/>
      <point x="1210" y="1034" type="line"/>
      <point x="1056" y="1034" type="line"/>
    </contour>
    <contour>
      <point x="550" y="902" type="line"/>
      <point x="682" y="902" type="line"/>
      <point x="682" y="968" type="line"/>
      <point x="550" y="968" type="line"/>
    </contour>
  </outline>
</glyph>
<glyph name="tamansignnko" format="2">
  <advance width="1408"/>
  <unicode hex="07FF"/>
  <outline>
    <contour>
      <point x="44" y="1012" type="line"/>
      <point x="44" y="1276" type="line"/>
      <point x="264" y="1276" type="line"/>
      <point x="264" y="1408" type="line"/>
      <point x="638" y="1408" type="line"/>
      <point x="638" y="1276" type="line"/>
      <point x="1045" y="1276" type="line"/>
      <point x="1045" y="1012" type="line"/>
      <point x="638" y="1012" type="line"/>
      <point x="638" y="880" type="line"/>
      <point x="1012" y="880" type="line"/>
      <point x="1232" y="660" type="line"/>
      <point x="1232" y="220" type="line"/>
      <point x="1012" y="0" type="line"/>
      <point x="176" y="0" type="line"/>
      <point x="176" y="1012" type="line"/>
    </contour>
    <contour>
      <point x="638" y="374" type="line"/>
      <point x="858" y="374" type="line"/>
      <point x="858" y="506" type="line"/>
      <point x="638" y="506" type="line"/>
    </contour>
  </outline>
</glyph>
<glyph name="uni1E9E" format="2">
  <advance width="1408"/>
  <unicode hex="1E9E"/>
  <unicode hex="00DF"/>
	<anchor x="616" y="1408" name="top"/>
  <outline>
    <contour>
      <point x="176" y="0" type="line"/>
      <point x="176" y="1188" type="line"/>
      <point x="396" y="1408" type="line"/>
      <point x="836" y="1408" type="line"/>
      <point x="1232" y="1012" type="line"/>
      <point x="1056" y="836" type="line"/>
      <point x="1232" y="660" type="line"/>
      <point x="1232" y="220" type="line"/>
      <point x="1012" y="0" type="line"/>
      <point x="682" y="0" type="line"/>
      <point x="682" y="374" type="line"/>
      <point x="858" y="374" type="line"/>
      <point x="858" y="506" type="line"/>
      <point x="682" y="682" type="line"/>
      <point x="682" y="990" type="line"/>
      <point x="704" y="1012" type="line"/>
      <point x="682" y="1034" type="line"/>
      <point x="550" y="1034" type="line"/>
      <point x="550" y="220" type="line"/>
      <point x="330" y="0" type="line"/>
    </contour>
  </outline>
</glyph>
<glyph name="hyphentwo" format="2">
  <advance width="1408"/>
  <unicode hex="2010"/>
  <outline>
    <contour>
      <point x="330" y="517" type="line"/>
      <point x="330" y="891" type="line"/>
      <point x="1078" y="891" type="line"/>
      <point x="1078" y="517" type="line"/>
    </contour>
  </outline>
</glyph>
<glyph name="figuredash" format="2">
  <advance width="1408"/>
  <unicode hex="2012"/>
  <outline>
    <contour>
      <point x="176" y="517" type="line"/>
      <point x="176" y="891" type="line"/>
      <point x="1232" y="891" type="line"/>
      <point x="1232" y="517" type="line"/>
    </contour>
  </outline>
</glyph>
<glyph name="endash" format="2">
  <advance width="1408"/>
  <unicode hex="2013"/>
  <outline>
    <contour>
      <point x="176" y="517" type="line"/>
      <point x="176" y="891" type="line"/>
      <point x="1232" y="891" type="line"/>
      <point x="1232" y="517" type="line"/>
    </contour>
  </outline>
</glyph>
<glyph name="emdash" format="2">
  <advance width="1408"/>
  <unicode hex="2014"/>
  <outline>
    <contour>
      <point x="44" y="517" type="line"/>
      <point x="44" y="891" type="line"/>
      <point x="1364" y="891" type="line"/>
      <point x="1364" y="517" type="line"/>
    </contour>
  </outline>
</glyph>
<glyph name="horizontalbar" format="2">
  <advance width="1408"/>
  <unicode hex="2015"/>
  <outline>
    <contour>
      <point x="0" y="517" type="line"/>
      <point x="0" y="891" type="line"/>
      <point x="1408" y="891" type="line"/>
      <point x="1408" y="517" type="line"/>
    </contour>
  </outline>
</glyph>
<glyph name="quoteleft" format="2">
  <advance width="704"/>
  <unicode hex="2018"/>
  <outline>
    <contour>
      <point x="165" y="1034" type="line"/>
      <point x="165" y="1408" type="line"/>
      <point x="539" y="1782" type="line"/>
      <point x="539" y="1034" type="line"/>
    </contour>
  </outline>
</glyph>
<glyph name="quoteright" format="2">
  <advance width="704"/>
  <unicode hex="2019"/>
  <outline>
    <contour>
      <point x="165" y="847" type="line"/>
      <point x="165" y="1595" type="line"/>
      <point x="539" y="1595" type="line"/>
      <point x="539" y="1221" type="line"/>
    </contour>
  </outline>
</glyph>
<glyph name="quotesinglbase" format="2">
  <advance width="704"/>
  <unicode hex="201A"/>
  <outline>
    <contour>
      <point x="165" y="-374" type="line"/>
      <point x="165" y="374" type="line"/>
      <point x="539" y="374" type="line"/>
      <point x="539" y="0" type="line"/>
    </contour>
  </outline>
</glyph>
<glyph name="quotedblleft" format="2">
  <advance width="1408"/>
  <unicode hex="201C"/>
  <outline>
    <contour>
      <point x="176" y="1034" type="line"/>
      <point x="176" y="1408" type="line"/>
      <point x="550" y="1782" type="line"/>
      <point x="550" y="1034" type="line"/>
    </contour>
    <contour>
      <point x="858" y="1034" type="line"/>
      <point x="858" y="1408" type="line"/>
      <point x="1232" y="1782" type="line"/>
      <point x="1232" y="1034" type="line"/>
    </contour>
  </outline>
</glyph>
<glyph name="quotedblright" format="2">
  <advance width="1408"/>
  <unicode hex="201D"/>
  <outline>
    <contour>
      <point x="176" y="847" type="line"/>
      <point x="176" y="1595" type="line"/>
      <point x="550" y="1595" type="line"/>
      <point x="550" y="1221" type="line"/>
    </contour>
    <contour>
      <point x="858" y="847" type="line"/>
      <point x="858" y="1595" type="line"/>
      <point x="1232" y="1595" type="line"/>
      <point x="1232" y="1221" type="line"/>
    </contour>
  </outline>
</glyph>
<glyph name="quotedblbase" format="2">
  <advance width="1408"/>
  <unicode hex="201E"/>
  <outline>
    <contour>
      <point x="176" y="-374" type="line"/>
      <point x="176" y="374" type="line"/>
      <point x="550" y="374" type="line"/>
      <point x="550" y="0" type="line"/>
    </contour>
    <contour>
      <point x="858" y="-374" type="line"/>
      <point x="858" y="374" type="line"/>
      <point x="1232" y="374" type="line"/>
      <point x="1232" y="0" type="line"/>
    </contour>
  </outline>
</glyph>
<glyph name="dagger" format="2">
  <advance width="1408"/>
  <unicode hex="2020"/>
  <outline>
    <contour>
      <point x="176" y="693" type="line"/>
      <point x="176" y="1067" type="line"/>
      <point x="517" y="1067" type="line"/>
      <point x="517" y="1408" type="line"/>
      <point x="891" y="1408" type="line"/>
      <point x="891" y="1067" type="line"/>
      <point x="1232" y="1067" type="line"/>
      <point x="1232" y="693" type="line"/>
      <point x="891" y="693" type="line"/>
      <point x="891" y="0" type="line"/>
      <point x="704" y="-187" type="line"/>
      <point x="517" y="0" type="line"/>
      <point x="517" y="693" type="line"/>
    </contour>
  </outline>
</glyph>
<glyph name="daggerdbl" format="2">
  <advance width="1408"/>
  <unicode hex="2021"/>
  <outline>
    <contour>
      <point x="176" y="220" type="line"/>
      <point x="176" y="594" type="line"/>
      <point x="517" y="594" type="line"/>
      <point x="517" y="814" type="line"/>
      <point x="176" y="814" type="line"/>
      <point x="176" y="1188" type="line"/>
      <point x="517" y="1188" type="line"/>
      <point x="517" y="1408" type="line"/>
      <point x="891" y="1408" type="line"/>
      <point x="891" y="1188" type="line"/>
      <point x="1232" y="1188" type="line"/>
      <point x="1232" y="814" type="line"/>
      <point x="891" y="814" type="line"/>
      <point x="891" y="594" type="line"/>
      <point x="1232" y="594" type="line"/>
      <point x="1232" y="220" type="line"/>
      <point x="891" y="220" type="line"/>
      <point x="891" y="0" type="line"/>
      <point x="517" y="0" type="line"/>
      <point x="517" y="220" type="line"/>
    </contour>
  </outline>
</glyph>
<glyph name="bullet" format="2">
  <advance width="1408"/>
  <unicode hex="2022"/>
  <outline>
    <contour>
      <point x="440" y="594" type="line"/>
      <point x="440" y="814" type="line"/>
      <point x="594" y="968" type="line"/>
      <point x="814" y="968" type="line"/>
      <point x="968" y="814" type="line"/>
      <point x="968" y="594" type="line"/>
      <point x="814" y="440" type="line"/>
      <point x="594" y="440" type="line"/>
    </contour>
  </outline>
</glyph>
<glyph name="ellipsis" format="2">
  <advance width="1760"/>
  <unicode hex="2026"/>
  <outline>
    <contour>
      <point x="176" y="0" type="line"/>
      <point x="176" y="374" type="line"/>
      <point x="550" y="374" type="line"/>
      <point x="550" y="0" type="line"/>
    </contour>
    <contour>
      <point x="704" y="0" type="line"/>
      <point x="704" y="374" type="line"/>
      <point x="1078" y="374" type="line"/>
      <point x="1078" y="0" type="line"/>
    </contour>
    <contour>
      <point x="1232" y="0" type="line"/>
      <point x="1232" y="374" type="line"/>
      <point x="1606" y="374" type="line"/>
      <point x="1606" y="0" type="line"/>
    </contour>
  </outline>
</glyph>
<glyph name="perthousand" format="2">
  <advance width="1760"/>
  <unicode hex="2030"/>
  <outline>
    <contour>
      <point x="176" y="440" type="line"/>
      <point x="968" y="1232" type="line"/>
      <point x="1232" y="968" type="line"/>
      <point x="440" y="176" type="line"/>
    </contour>
    <contour>
      <point x="352" y="1034" type="line"/>
      <point x="352" y="1408" type="line"/>
      <point x="726" y="1408" type="line"/>
      <point x="726" y="1034" type="line"/>
    </contour>
    <contour>
      <point x="682" y="0" type="line"/>
      <point x="682" y="374" type="line"/>
      <point x="1056" y="374" type="line"/>
      <point x="1056" y="0" type="line"/>
    </contour>
    <contour>
      <point x="1210" y="0" type="line"/>
      <point x="1210" y="374" type="line"/>
      <point x="1584" y="374" type="line"/>
      <point x="1584" y="0" type="line"/>
    </contour>
  </outline>
</glyph>
<glyph name="guilsinglleft" format="2">
  <advance width="1056"/>
  <unicode hex="2039"/>
  <outline>
    <contour>
      <point x="176" y="704" type="line"/>
      <point x="440" y="1232" type="line"/>
      <point x="858" y="1232" type="line"/>
      <point x="594" y="704" type="line"/>
      <point x="770" y="352" type="line"/>
      <point x="352" y="352" type="line"/>
    </contour>
  </outline>
</glyph>
<glyph name="guilsinglright" format="2">
  <advance width="1056"/>
  <unicode hex="203A"/>
  <outline>
    <contour>
      <point x="198" y="176" type="line"/>
      <point x="462" y="704" type="line"/>
      <point x="286" y="1056" type="line"/>
      <point x="704" y="1056" type="line"/>
      <point x="880" y="704" type="line"/>
      <point x="616" y="176" type="line"/>
    </contour>
  </outline>
</glyph>
<glyph name="euro" format="2">
  <advance width="1408"/>
  <unicode hex="20AC"/>
  <outline>
    <contour>
      <point x="110" y="418" type="line"/>
      <point x="242" y="682" type="line"/>
      <point x="297" y="682" type="line"/>
      <point x="297" y="726" type="line"/>
      <point x="110" y="726" type="line"/>
      <point x="242" y="990" type="line"/>
      <point x="297" y="990" type="line"/>
      <point x="297" y="1188" type="line"/>
      <point x="517" y="1408" type="line"/>
      <point x="1012" y="1408" type="line"/>
      <point x="1232" y="1188" type="line"/>
      <point x="1155" y="1034" type="line"/>
      <point x="671" y="1034" type="line"/>
      <point x="671" y="990" type="line"/>
      <point x="1133" y="990" type="line"/>
      <point x="1001" y="726" type="line"/>
      <point x="671" y="726" type="line"/>
      <point x="671" y="682" type="line"/>
      <point x="979" y="682" type="line"/>
      <point x="847" y="418" type="line"/>
      <point x="671" y="418" type="line"/>
      <point x="671" y="374" type="line"/>
      <point x="1232" y="374" type="line"/>
      <point x="1232" y="220" type="line"/>
      <point x="1012" y="0" type="line"/>
      <point x="517" y="0" type="line"/>
      <point x="297" y="220" type="line"/>
      <point x="297" y="418" type="line"/>
    </contour>
  </outline>
</glyph>
<glyph name="uni20AF" format="2">
  <advance width="1760"/>
  <unicode hex="20AF"/>
  <outline>
    <contour>
      <point x="99" y="0" type="line"/>
      <point x="99" y="374" type="line"/>
      <point x="176" y="374" type="line"/>
      <point x="176" y="880" type="line"/>
      <point x="99" y="880" type="line"/>
      <point x="99" y="1034" type="line"/>
      <point x="176" y="1111" type="line"/>
      <point x="176" y="1408" type="line"/>
      <point x="550" y="1408" type="line"/>
      <point x="550" y="1254" type="line"/>
      <point x="847" y="1254" type="line"/>
      <point x="1067" y="1034" type="line"/>
      <point x="1067" y="891" type="line"/>
      <point x="1364" y="891" type="line"/>
      <point x="1584" y="671" type="line"/>
      <point x="1584" y="220" type="line"/>
      <point x="1364" y="0" type="line"/>
      <point x="1067" y="0" type="line"/>
      <point x="1067" y="-528" type="line"/>
      <point x="693" y="-528" type="line"/>
      <point x="693" y="0" type="line"/>
		</contour>
    <contour>
      <point x="550" y="374" type="line"/>
      <point x="693" y="517" type="line"/>
      <point x="693" y="880" type="line"/>
      <point x="550" y="880" type="line"/>
		</contour>
    <contour>
      <point x="1067" y="374" type="line"/>
      <point x="1210" y="374" type="line"/>
      <point x="1210" y="517" type="line"/>
      <point x="1067" y="517" type="line"/>
		</contour>
  </outline>
</glyph>
<glyph name="numero" format="2">
  <!--advance width="1760"/-->
  <advance width="2112"/>
  <unicode hex="2116"/>
  <outline>
    <contour>
      <point x="176" y="0" type="line"/>
      <point x="176" y="1166" type="line"/>
      <point x="88" y="1342" type="line"/>
      <point x="506" y="1342" type="line"/>
      <point x="660" y="1034" type="line"/>
      <point x="660" y="1342" type="line"/>

			<!--
      <point x="858" y="1342" type="line"/>

      <point x="924" y="1408" type="line"/>
      <point x="1364" y="1408" type="line"/>
      <point x="1584" y="1188" type="line"/>
      <point x="1584" y="726" type="line"/>
      <point x="1364" y="506" type="line"/>
      <point x="1034" y="506" type="line"/>

      <point x="1034" y="440" type="line"/>

      <point x="1529" y="440" type="line"/>
      <point x="1529" y="176" type="line"/>

      <point x="1034" y="176" type="line"/>
			-->
      <point x="1034" y="1342" type="line"/>

			<!-- -->
      <point x="1034" y="0" type="line"/>
      <point x="759" y="0" type="line"/>
      <point x="550" y="418" type="line"/>
      <point x="550" y="0" type="line"/>
    </contour>
		<contour>
      <point x="1056" y="726" type="line"/>
      <point x="1056" y="1188" type="line"/>
      <point x="1276" y="1408" type="line"/>
      <point x="1716" y="1408" type="line"/>
      <point x="1936" y="1188" type="line"/>
      <point x="1936" y="726" type="line"/>
      <point x="1716" y="506" type="line"/>
      <point x="1276" y="506" type="line"/>
		</contour>
    <contour>
			<!--
      <point x="1078" y="880" type="line"/>
      <point x="1210" y="880" type="line"/>
      <point x="1210" y="1034" type="line"/>
      <point x="1078" y="1034" type="line"/>
			-->
      <point x="1430" y="880" type="line"/>
      <point x="1562" y="880" type="line"/>
      <point x="1562" y="1034" type="line"/>
      <point x="1430" y="1034" type="line"/>
    </contour>
		<contour>
      <point x="1111" y="176" type="line"/>
      <point x="1111" y="440" type="line"/>
      <point x="1881" y="440" type="line"/>
      <point x="1881" y="176" type="line"/>
		</contour>
  </outline>
</glyph>
<glyph name="trademark" format="2">
  <advance width="1760"/>
  <unicode hex="2122"/>
  <outline>
    <contour>
      <point x="176" y="1144" type="line"/>
      <point x="176" y="1408" type="line"/>
      <point x="704" y="1408" type="line"/>
      <point x="704" y="1144" type="line"/>
      <point x="572" y="1144" type="line"/>
      <point x="572" y="704" type="line"/>
      <point x="308" y="704" type="line"/>
      <point x="308" y="1144" type="line"/>
    </contour>
    <contour>
      <point x="880" y="704" type="line"/>
      <point x="880" y="1408" type="line"/>
      <point x="1144" y="1408" type="line"/>
      <point x="1232" y="1320" type="line"/>
      <point x="1320" y="1408" type="line"/>
      <point x="1584" y="1408" type="line"/>
      <point x="1584" y="704" type="line"/>
      <point x="1320" y="704" type="line"/>
      <point x="1320" y="1034" type="line"/>
      <point x="1232" y="946" type="line"/>
      <point x="1144" y="1034" type="line"/>
      <point x="1144" y="704" type="line"/>
    </contour>
  </outline>
</glyph>
<glyph name="arrowup" format="2">
  <advance width="1408"/>
  <unicode hex="2191"/>
  <outline>
    <contour>
      <point x="176" y="352" type="line"/>
      <point x="176" y="880" type="line"/>
      <point x="176" y="880" type="line"/>
      <point x="704" y="1408" type="line"/>
      <point x="1232" y="880" type="line"/>
      <point x="1232" y="352" type="line"/>
      <point x="891" y="693" type="line"/>
      <point x="891" y="0" type="line"/>
      <point x="517" y="0" type="line"/>
      <point x="517" y="693" type="line"/>
    </contour>
  </outline>
</glyph>
<glyph name="Mhook" format="2">
  <advance width="1760"/>
  <unicode hex="2C6E"/>
  <unicode hex="0271"/>
	<anchor x="880" y="1408" name="top"/>
	<anchor x="880" y="-528" name="bottom"/>
  <outline>
    <contour>
      <point x="176" y="0" type="line"/>
      <point x="176" y="1408" type="line"/>
      <point x="440" y="1408" type="line"/>
      <point x="880" y="968" type="line"/>
      <point x="1320" y="1408" type="line"/>
      <point x="1584" y="1408" type="line"/>
      <point x="1584" y="-308" type="line"/>
      <point x="1364" y="-528" type="line"/>
      <point x="1056" y="-528" type="line"/>
      <point x="1056" y="-154" type="line"/>
      <point x="1210" y="-154" type="line"/>
      <point x="1210" y="770" type="line"/>
      <point x="880" y="440" type="line"/>
      <point x="550" y="770" type="line"/>
      <point x="550" y="0" type="line"/>
    </contour>
  </outline>
</glyph>
<glyph name="yatifinagh" format="2">
  <advance width="1408"/>
  <unicode hex="2D30"/>
  <outline>
    <contour>
      <point x="264" y="220" type="line"/>
      <point x="264" y="660" type="line"/>
      <point x="484" y="880" type="line"/>
      <point x="924" y="880" type="line"/>
      <point x="1144" y="660" type="line"/>
      <point x="1144" y="220" type="line"/>
      <point x="924" y="0" type="line"/>
      <point x="484" y="0" type="line"/>
    </contour>
    <contour>
      <point x="638" y="374" type="line"/>
      <point x="770" y="374" type="line"/>
      <point x="770" y="506" type="line"/>
      <point x="638" y="506" type="line"/>
    </contour>
  </outline>
</glyph>
<glyph name="yabtifinagh" format="2">
  <advance width="1760"/>
  <unicode hex="2D31"/>
  <outline>
    <contour>
      <point x="176" y="363" type="line"/>
      <point x="176" y="1045" type="line"/>
      <point x="539" y="1408" type="line"/>
      <point x="1221" y="1408" type="line"/>
      <point x="1584" y="1045" type="line"/>
      <point x="1584" y="363" type="line"/>
      <point x="1221" y="0" type="line"/>
      <point x="539" y="0" type="line"/>
    </contour>
    <contour>
      <point x="550" y="891" type="line"/>
      <point x="1210" y="891" type="line"/>
      <point x="1067" y="1034" type="line"/>
      <point x="693" y="1034" type="line"/>
    </contour>
    <contour>
      <point x="550" y="517" type="line"/>
      <point x="693" y="374" type="line"/>
      <point x="1067" y="374" type="line"/>
      <point x="1210" y="517" type="line"/>
    </contour>
  </outline>
</glyph>
<glyph name="yabhtifinagh" format="2">
  <advance width="1760"/>
  <unicode hex="2D32"/>
  <outline>
    <contour>
      <point x="176" y="220" type="line"/>
      <point x="176" y="1188" type="line"/>
      <point x="396" y="1408" type="line"/>
      <point x="1364" y="1408" type="line"/>
      <point x="1584" y="1188" type="line"/>
      <point x="1584" y="220" type="line"/>
      <point x="1364" y="0" type="line"/>
      <point x="396" y="0" type="line"/>
    </contour>
    <contour>
      <point x="550" y="891" type="line"/>
      <point x="693" y="891" type="line"/>
      <point x="693" y="1034" type="line"/>
      <point x="550" y="1034" type="line"/>
    </contour>
    <contour>
      <point x="1067" y="891" type="line"/>
      <point x="1210" y="891" type="line"/>
      <point x="1210" y="1034" type="line"/>
      <point x="1067" y="1034" type="line"/>
    </contour>
    <contour>
      <point x="550" y="374" type="line"/>
      <point x="693" y="374" type="line"/>
      <point x="693" y="517" type="line"/>
      <point x="550" y="517" type="line"/>
    </contour>
    <contour>
      <point x="1067" y="374" type="line"/>
      <point x="1210" y="374" type="line"/>
      <point x="1210" y="517" type="line"/>
      <point x="1067" y="517" type="line"/>
    </contour>
  </outline>
</glyph>
<glyph name="yagtifinagh" format="2">
  <advance width="1760"/>
  <unicode hex="2D33"/>
  <outline>
    <contour>
      <point x="176" y="0" type="line"/>
      <point x="176" y="429" type="line"/>
      <point x="616" y="869" type="line"/>
      <point x="176" y="1309" type="line"/>
      <point x="176" y="1408" type="line"/>
      <point x="605" y="1408" type="line"/>
      <point x="880" y="1133" type="line"/>
      <point x="1155" y="1408" type="line"/>
      <point x="1584" y="1408" type="line"/>
      <point x="1584" y="1309" type="line"/>
      <point x="1144" y="869" type="line"/>
      <point x="1584" y="429" type="line"/>
      <point x="1584" y="0" type="line"/>
    </contour>
    <contour>
      <point x="649" y="374" type="line"/>
      <point x="1111" y="374" type="line"/>
      <point x="880" y="605" type="line"/>
    </contour>
  </outline>
</glyph>
<glyph name="yajberbertifinagh" format="2">
  <advance width="1760"/>
  <unicode hex="2D35"/>
  <outline>
    <contour>
      <point x="176" y="0" type="line"/>
      <point x="176" y="264" type="line"/>
      <point x="616" y="704" type="line"/>
      <point x="176" y="1144" type="line"/>
      <point x="176" y="1408" type="line"/>
      <point x="1584" y="1408" type="line"/>
      <point x="1584" y="1144" type="line"/>
      <point x="1144" y="704" type="line"/>
      <point x="1584" y="264" type="line"/>
      <point x="1584" y="0" type="line"/>
    </contour>
    <contour>
      <point x="814" y="374" type="line"/>
      <point x="946" y="374" type="line"/>
      <point x="880" y="440" type="line"/>
    </contour>
    <contour>
      <point x="814" y="1034" type="line"/>
      <point x="880" y="968" type="line"/>
      <point x="946" y="1034" type="line"/>
    </contour>
  </outline>
</glyph>
<glyph name="yajtifinagh" format="2">
  <advance width="1760"/>
  <unicode hex="2D36"/>
  <outline>
    <contour>
      <point x="176" y="1012" type="line"/>
      <point x="176" y="1199" type="line"/>
      <point x="308" y="1331" type="line"/>
      <point x="495" y="1331" type="line"/>
      <point x="627" y="1199" type="line"/>
      <point x="627" y="1012" type="line"/>
      <point x="495" y="880" type="line"/>
      <point x="308" y="880" type="line"/>
    </contour>
    <contour>
      <point x="693" y="0" type="line"/>
      <point x="693" y="1408" type="line"/>
      <point x="1067" y="1408" type="line"/>
      <point x="1067" y="0" type="line"/>
    </contour>
    <contour>
      <point x="1133" y="1012" type="line"/>
      <point x="1133" y="1199" type="line"/>
      <point x="1265" y="1331" type="line"/>
      <point x="1452" y="1331" type="line"/>
      <point x="1584" y="1199" type="line"/>
      <point x="1584" y="1012" type="line"/>
      <point x="1452" y="880" type="line"/>
      <point x="1265" y="880" type="line"/>
    </contour>
  </outline>
</glyph>
<glyph name="yadtifinagh" format="2">
  <advance width="1760"/>
  <unicode hex="2D37"/>
  <outline>
    <contour>
      <point x="176" y="0" type="line"/>
      <point x="176" y="88" type="line"/>
      <point x="836" y="1408" type="line"/>
      <point x="924" y="1408" type="line"/>
      <point x="1584" y="88" type="line"/>
      <point x="1584" y="0" type="line"/>
      <point x="1210" y="0" type="line"/>
      <point x="880" y="660" type="line"/>
      <point x="550" y="0" type="line"/>
    </contour>
  </outline>
</glyph>
<glyph name="yaddtifinagh" format="2">
  <advance width="1408"/>
  <unicode hex="2D39"/>
  <outline>
    <contour>
      <point x="176" y="0" type="line"/>
      <point x="176" y="1408" type="line"/>
      <point x="1232" y="1408" type="line"/>
      <point x="1232" y="1034" type="line"/>
      <point x="550" y="1034" type="line"/>
      <point x="550" y="891" type="line"/>
      <point x="1232" y="891" type="line"/>
      <point x="1232" y="517" type="line"/>
      <point x="550" y="517" type="line"/>
      <point x="550" y="374" type="line"/>
      <point x="1232" y="374" type="line"/>
      <point x="1232" y="0" type="line"/>
    </contour>
  </outline>
</glyph>
<glyph name="yeytifinagh" format="2">
  <advance width="1408"/>
  <unicode hex="2D3B"/>
  <outline>
    <contour>
      <point x="176" y="517" type="line"/>
      <point x="176" y="891" type="line"/>
      <point x="1232" y="891" type="line"/>
      <point x="1232" y="517" type="line"/>
    </contour>
    <contour>
      <point x="473" y="1089" type="line"/>
      <point x="473" y="1276" type="line"/>
      <point x="605" y="1408" type="line"/>
      <point x="803" y="1408" type="line"/>
      <point x="935" y="1276" type="line"/>
      <point x="935" y="1089" type="line"/>
      <point x="803" y="957" type="line"/>
      <point x="605" y="957" type="line"/>
    </contour>
    <contour>
      <point x="473" y="132" type="line"/>
      <point x="473" y="319" type="line"/>
      <point x="605" y="451" type="line"/>
      <point x="803" y="451" type="line"/>
      <point x="935" y="319" type="line"/>
      <point x="935" y="132" type="line"/>
      <point x="803" y="0" type="line"/>
      <point x="605" y="0" type="line"/>
    </contour>
  </outline>
</glyph>
<glyph name="yaftifinagh" format="2">
  <advance width="1760"/>
  <unicode hex="2D3C"/>
  <outline>
    <contour>
      <point x="176" y="0" type="line"/>
      <point x="176" y="374" type="line"/>
      <point x="396" y="374" type="line"/>
      <point x="396" y="1034" type="line"/>
      <point x="176" y="1034" type="line"/>
      <point x="176" y="1408" type="line"/>
      <point x="770" y="1408" type="line"/>
      <point x="770" y="891" type="line"/>
      <point x="990" y="891" type="line"/>
      <point x="990" y="1408" type="line"/>
      <point x="1584" y="1408" type="line"/>
      <point x="1584" y="1034" type="line"/>
      <point x="1364" y="1034" type="line"/>
      <point x="1364" y="374" type="line"/>
      <point x="1584" y="374" type="line"/>
      <point x="1584" y="0" type="line"/>
      <point x="990" y="0" type="line"/>
      <point x="990" y="517" type="line"/>
      <point x="770" y="517" type="line"/>
      <point x="770" y="0" type="line"/>
    </contour>
  </outline>
</glyph>
<glyph name="yaktifinagh" format="2">
  <advance width="1760"/>
  <unicode hex="2D3D"/>
  <outline>
    <contour>
      <point x="176" y="0" type="line"/>
      <point x="176" y="1408" type="line"/>
      <point x="1584" y="1408" type="line"/>
      <point x="1584" y="1254" type="line"/>
      <point x="1012" y="682" type="line"/>
      <point x="1584" y="110" type="line"/>
      <point x="1584" y="0" type="line"/>
      <point x="1166" y="0" type="line"/>
      <point x="748" y="418" type="line"/>
      <point x="330" y="0" type="line"/>
    </contour>
    <contour>
      <point x="550" y="748" type="line"/>
      <point x="836" y="1034" type="line"/>
      <point x="550" y="1034" type="line"/>
    </contour>
  </outline>
</glyph>
